<svg version="1.1" id="Layer_1" xmlns="http://www.w3.org/2000/svg" xmlns:xlink="http://www.w3.org/1999/xlink" x="0px" y="0px"
	 width="100%" viewBox="0 0 1200 1200" enable-background="new 0 0 1200 1200" xml:space="preserve">
<path fill="#000000" opacity="1.000000" stroke="none" 
	d="
M184.000000,1201.000000 
	C123.012466,1201.000000 62.024937,1201.000000 1.018701,1201.000000 
	C1.018701,801.094238 1.018701,401.188446 1.018701,1.000000 
	C224.360107,1.000000 447.720337,1.000000 671.862305,1.297041 
	C670.925781,2.393003 669.253113,3.315092 667.482117,3.971793 
	C649.993713,10.456614 636.687500,26.729475 636.283142,44.744808 
	C635.406494,83.807533 636.109436,122.905716 636.089966,162.453247 
	C636.005859,208.558975 635.998230,254.200882 635.523621,299.909241 
	C569.120178,299.980621 503.183655,299.971222 437.247192,300.033203 
	C434.009521,300.036224 430.663422,300.248535 427.552551,301.066223 
	C404.986542,306.997894 391.340088,324.595001 390.255188,346.078217 
	C389.148376,367.994720 390.110138,390.015747 390.087830,412.454498 
	C390.061920,447.609467 390.114471,482.300964 390.089478,517.455933 
	C389.976776,545.585999 389.941681,573.252625 389.444824,600.952637 
	C324.392242,600.988647 259.801392,600.976440 195.210571,601.036560 
	C191.975555,601.039551 188.630646,601.250305 185.524109,602.071960 
	C163.015808,608.026001 149.571152,625.361023 148.274384,647.095825 
	C147.047607,667.657959 148.110962,688.356750 148.089661,709.458740 
	C148.063644,746.279602 148.115005,782.637207 148.089417,819.458191 
	C148.063721,855.612671 148.115005,891.303833 148.089813,927.458435 
	C148.064438,962.613159 148.115524,997.304382 148.090668,1032.459106 
	C148.065170,1063.614136 148.115601,1094.305664 148.091003,1125.460693 
	C148.009827,1133.559937 148.226486,1141.203491 147.955200,1148.829834 
	C147.179947,1170.623779 160.643677,1192.647705 182.639618,1199.067505 
	C183.230728,1199.239990 183.552582,1200.335205 184.000000,1201.000000 
z"/>
<path fill="#000000" opacity="1.000000" stroke="none" 
	d="
M1018.000000,0.999987 
	C1078.983398,1.000000 1139.966919,1.000000 1200.944092,1.000002 
	C1200.937744,401.000000 1200.937744,801.000000 1200.937744,1201.000000 
	C1140.225464,1201.000000 1079.575439,1201.000000 1018.326294,1200.630859 
	C1024.096313,1196.504639 1030.465454,1192.747437 1037.018677,1188.693604 
	C1038.376831,1187.516113 1039.752930,1186.810425 1040.692871,1185.726440 
	C1048.540039,1176.676147 1053.542969,1166.137817 1053.846069,1154.203369 
	C1054.338623,1134.812134 1053.886719,1115.396729 1053.894531,1095.527100 
	C1053.915039,1063.373657 1053.874390,1031.684814 1053.896240,999.531250 
	C1053.917236,975.376770 1053.875610,951.687073 1053.897949,927.532654 
	C1053.919556,907.377258 1053.877319,887.686523 1053.899170,867.531250 
	C1053.920654,844.710144 1053.877930,822.353638 1053.899902,799.532593 
	C1053.921265,779.710754 1053.877686,760.353394 1053.899414,740.531738 
	C1053.921265,720.376038 1053.877563,700.684753 1053.899658,680.529297 
	C1053.922607,657.708801 1053.880005,635.352478 1053.904541,612.537415 
	C1053.925049,608.051880 1053.878540,604.025146 1053.899414,599.534119 
	C1053.922607,577.378235 1053.878662,555.686584 1053.901367,533.530884 
	C1053.923340,513.376770 1053.878662,493.686768 1053.901367,473.532593 
	C1053.923950,453.710846 1053.878906,434.353210 1053.901855,414.531616 
	C1053.924316,381.041748 1053.879028,348.015839 1053.899170,314.526031 
	C1053.977905,280.653046 1054.011963,247.243988 1053.995850,213.834961 
	C1053.987671,196.552872 1053.890381,179.270828 1053.899658,161.524994 
	C1053.978882,124.417145 1054.101074,87.772430 1053.885986,51.129688 
	C1053.854004,45.674019 1052.895142,40.015156 1051.224243,34.817013 
	C1046.293213,19.476612 1035.770264,9.211222 1020.842590,3.314444 
	C1019.759399,2.886547 1018.941345,1.787174 1018.000000,0.999987 
z"/>
<path fill="#E7B413" opacity="1.000000" stroke="none" 
	d="
M1017.531372,0.999987 
	C1018.941345,1.787174 1019.759399,2.886547 1020.842590,3.314444 
	C1035.770264,9.211222 1046.293213,19.476612 1051.224243,34.817013 
	C1052.895142,40.015156 1053.854004,45.674019 1053.885986,51.129688 
	C1054.101074,87.772430 1053.978882,124.417145 1053.441650,161.527878 
	C914.000488,161.992828 775.083496,161.991119 636.166504,161.989395 
	C636.109436,122.905716 635.406494,83.807533 636.283142,44.744808 
	C636.687500,26.729475 649.993713,10.456614 667.482117,3.971793 
	C669.253113,3.315092 670.925781,2.393003 672.322021,1.297041 
	C787.020874,1.000000 902.041809,1.000000 1017.531372,0.999987 
z"/>
<path fill="#F3CE37" opacity="1.000000" stroke="none" 
	d="
M184.468658,1201.000000 
	C183.552582,1200.335205 183.230728,1199.239990 182.639618,1199.067505 
	C160.643677,1192.647705 147.179947,1170.623779 147.955200,1148.829834 
	C148.226486,1141.203491 148.009827,1133.559937 148.549072,1125.461792 
	C287.985168,1124.989624 426.888184,1124.979858 565.847778,1125.438843 
	C565.948242,1133.940674 565.992126,1141.973877 566.015381,1150.474854 
	C565.996582,1167.628418 565.998291,1184.314209 566.000000,1201.000000 
	C438.979095,1201.000000 311.958221,1201.000000 184.468658,1201.000000 
z"/>
<path fill="#DF9A03" opacity="1.000000" stroke="none" 
	d="
M566.468628,1201.000000 
	C565.998291,1184.314209 565.996582,1167.628418 566.480347,1150.472656 
	C647.194946,1149.996338 727.424072,1149.989990 807.723450,1150.447876 
	C807.862427,1167.608154 807.931213,1184.304077 808.000000,1201.000000 
	C727.645752,1201.000000 647.291565,1201.000000 566.468628,1201.000000 
z"/>
<path fill="#AE5400" opacity="1.000000" stroke="none" 
	d="
M808.468628,1201.000000 
	C807.931213,1184.304077 807.862427,1167.608154 807.803345,1149.985352 
	C807.876709,1131.372192 807.940369,1113.686157 808.446655,1096.000000 
	C813.528992,1095.568970 817.433167,1096.344238 820.937744,1100.160522 
	C823.990112,1103.484375 828.039185,1106.026123 831.975037,1108.362183 
	C834.953064,1110.129883 836.306213,1112.208008 836.021240,1115.586914 
	C835.750488,1118.797119 836.564758,1121.202271 839.966858,1122.779663 
	C841.455750,1123.470093 841.950867,1126.203979 843.013977,1127.938354 
	C844.276978,1129.999146 845.665771,1131.982910 847.000000,1134.447144 
	C847.098694,1139.040649 845.734558,1143.695068 852.079163,1145.072144 
	C853.370483,1145.352295 854.499695,1148.498657 854.877380,1150.481323 
	C856.124512,1157.027832 855.812805,1164.091064 862.461182,1168.418579 
	C863.356140,1169.001221 863.476196,1170.785522 863.938721,1172.019409 
	C864.894836,1174.570190 865.317627,1177.538452 866.925903,1179.570312 
	C868.805969,1181.945435 872.133850,1183.159790 874.073853,1185.505859 
	C876.520874,1188.465210 879.317627,1189.050293 882.846619,1189.045532 
	C934.175842,1188.975952 985.505188,1188.993530 1036.834473,1188.990234 
	C1030.465454,1192.747437 1024.096313,1196.504639 1017.863647,1200.630859 
	C948.312439,1201.000000 878.624878,1201.000000 808.468628,1201.000000 
z"/>
<path fill="#DFA610" opacity="1.000000" stroke="none" 
	d="
M636.090027,162.453247 
	C775.083496,161.991119 914.000488,161.992828 1053.375366,161.991638 
	C1053.890381,179.270828 1053.987671,196.552872 1053.995850,213.834961 
	C1054.011963,247.243988 1053.977905,280.653046 1053.528076,314.548584 
	C1050.656616,316.355835 1048.225952,318.820923 1045.786255,318.829773 
	C986.531799,319.044678 927.276306,319.014771 868.021179,318.917694 
	C866.210815,318.914734 864.341370,317.855499 862.603149,317.061646 
	C853.275940,312.801941 844.369690,306.851349 834.593384,304.507568 
	C815.520996,299.935150 795.839661,299.115906 776.188416,300.071533 
	C774.776367,300.140228 773.413086,301.210419 771.607666,301.855072 
	C764.614868,301.265198 758.044434,300.127258 751.467529,300.088928 
	C712.976013,299.864319 674.483093,299.896942 635.990601,299.842773 
	C635.998230,254.200882 636.005859,208.558975 636.090027,162.453247 
z"/>
<path fill="#F7E07B" opacity="1.000000" stroke="none" 
	d="
M635.523621,299.909241 
	C674.483093,299.896942 712.976013,299.864319 751.467529,300.088928 
	C758.044434,300.127258 764.614868,301.265198 771.917603,302.046570 
	C787.381531,307.664856 798.484009,316.973419 804.268311,332.367920 
	C805.459473,337.507629 806.557007,342.285553 807.699402,347.525604 
	C807.679504,369.316864 807.614807,390.646027 807.109619,411.979309 
	C667.834839,411.985962 529.000549,411.988464 390.166260,411.990997 
	C390.110138,390.015747 389.148376,367.994720 390.255188,346.078217 
	C391.340088,324.595001 404.986542,306.997894 427.552551,301.066223 
	C430.663422,300.248535 434.009521,300.036224 437.247192,300.033203 
	C503.183655,299.971222 569.120178,299.980621 635.523621,299.909241 
z"/>
<path fill="#F7DF73" opacity="1.000000" stroke="none" 
	d="
M148.166382,818.994812 
	C148.115005,782.637207 148.063644,746.279602 148.460464,709.533386 
	C152.295776,709.763184 155.682510,710.919983 159.070068,710.922363 
	C290.697937,711.013855 422.325867,711.009094 553.953796,710.955994 
	C557.913757,710.954407 561.873535,710.302185 565.880310,710.425049 
	C565.963074,719.269714 565.998840,727.642761 566.021973,736.482788 
	C565.945190,764.284241 565.881104,791.618713 565.359985,818.963806 
	C425.990723,818.981262 287.078552,818.988037 148.166382,818.994812 
z"/>
<path fill="#F6DB63" opacity="1.000000" stroke="none" 
	d="
M148.089417,819.458191 
	C287.078552,818.988037 425.990723,818.981262 565.410950,819.435059 
	C565.957764,826.935120 565.996521,833.974548 566.020874,841.481140 
	C565.938904,870.283386 565.871338,898.618469 565.347656,926.964172 
	C425.983032,926.981506 287.074677,926.988220 148.166290,926.994934 
	C148.115005,891.303833 148.063721,855.612671 148.089417,819.458191 
z"/>
<path fill="#F8E483" opacity="1.000000" stroke="none" 
	d="
M565.833374,709.953308 
	C561.873535,710.302185 557.913757,710.954407 553.953796,710.955994 
	C422.325867,711.009094 290.697937,711.013855 159.070068,710.922363 
	C155.682510,710.919983 152.295776,709.763184 148.537872,709.070068 
	C148.110962,688.356750 147.047607,667.657959 148.274384,647.095825 
	C149.571152,625.361023 163.015808,608.026001 185.524109,602.071960 
	C188.630646,601.250305 191.975555,601.039551 195.210571,601.036560 
	C259.801392,600.976440 324.392242,600.988647 389.917511,600.974121 
	C432.427216,600.973328 474.002533,600.975830 515.577820,601.017517 
	C518.055908,601.020020 520.553589,601.191833 523.008484,601.529663 
	C538.685486,603.687317 550.193420,612.288635 559.153564,625.320007 
	C561.522034,634.092957 565.266663,642.469910 565.667297,651.003845 
	C566.587952,670.613037 565.880188,690.298706 565.833374,709.953308 
z"/>
<path fill="#F5D653" opacity="1.000000" stroke="none" 
	d="
M148.089828,927.458435 
	C287.074677,926.988220 425.983032,926.981506 565.400513,927.384827 
	C565.953430,929.201172 565.997375,930.607422 566.025146,932.480835 
	C566.011658,958.633179 566.014221,984.318420 565.997070,1010.471619 
	C565.920227,1018.614197 565.862976,1026.288818 565.349304,1033.971436 
	C430.716003,1033.986328 296.539124,1034.013672 162.362320,1033.915527 
	C157.629944,1033.912109 152.898483,1032.663696 148.166595,1031.995605 
	C148.115524,997.304382 148.064438,962.613159 148.089828,927.458435 
z"/>
<path fill="#F4D76B" opacity="1.000000" stroke="none" 
	d="
M390.087799,412.454498 
	C529.000549,411.988464 667.834839,411.985962 807.212646,412.408508 
	C807.846924,414.888336 807.937683,416.943085 807.979065,419.464722 
	C807.903809,434.863617 807.904236,449.795685 807.845276,464.727539 
	C807.776550,482.143005 807.655884,499.558289 807.116821,516.978516 
	C667.839600,516.986450 529.003296,516.989441 390.167023,516.992432 
	C390.114471,482.300964 390.061920,447.609467 390.087799,412.454498 
z"/>
<path fill="#F1CE5C" opacity="1.000000" stroke="none" 
	d="
M390.089478,517.455933 
	C529.003296,516.989441 667.839600,516.986450 807.219116,517.437744 
	C807.845825,522.928284 807.929321,527.964355 807.971191,533.467651 
	C807.911377,542.391907 807.908203,550.848999 807.872192,559.305969 
	C807.781738,580.526550 807.676392,601.747070 807.134949,622.973999 
	C726.583435,622.986877 646.474060,622.975769 566.364746,623.083801 
	C563.912659,623.087097 561.462280,624.330200 559.011108,624.995239 
	C550.193420,612.288635 538.685486,603.687317 523.008484,601.529663 
	C520.553589,601.191833 518.055908,601.020020 515.577820,601.017517 
	C474.002533,600.975830 432.427216,600.973328 390.379242,600.940674 
	C389.941681,573.252625 389.976776,545.585999 390.089478,517.455933 
z"/>
<path fill="#F4D243" opacity="1.000000" stroke="none" 
	d="
M148.090668,1032.459106 
	C152.898483,1032.663696 157.629944,1033.912109 162.362320,1033.915527 
	C296.539124,1034.013672 430.716003,1033.986328 565.406128,1034.441162 
	C565.957092,1051.604370 565.994812,1068.305786 566.013367,1085.475098 
	C565.926575,1098.952026 565.858887,1111.961060 565.791138,1124.970093 
	C426.888184,1124.979858 287.985168,1124.989624 148.624100,1124.998291 
	C148.115601,1094.305664 148.065170,1063.614136 148.090668,1032.459106 
z"/>
<path fill="#D89A0E" opacity="1.000000" stroke="none" 
	d="
M804.174622,332.006134 
	C798.484009,316.973419 787.381531,307.664856 772.336975,302.006470 
	C773.413086,301.210419 774.776367,300.140228 776.188416,300.071533 
	C795.839661,299.115906 815.520996,299.935150 834.593384,304.507568 
	C844.369690,306.851349 853.275940,312.801941 862.603149,317.061646 
	C864.341370,317.855499 866.210815,318.914734 868.021179,318.917694 
	C927.276306,319.014771 986.531799,319.044678 1045.786255,318.829773 
	C1048.225952,318.820923 1050.656616,316.355835 1053.462646,315.012512 
	C1053.879028,348.015839 1053.924316,381.041748 1053.443848,414.532776 
	C997.118896,414.998596 941.319763,414.970032 885.520813,415.052826 
	C880.830261,415.059784 877.691772,414.211121 877.908081,408.565308 
	C878.046143,404.959442 875.754700,403.421448 872.243347,402.894104 
	C870.521057,402.635437 867.670532,401.281342 867.577271,400.224823 
	C867.087952,394.678345 863.142883,392.456238 859.178223,389.983307 
	C858.290283,389.429443 857.575623,388.349854 857.141785,387.355072 
	C853.278809,378.496490 849.510986,369.596466 845.664612,360.730560 
	C845.347961,360.000610 844.716003,359.374847 844.134399,358.797546 
	C838.772217,353.474701 833.105591,348.426300 828.082581,342.802307 
	C821.614441,335.560486 813.208923,333.236450 804.174622,332.006134 
z"/>
<path fill="#B96203" opacity="1.000000" stroke="none" 
	d="
M1053.833740,999.996033 
	C1053.874390,1031.684814 1053.915039,1063.373657 1053.478271,1095.523438 
	C1049.212158,1095.656372 1045.423828,1095.047119 1041.634644,1095.042480 
	C989.923828,1094.979370 938.213013,1094.985718 886.502197,1095.032715 
	C883.132751,1095.035767 880.374390,1095.000488 879.432739,1090.695312 
	C879.114990,1089.242432 876.546326,1087.175415 875.128113,1087.267456 
	C869.849854,1087.609375 867.641174,1084.266602 865.808655,1080.464966 
	C863.966492,1076.643433 861.061096,1074.622314 856.998901,1073.548828 
	C856.932251,1068.346680 857.688782,1063.563110 853.905823,1059.472412 
	C851.813416,1057.209961 850.518982,1054.163208 849.088684,1051.355835 
	C848.444153,1050.090698 848.312012,1048.554199 848.010071,1047.127563 
	C847.670410,1045.522705 847.972961,1043.264893 847.004822,1042.398071 
	C842.321228,1038.204346 843.350769,1031.970825 841.239502,1026.711914 
	C841.575867,1024.964233 842.319885,1023.034546 841.659546,1022.129150 
	C839.200500,1018.757568 839.439758,1015.483215 840.930115,1011.945557 
	C841.872314,1009.708984 842.962891,1007.471741 843.444153,1005.123535 
	C843.849976,1003.143066 843.483276,1001.002075 843.440552,998.932495 
	C843.400513,996.995728 842.563904,994.528870 843.450500,993.237793 
	C845.096375,990.840820 847.794617,989.185303 849.956787,987.118591 
	C852.197876,984.976440 854.631531,982.912109 856.278870,980.360474 
	C856.685486,979.730835 853.955566,977.466858 853.435608,975.724854 
	C853.019531,974.331116 853.768311,972.589600 854.342651,971.092529 
	C855.484863,972.382446 856.655212,973.481140 857.015320,974.800964 
	C858.124817,978.867065 860.949707,981.858459 862.895569,985.278564 
	C866.484070,991.585938 870.245789,995.554138 877.469055,997.852539 
	C881.651917,999.183594 885.487549,1001.038696 890.058533,1001.033936 
	C941.860413,1000.980347 993.662292,1001.015503 1045.464233,1000.957153 
	C1048.254395,1000.954041 1051.043945,1000.330688 1053.833740,999.996033 
z"/>
<path fill="#B45901" opacity="1.000000" stroke="none" 
	d="
M856.998169,1074.004883 
	C861.061096,1074.622314 863.966492,1076.643433 865.808655,1080.464966 
	C867.641174,1084.266602 869.849854,1087.609375 875.128113,1087.267456 
	C876.546326,1087.175415 879.114990,1089.242432 879.432739,1090.695312 
	C880.374390,1095.000488 883.132751,1095.035767 886.502197,1095.032715 
	C938.213013,1094.985718 989.923828,1094.979370 1041.634644,1095.042480 
	C1045.423828,1095.047119 1049.212158,1095.656372 1053.417236,1095.988037 
	C1053.886719,1115.396729 1054.338623,1134.812134 1053.846069,1154.203369 
	C1053.542969,1166.137817 1048.540039,1176.676147 1040.692871,1185.726440 
	C1039.752930,1186.810425 1038.376831,1187.516113 1037.018677,1188.693604 
	C985.505188,1188.993530 934.175842,1188.975952 882.846619,1189.045532 
	C879.317627,1189.050293 876.520874,1188.465210 874.073853,1185.505859 
	C872.133850,1183.159790 868.805969,1181.945435 866.925903,1179.570312 
	C865.317627,1177.538452 864.894836,1174.570190 863.938721,1172.019409 
	C863.476196,1170.785522 863.356140,1169.001221 862.461182,1168.418579 
	C855.812805,1164.091064 856.124512,1157.027832 854.877380,1150.481323 
	C854.499695,1148.498657 853.370483,1145.352295 852.079163,1145.072144 
	C845.734558,1143.695068 847.098694,1139.040649 847.158447,1134.114380 
	C847.445007,1130.549805 847.582153,1127.765625 847.699158,1124.980469 
	C847.877075,1120.744019 847.634399,1116.426636 848.446228,1112.316650 
	C848.706299,1111.000122 851.848572,1110.376953 853.469360,1109.165283 
	C854.716675,1108.232544 855.646423,1106.874878 856.717407,1105.706177 
	C855.537415,1104.683960 854.505432,1103.330811 853.141174,1102.720825 
	C851.314331,1101.904175 849.230225,1101.662842 847.256592,1101.174438 
	C848.410461,1099.313843 849.701965,1098.494385 851.112427,1098.077148 
	C853.939392,1097.240845 859.654785,1085.867798 858.414978,1083.245361 
	C858.209045,1082.809814 857.883972,1082.308594 857.479736,1082.106934 
	C852.587585,1079.666992 854.351990,1076.869263 856.998169,1074.004883 
z"/>
<path fill="#BD6804" opacity="1.000000" stroke="none" 
	d="
M1053.896240,999.531250 
	C1051.043945,1000.330688 1048.254395,1000.954041 1045.464233,1000.957153 
	C993.662292,1001.015503 941.860413,1000.980347 890.058533,1001.033936 
	C885.487549,1001.038696 881.651917,999.183594 877.469055,997.852539 
	C870.245789,995.554138 866.484070,991.585938 862.895569,985.278564 
	C860.949707,981.858459 858.124817,978.867065 857.015320,974.800964 
	C856.655212,973.481140 855.484863,972.382446 854.342590,970.647644 
	C854.341125,964.800415 854.062622,959.931091 848.585693,956.736694 
	C847.126465,955.885620 846.731445,953.075806 846.019104,951.103455 
	C843.922852,945.298889 847.298035,937.793701 840.506592,933.400330 
	C840.111206,933.144470 840.146423,932.171814 840.043884,931.522827 
	C839.327271,926.986145 840.030884,921.390442 837.595337,918.153992 
	C833.870483,913.204224 831.447449,907.692322 828.160034,902.624878 
	C825.698425,898.830566 822.534058,895.467041 819.497192,892.077942 
	C816.208252,888.407654 815.535034,881.331116 807.974854,882.530579 
	C807.833252,868.355713 807.729126,854.648254 807.691895,840.481018 
	C807.850830,822.681885 807.942810,805.342529 808.483032,788.003052 
	C812.376587,788.672241 817.290527,788.182434 818.938416,790.270447 
	C821.713989,793.787109 823.250793,798.847168 823.759155,803.429993 
	C824.277893,808.106018 826.656311,810.527283 830.048096,812.853943 
	C831.224731,813.661072 832.726990,814.924316 832.887024,816.136719 
	C834.286316,826.736572 840.579773,836.348450 839.207825,847.515930 
	C839.084717,848.518127 840.116699,849.620422 840.439697,850.726685 
	C841.664978,854.923645 843.202026,859.080627 843.883667,863.369934 
	C844.467468,867.043823 844.761414,870.264832 848.023804,873.010071 
	C849.832886,874.532471 850.361938,877.871277 850.924438,880.507324 
	C851.681091,884.052612 850.827820,888.402527 852.597046,891.174194 
	C856.231812,896.868469 857.303894,902.927917 858.282776,909.297241 
	C858.529480,910.902527 860.736389,913.047729 862.389404,913.425049 
	C866.117981,914.276123 867.191467,916.167358 867.074341,919.727173 
	C866.943115,923.719971 869.240051,925.715820 873.237305,926.044189 
	C875.008301,926.189758 876.744019,926.847961 878.478516,927.334839 
	C881.555176,928.198486 884.616394,929.876038 887.688171,929.885681 
	C938.853149,930.046021 990.018860,930.046997 1041.183960,929.913330 
	C1045.402344,929.902283 1049.617432,928.664856 1053.834106,927.997314 
	C1053.875610,951.687073 1053.917236,975.376770 1053.896240,999.531250 
z"/>
<path fill="#D3900C" opacity="1.000000" stroke="none" 
	d="
M808.028503,418.997833 
	C807.937683,416.943085 807.846924,414.888336 807.653076,412.404358 
	C807.614807,390.646027 807.679504,369.316864 808.112976,347.522583 
	C813.386963,348.588715 818.315063,350.052887 823.178894,351.705872 
	C824.196045,352.051544 825.165344,352.950867 825.836304,353.837555 
	C831.845642,361.778870 836.279785,370.599365 839.104248,380.089844 
	C840.590515,385.084106 840.202942,390.603119 844.219543,394.808014 
	C845.061340,395.689240 844.687927,397.672302 845.011597,399.116882 
	C847.047791,408.203583 849.070801,417.293945 851.215027,426.355408 
	C851.898071,429.241791 852.633484,432.191193 853.915466,434.835114 
	C854.839478,436.740936 856.747864,438.156067 858.144592,439.849976 
	C859.472595,441.460571 861.782043,443.138000 861.798950,444.804932 
	C861.880737,452.865448 868.036926,456.224701 873.388794,459.616180 
	C876.135376,461.356720 877.720947,462.764740 877.988953,465.824188 
	C878.702515,473.970642 878.741760,473.999359 886.962097,473.999390 
	C942.585999,473.999512 998.209961,473.997833 1053.833862,473.996765 
	C1053.878662,493.686768 1053.923340,513.376770 1053.484863,533.526489 
	C1049.206909,533.657471 1045.412720,533.047058 1041.617798,533.042480 
	C989.661560,532.979370 937.705383,533.003113 885.749146,532.996399 
	C878.827637,532.995483 878.216858,532.473877 878.022949,525.794006 
	C877.899780,521.549744 876.679626,518.873779 871.664246,518.878296 
	C867.675415,518.881897 864.835815,516.678284 863.860657,512.474243 
	C863.571106,511.226044 863.038086,509.443939 862.112488,509.027832 
	C855.284912,505.958374 855.159058,498.368378 852.980530,493.125854 
	C850.827820,487.945374 848.223022,484.742950 844.001953,481.667450 
	C844.001282,480.888672 844.001038,480.443665 844.232788,479.729340 
	C846.029541,475.710388 843.635620,473.799652 840.996826,471.603577 
	C838.922852,463.561615 836.537903,456.180573 829.602539,451.191315 
	C828.185059,450.171631 827.767273,447.691589 827.015991,445.833252 
	C825.869202,442.996735 824.999817,440.037201 823.702271,437.275665 
	C822.471375,434.655853 820.411926,432.374908 819.462402,429.682068 
	C815.711243,419.044098 815.819885,419.005798 808.028503,418.997833 
z"/>
<path fill="#C06E05" opacity="1.000000" stroke="none" 
	d="
M1053.897949,927.532654 
	C1049.617432,928.664856 1045.402344,929.902283 1041.183960,929.913330 
	C990.018860,930.046997 938.853149,930.046021 887.688171,929.885681 
	C884.616394,929.876038 881.555176,928.198486 878.478516,927.334839 
	C876.744019,926.847961 875.008301,926.189758 873.237305,926.044189 
	C869.240051,925.715820 866.943115,923.719971 867.074341,919.727173 
	C867.191467,916.167358 866.117981,914.276123 862.389404,913.425049 
	C860.736389,913.047729 858.529480,910.902527 858.282776,909.297241 
	C857.303894,902.927917 856.231812,896.868469 852.597046,891.174194 
	C850.827820,888.402527 851.681091,884.052612 850.924438,880.507324 
	C850.361938,877.871277 849.832886,874.532471 848.023804,873.010071 
	C844.761414,870.264832 844.467468,867.043823 843.883667,863.369934 
	C843.202026,859.080627 841.664978,854.923645 840.439697,850.726685 
	C840.116699,849.620422 839.084717,848.518127 839.207825,847.515930 
	C840.579773,836.348450 834.286316,826.736572 832.887024,816.136719 
	C832.726990,814.924316 831.224731,813.661072 830.048096,812.853943 
	C826.656311,810.527283 824.277893,808.106018 823.759155,803.429993 
	C823.250793,798.847168 821.713989,793.787109 818.938416,790.270447 
	C817.290527,788.182434 812.376587,788.672241 808.440796,787.670593 
	C807.964478,786.892090 807.978394,786.446045 808.451660,786.000000 
	C812.042114,785.897583 815.211914,786.068726 818.296143,785.633423 
	C824.003601,784.827759 826.581726,786.407043 826.912842,791.972900 
	C827.097900,795.083679 827.897522,796.631775 831.295227,797.282715 
	C833.335693,797.673584 836.626160,800.062012 836.566956,801.432312 
	C836.293457,807.761963 841.162720,808.214417 845.241699,810.266113 
	C846.280762,811.543396 847.489380,812.441711 847.803467,813.585510 
	C849.060608,818.165222 849.940063,822.848328 851.184570,827.432007 
	C851.548096,828.771240 852.376343,830.488831 853.481140,831.025940 
	C856.592346,832.538452 856.485718,835.128784 857.208862,837.928040 
	C858.278931,842.070435 859.630615,847.435364 862.714661,849.464233 
	C867.563049,852.653625 869.899536,856.393188 871.036255,861.606018 
	C871.285889,862.751038 871.948242,864.502625 872.753723,864.715820 
	C877.654053,866.012756 882.647339,867.843140 887.615906,867.862549 
	C943.021606,868.079102 998.428528,867.997192 1053.835083,867.995789 
	C1053.877319,887.686523 1053.919556,907.377258 1053.897949,927.532654 
z"/>
<path fill="#CC8409" opacity="1.000000" stroke="none" 
	d="
M1053.837402,612.996155 
	C1053.880005,635.352478 1053.922607,657.708801 1053.528809,680.457275 
	C1049.870361,680.232971 1046.649780,679.089172 1043.425903,679.079834 
	C1001.760559,678.959106 960.094666,679.000061 918.428955,678.999939 
	C907.595886,678.999939 896.761780,679.069275 885.930725,678.921997 
	C884.344238,678.900452 881.923401,678.289612 881.348511,677.188965 
	C879.461243,673.576050 878.508972,669.477966 876.654541,665.843323 
	C875.823059,664.213379 873.890137,662.599121 872.133362,662.086060 
	C865.978210,660.288330 863.905823,658.019958 862.876160,651.633972 
	C862.620117,650.046021 861.495850,647.970581 860.173767,647.305176 
	C856.825317,645.619873 855.292603,643.145630 854.588318,639.608887 
	C854.261230,637.965942 852.895142,636.529846 852.000000,634.548584 
	C851.529785,630.526611 851.263672,626.912842 850.520020,623.400085 
	C849.994324,620.917114 848.506042,618.633362 848.016541,616.148621 
	C847.379395,612.914124 847.605286,609.500122 846.873901,606.297180 
	C846.454468,604.460571 845.164429,601.769043 843.763306,601.406433 
	C839.455017,600.291687 839.072266,597.560608 838.913452,593.918457 
	C838.727051,589.644287 839.295166,584.308289 837.023743,581.384399 
	C833.196167,576.457336 832.807434,571.516418 833.386230,566.002563 
	C835.596375,567.178955 838.087524,567.948792 839.101196,569.616638 
	C840.840881,572.479004 842.544312,574.779724 845.575256,576.647522 
	C848.599548,578.511230 852.668945,580.218140 852.387878,585.444153 
	C852.312073,586.854370 855.264771,589.586975 856.969055,589.707397 
	C861.380066,590.019226 862.115784,592.191956 862.076843,595.902710 
	C862.034607,599.927856 864.446228,601.908203 868.426208,601.987671 
	C869.759094,602.014282 871.099548,602.086060 872.424622,601.983459 
	C875.423523,601.751160 876.876465,602.642212 877.118042,606.071960 
	C877.567993,612.460449 878.431580,612.995850 884.841248,612.996399 
	C941.173279,613.000793 997.505371,612.997314 1053.837402,612.996155 
z"/>
<path fill="#C37306" opacity="1.000000" stroke="none" 
	d="
M1053.899170,867.531250 
	C998.428528,867.997192 943.021606,868.079102 887.615906,867.862549 
	C882.647339,867.843140 877.654053,866.012756 872.753723,864.715820 
	C871.948242,864.502625 871.285889,862.751038 871.036255,861.606018 
	C869.899536,856.393188 867.563049,852.653625 862.714661,849.464233 
	C859.630615,847.435364 858.278931,842.070435 857.208862,837.928040 
	C856.485718,835.128784 856.592346,832.538452 853.481140,831.025940 
	C852.376343,830.488831 851.548096,828.771240 851.184570,827.432007 
	C849.940063,822.848328 849.060608,818.165222 847.803467,813.585510 
	C847.489380,812.441711 846.280762,811.543396 845.338806,809.925476 
	C848.087219,804.388550 851.181274,799.557922 853.707825,794.446655 
	C854.228516,793.393433 852.821655,791.182495 851.949646,789.715454 
	C851.340332,788.690430 850.128418,788.023621 849.465637,787.442383 
	C850.441284,784.979919 851.191589,783.018433 851.993713,781.078308 
	C852.973083,778.709473 853.995972,776.358643 855.355225,774.099609 
	C856.480591,776.250671 857.003235,778.445618 858.087219,780.315002 
	C859.275513,782.364258 860.658386,785.206604 862.531067,785.760498 
	C866.192444,786.843445 867.751831,788.580566 868.123169,792.270691 
	C868.304077,794.068359 869.285217,796.862732 870.546570,797.284363 
	C875.494019,798.938293 880.692688,800.822876 885.806274,800.846619 
	C939.361816,801.095093 992.918884,801.013184 1046.475586,800.957336 
	C1048.929077,800.954773 1051.381958,800.331360 1053.835205,799.997070 
	C1053.877930,822.353638 1053.920654,844.710144 1053.899170,867.531250 
z"/>
<path fill="#D08B0B" opacity="1.000000" stroke="none" 
	d="
M844.002441,482.001221 
	C848.223022,484.742950 850.827820,487.945374 852.980530,493.125854 
	C855.159058,498.368378 855.284912,505.958374 862.112488,509.027832 
	C863.038086,509.443939 863.571106,511.226044 863.860657,512.474243 
	C864.835815,516.678284 867.675415,518.881897 871.664246,518.878296 
	C876.679626,518.873779 877.899780,521.549744 878.022949,525.794006 
	C878.216858,532.473877 878.827637,532.995483 885.749146,532.996399 
	C937.705383,533.003113 989.661560,532.979370 1041.617798,533.042480 
	C1045.412720,533.047058 1049.206909,533.657471 1053.418091,533.990601 
	C1053.878662,555.686584 1053.922607,577.378235 1053.441528,599.534546 
	C997.802673,599.999512 942.688904,599.999878 887.575073,599.999268 
	C886.076538,599.999207 884.332458,600.470947 883.139832,599.864014 
	C881.543579,599.051453 879.622986,597.617981 879.171265,596.064514 
	C878.070435,592.278748 877.529419,588.289734 877.157776,584.345398 
	C876.863953,581.226196 875.480530,580.214783 872.438477,579.880493 
	C866.783936,579.259277 865.087769,576.549316 865.472351,570.764404 
	C865.566101,569.354431 864.709045,567.702393 863.868591,566.442139 
	C861.123169,562.325562 856.431091,558.623840 855.716797,554.236877 
	C854.555481,547.104492 853.218262,540.296082 849.865967,533.896179 
	C849.503662,533.204407 849.518616,532.289978 849.453491,531.471313 
	C848.583130,520.526855 847.747131,509.579681 846.834167,498.638885 
	C846.770325,497.874451 846.333252,496.989929 845.788147,496.440796 
	C841.444763,492.065521 842.683289,487.047485 844.002441,482.001221 
z"/>
<path fill="#C67907" opacity="1.000000" stroke="none" 
	d="
M1053.899902,799.532593 
	C1051.381958,800.331360 1048.929077,800.954773 1046.475586,800.957336 
	C992.918884,801.013184 939.361816,801.095093 885.806274,800.846619 
	C880.692688,800.822876 875.494019,798.938293 870.546570,797.284363 
	C869.285217,796.862732 868.304077,794.068359 868.123169,792.270691 
	C867.751831,788.580566 866.192444,786.843445 862.531067,785.760498 
	C860.658386,785.206604 859.275513,782.364258 858.087219,780.315002 
	C857.003235,778.445618 856.480591,776.250671 855.352539,773.709961 
	C854.782471,772.085938 854.950317,770.619141 854.296265,769.870667 
	C850.247314,765.237488 849.891296,759.757446 849.773376,753.982605 
	C849.733032,752.007874 847.900146,750.032227 846.767212,748.127747 
	C845.576050,746.125183 843.641174,744.359863 843.097961,742.220154 
	C842.007690,737.925415 842.941528,732.568848 840.690430,729.238831 
	C836.832886,723.532410 836.713989,717.500366 835.932617,711.318604 
	C835.715759,709.602722 835.267944,707.115173 834.100708,706.466064 
	C830.119568,704.252319 830.159668,700.857178 829.906555,697.075745 
	C829.529663,691.446350 830.003052,685.046997 823.265015,682.384277 
	C819.838318,681.030029 818.788696,678.843689 818.968994,675.468140 
	C819.168640,671.731873 817.249939,669.930237 813.516235,670.000854 
	C811.684937,670.035461 809.852234,670.002258 807.975464,669.547363 
	C807.952576,666.063293 807.974426,663.031677 808.430847,660.000000 
	C810.194824,660.003357 811.527527,659.947021 812.852783,660.022278 
	C815.839722,660.191772 817.785278,660.904541 817.385376,664.822571 
	C816.953247,669.055969 820.626465,671.677673 825.159729,671.903137 
	C826.775208,671.983521 829.634949,673.644104 829.658386,674.637085 
	C829.773499,679.504578 831.565979,682.508362 836.467651,683.597412 
	C837.102417,683.738403 837.471375,685.141724 837.934937,685.976196 
	C839.413513,688.637329 841.508118,691.149902 842.216248,694.004761 
	C843.642334,699.753601 846.408691,704.430420 850.767700,708.334229 
	C851.213440,708.733398 850.659302,710.120972 851.060608,710.721741 
	C852.298279,712.575012 853.741516,714.296265 855.166321,716.017944 
	C856.737305,717.916260 859.165405,719.532104 859.781860,721.683167 
	C860.519592,724.257019 861.426636,725.205750 863.923889,726.291138 
	C866.387756,727.362000 869.398804,730.244812 869.673645,732.621399 
	C870.194092,737.121216 871.962769,738.450256 876.312500,738.177856 
	C879.733643,739.238770 882.837769,740.878784 885.946350,740.887329 
	C941.908630,741.040894 997.871399,740.997437 1053.834106,740.996094 
	C1053.877686,760.353394 1053.921265,779.710754 1053.899902,799.532593 
z"/>
<path fill="#D6950D" opacity="1.000000" stroke="none" 
	d="
M1053.901367,473.532593 
	C998.209961,473.997833 942.585999,473.999512 886.962097,473.999390 
	C878.741760,473.999359 878.702515,473.970642 877.988953,465.824188 
	C877.720947,462.764740 876.135376,461.356720 873.388794,459.616180 
	C868.036926,456.224701 861.880737,452.865448 861.798950,444.804932 
	C861.782043,443.138000 859.472595,441.460571 858.144592,439.849976 
	C856.747864,438.156067 854.839478,436.740936 853.915466,434.835114 
	C852.633484,432.191193 851.898071,429.241791 851.215027,426.355408 
	C849.070801,417.293945 847.047791,408.203583 845.011597,399.116882 
	C844.687927,397.672302 845.061340,395.689240 844.219543,394.808014 
	C840.202942,390.603119 840.590515,385.084106 839.104248,380.089844 
	C836.279785,370.599365 831.845642,361.778870 825.836304,353.837555 
	C825.165344,352.950867 824.196045,352.051544 823.178894,351.705872 
	C818.315063,350.052887 813.386963,348.588715 808.068176,347.060425 
	C806.557007,342.285553 805.459473,337.507629 804.268311,332.367920 
	C813.208923,333.236450 821.614441,335.560486 828.082581,342.802307 
	C833.105591,348.426300 838.772217,353.474701 844.134399,358.797546 
	C844.716003,359.374847 845.347961,360.000610 845.664612,360.730560 
	C849.510986,369.596466 853.278809,378.496490 857.141785,387.355072 
	C857.575623,388.349854 858.290283,389.429443 859.178223,389.983307 
	C863.142883,392.456238 867.087952,394.678345 867.577271,400.224823 
	C867.670532,401.281342 870.521057,402.635437 872.243347,402.894104 
	C875.754700,403.421448 878.046143,404.959442 877.908081,408.565308 
	C877.691772,414.211121 880.830261,415.059784 885.520813,415.052826 
	C941.319763,414.970032 997.118896,414.998596 1053.375977,414.996765 
	C1053.878906,434.353210 1053.923950,453.710846 1053.901367,473.532593 
z"/>
<path fill="#C97E08" opacity="1.000000" stroke="none" 
	d="
M1053.899414,740.531738 
	C997.871399,740.997437 941.908630,741.040894 885.946350,740.887329 
	C882.837769,740.878784 879.733643,739.238770 876.312744,737.730347 
	C876.093445,732.687073 877.077698,728.142883 870.303467,727.130066 
	C868.583252,726.872803 867.050720,723.003296 866.132935,720.533142 
	C865.479919,718.775635 865.922058,716.577759 866.016968,714.583191 
	C866.187500,711.000305 865.960571,708.427917 861.226013,707.457458 
	C859.101501,707.021851 857.058716,703.080200 856.227844,700.349487 
	C855.457886,697.818909 856.567078,694.772827 856.448425,691.970703 
	C856.348206,689.603210 855.791931,687.231079 855.222290,684.913940 
	C854.612732,682.434448 853.429443,680.062744 853.073120,677.561829 
	C852.492432,673.486450 853.709412,668.539612 851.803833,665.391479 
	C847.308960,657.965698 849.580261,651.562500 852.551086,644.517029 
	C849.247986,641.710388 847.283997,638.531433 852.000000,635.000000 
	C852.895142,636.529846 854.261230,637.965942 854.588318,639.608887 
	C855.292603,643.145630 856.825317,645.619873 860.173767,647.305176 
	C861.495850,647.970581 862.620117,650.046021 862.876160,651.633972 
	C863.905823,658.019958 865.978210,660.288330 872.133362,662.086060 
	C873.890137,662.599121 875.823059,664.213379 876.654541,665.843323 
	C878.508972,669.477966 879.461243,673.576050 881.348511,677.188965 
	C881.923401,678.289612 884.344238,678.900452 885.930725,678.921997 
	C896.761780,679.069275 907.595886,678.999939 918.428955,678.999939 
	C960.094666,679.000061 1001.760559,678.959106 1043.425903,679.079834 
	C1046.649780,679.089172 1049.870361,680.232971 1053.463135,680.921448 
	C1053.877563,700.684753 1053.921265,720.376038 1053.899414,740.531738 
z"/>
<path fill="#CB8B0B" opacity="1.000000" stroke="none" 
	d="
M844.001953,481.667450 
	C842.683289,487.047485 841.444763,492.065521 845.788147,496.440796 
	C846.333252,496.989929 846.770325,497.874451 846.834167,498.638885 
	C847.747131,509.579681 848.583130,520.526855 849.453491,531.471313 
	C849.518616,532.289978 849.503662,533.204407 849.865967,533.896179 
	C853.218262,540.296082 854.555481,547.104492 855.716797,554.236877 
	C856.431091,558.623840 861.123169,562.325562 863.868591,566.442139 
	C864.709045,567.702393 865.566101,569.354431 865.472351,570.764404 
	C865.087769,576.549316 866.783936,579.259277 872.438477,579.880493 
	C875.480530,580.214783 876.863953,581.226196 877.157776,584.345398 
	C877.529419,588.289734 878.070435,592.278748 879.171265,596.064514 
	C879.622986,597.617981 881.543579,599.051453 883.139832,599.864014 
	C884.332458,600.470947 886.076538,599.999207 887.575073,599.999268 
	C942.688904,599.999878 997.802673,599.999512 1053.374268,599.998779 
	C1053.878540,604.025146 1053.925049,608.051880 1053.904541,612.537415 
	C997.505371,612.997314 941.173279,613.000793 884.841248,612.996399 
	C878.431580,612.995850 877.567993,612.460449 877.118042,606.071960 
	C876.876465,602.642212 875.423523,601.751160 872.424622,601.983459 
	C871.099548,602.086060 869.759094,602.014282 868.426208,601.987671 
	C864.446228,601.908203 862.034607,599.927856 862.076843,595.902710 
	C862.115784,592.191956 861.380066,590.019226 856.969055,589.707397 
	C855.264771,589.586975 852.312073,586.854370 852.387878,585.444153 
	C852.668945,580.218140 848.599548,578.511230 845.575256,576.647522 
	C842.544312,574.779724 840.840881,572.479004 839.101196,569.616638 
	C838.087524,567.948792 835.596375,567.178955 833.122192,565.753662 
	C830.341370,560.031067 827.310364,554.725708 826.262756,549.054016 
	C824.098328,537.336365 819.753113,532.998657 808.012817,533.000488 
	C807.929321,527.964355 807.845825,522.928284 807.660034,517.432861 
	C807.655884,499.558289 807.776550,482.143005 807.845276,464.727539 
	C807.904236,449.795685 807.903809,434.863617 807.979065,419.464722 
	C815.819885,419.005798 815.711243,419.044098 819.462402,429.682068 
	C820.411926,432.374908 822.471375,434.655853 823.702271,437.275665 
	C824.999817,440.037201 825.869202,442.996735 827.015991,445.833252 
	C827.767273,447.691589 828.185059,450.171631 829.602539,451.191315 
	C836.537903,456.180573 838.922852,463.561615 840.775452,471.843811 
	C841.705078,474.987305 842.852905,477.492981 844.000732,479.998657 
	C844.001038,480.443665 844.001282,480.888672 844.001953,481.667450 
z"/>
<path fill="#E09F0B" opacity="1.000000" stroke="none" 
	d="
M565.847778,1125.438843 
	C565.858887,1111.961060 565.926575,1098.952026 566.478638,1085.472900 
	C647.190613,1084.993042 727.418213,1084.983154 807.716309,1085.427612 
	C807.859253,1089.254639 807.931641,1092.627319 808.004089,1096.000000 
	C807.940369,1113.686157 807.876709,1131.372192 807.733093,1149.520996 
	C727.424072,1149.989990 647.194946,1149.996338 566.500916,1150.004883 
	C565.992126,1141.973877 565.948242,1133.940674 565.847778,1125.438843 
z"/>
<path fill="#B15B02" opacity="1.000000" stroke="none" 
	d="
M808.446655,1096.000000 
	C807.931641,1092.627319 807.859253,1089.254639 807.795410,1084.965942 
	C807.755066,1059.353882 807.706055,1034.657715 807.721741,1009.501099 
	C807.853455,1003.693176 807.920532,998.345764 808.437256,992.999023 
	C810.715759,993.009338 812.553894,992.903137 814.371826,993.048889 
	C821.941406,993.655762 824.349670,995.824829 826.121826,1003.132874 
	C826.415710,1004.344604 827.283569,1005.462036 828.044434,1006.507996 
	C831.269897,1010.941956 832.655212,1016.668518 837.739746,1019.861328 
	C838.664612,1020.442078 838.475403,1022.642090 839.046265,1023.990479 
	C839.505554,1025.075317 840.336426,1026.002686 841.002441,1027.000000 
	C843.350769,1031.970825 842.321228,1038.204346 847.004822,1042.398071 
	C847.972961,1043.264893 847.670410,1045.522705 848.010071,1047.127563 
	C848.312012,1048.554199 848.444153,1050.090698 849.088684,1051.355835 
	C850.518982,1054.163208 851.813416,1057.209961 853.905823,1059.472412 
	C857.688782,1063.563110 856.932251,1068.346680 856.998901,1073.548828 
	C854.351990,1076.869263 852.587585,1079.666992 857.479736,1082.106934 
	C857.883972,1082.308594 858.209045,1082.809814 858.414978,1083.245361 
	C859.654785,1085.867798 853.939392,1097.240845 851.112427,1098.077148 
	C849.701965,1098.494385 848.410461,1099.313843 847.256592,1101.174438 
	C849.230225,1101.662842 851.314331,1101.904175 853.141174,1102.720825 
	C854.505432,1103.330811 855.537415,1104.683960 856.717407,1105.706177 
	C855.646423,1106.874878 854.716675,1108.232544 853.469360,1109.165283 
	C851.848572,1110.376953 848.706299,1111.000122 848.446228,1112.316650 
	C847.634399,1116.426636 847.877075,1120.744019 847.699158,1124.980469 
	C847.582153,1127.765625 847.445007,1130.549805 847.158447,1133.667236 
	C845.665771,1131.982910 844.276978,1129.999146 843.013977,1127.938354 
	C841.950867,1126.203979 841.455750,1123.470093 839.966858,1122.779663 
	C836.564758,1121.202271 835.750488,1118.797119 836.021240,1115.586914 
	C836.306213,1112.208008 834.953064,1110.129883 831.975037,1108.362183 
	C828.039185,1106.026123 823.990112,1103.484375 820.937744,1100.160522 
	C817.433167,1096.344238 813.528992,1095.568970 808.446655,1096.000000 
z"/>
<path fill="#EEC54C" opacity="1.000000" stroke="none" 
	d="
M807.996216,660.000000 
	C807.974426,663.031677 807.952576,666.063293 807.932678,670.014526 
	C807.825928,692.611084 807.717285,714.288025 807.164490,735.972168 
	C726.491821,735.991516 646.263306,736.003601 566.034668,736.015747 
	C565.998840,727.642761 565.963074,719.269714 565.880249,710.425049 
	C565.880188,690.298706 566.587952,670.613037 565.667297,651.003845 
	C565.266663,642.469910 561.522034,634.092957 559.153564,625.320007 
	C561.462280,624.330200 563.912659,623.087097 566.364746,623.083801 
	C646.474060,622.975769 726.583435,622.986877 807.237793,623.435669 
	C807.853943,635.927307 807.925110,647.963684 807.996216,660.000000 
z"/>
<path fill="#EABB3C" opacity="1.000000" stroke="none" 
	d="
M566.022034,736.482788 
	C646.263306,736.003601 726.491821,735.991516 807.263367,736.435181 
	C807.868347,753.260681 807.930359,769.630310 807.992310,786.000000 
	C807.978394,786.446045 807.964478,786.892090 807.992676,787.670654 
	C807.942810,805.342529 807.850830,822.681885 807.259338,840.497559 
	C726.518372,840.987183 646.276855,841.000610 566.035278,841.013977 
	C565.996521,833.974548 565.957764,826.935120 565.868042,819.424438 
	C565.881104,791.618713 565.945190,764.284241 566.022034,736.482788 
z"/>
<path fill="#E7B32D" opacity="1.000000" stroke="none" 
	d="
M566.020874,841.481140 
	C646.276855,841.000610 726.518372,840.987183 807.192444,840.957275 
	C807.729126,854.648254 807.833252,868.355713 807.941101,882.998535 
	C807.846313,899.946655 807.747742,915.959412 807.202576,931.978149 
	C726.517700,931.993958 646.279480,932.003845 566.041260,932.013733 
	C565.997375,930.607422 565.953430,929.201172 565.856689,927.374207 
	C565.871338,898.618469 565.938904,870.283386 566.020874,841.481140 
z"/>
<path fill="#E5AB21" opacity="1.000000" stroke="none" 
	d="
M566.025146,932.480835 
	C646.279480,932.003845 726.517700,931.993958 807.291260,932.442749 
	C807.880310,952.933777 807.933960,972.966125 807.987671,992.998413 
	C807.920532,998.345764 807.853455,1003.693176 807.286743,1009.512024 
	C726.530334,1009.990234 646.273499,1009.996948 566.016724,1010.003662 
	C566.014221,984.318420 566.011658,958.633179 566.025146,932.480835 
z"/>
<path fill="#E3A516" opacity="1.000000" stroke="none" 
	d="
M565.997070,1010.471619 
	C646.273499,1009.996948 726.530334,1009.990234 807.222107,1009.972534 
	C807.706055,1034.657715 807.755066,1059.353882 807.724915,1084.511597 
	C727.418213,1084.983154 647.190613,1084.993042 566.497742,1085.005127 
	C565.994812,1068.305786 565.957092,1051.604370 565.862549,1034.433105 
	C565.862976,1026.288818 565.920227,1018.614197 565.997070,1010.471619 
z"/>
<path fill="#C5810A" opacity="1.000000" stroke="none" 
	d="
M808.430908,660.000000 
	C807.925110,647.963684 807.853943,635.927307 807.679932,623.429321 
	C807.676392,601.747070 807.781738,580.526550 807.872192,559.305969 
	C807.908203,550.848999 807.911377,542.391907 807.971191,533.467651 
	C819.753113,532.998657 824.098328,537.336365 826.262756,549.054016 
	C827.310364,554.725708 830.341370,560.031067 832.738403,565.751160 
	C832.807434,571.516418 833.196167,576.457336 837.023743,581.384399 
	C839.295166,584.308289 838.727051,589.644287 838.913452,593.918457 
	C839.072266,597.560608 839.455017,600.291687 843.763306,601.406433 
	C845.164429,601.769043 846.454468,604.460571 846.873901,606.297180 
	C847.605286,609.500122 847.379395,612.914124 848.016541,616.148621 
	C848.506042,618.633362 849.994324,620.917114 850.520020,623.400085 
	C851.263672,626.912842 851.529785,630.526611 852.000000,634.548584 
	C847.283997,638.531433 849.247986,641.710388 852.551086,644.517029 
	C849.580261,651.562500 847.308960,657.965698 851.803833,665.391479 
	C853.709412,668.539612 852.492432,673.486450 853.073120,677.561829 
	C853.429443,680.062744 854.612732,682.434448 855.222290,684.913940 
	C855.791931,687.231079 856.348206,689.603210 856.448425,691.970703 
	C856.567078,694.772827 855.457886,697.818909 856.227844,700.349487 
	C857.058716,703.080200 859.101501,707.021851 861.226013,707.457458 
	C865.960571,708.427917 866.187500,711.000305 866.016968,714.583191 
	C865.922058,716.577759 865.479919,718.775635 866.132935,720.533142 
	C867.050720,723.003296 868.583252,726.872803 870.303467,727.130066 
	C877.077698,728.142883 876.093445,732.687073 875.997803,737.550049 
	C871.962769,738.450256 870.194092,737.121216 869.673645,732.621399 
	C869.398804,730.244812 866.387756,727.362000 863.923889,726.291138 
	C861.426636,725.205750 860.519592,724.257019 859.781860,721.683167 
	C859.165405,719.532104 856.737305,717.916260 855.166321,716.017944 
	C853.741516,714.296265 852.298279,712.575012 851.060608,710.721741 
	C850.659302,710.120972 851.213440,708.733398 850.767700,708.334229 
	C846.408691,704.430420 843.642334,699.753601 842.216248,694.004761 
	C841.508118,691.149902 839.413513,688.637329 837.934937,685.976196 
	C837.471375,685.141724 837.102417,683.738403 836.467651,683.597412 
	C831.565979,682.508362 829.773499,679.504578 829.658386,674.637085 
	C829.634949,673.644104 826.775208,671.983521 825.159729,671.903137 
	C820.626465,671.677673 816.953247,669.055969 817.385376,664.822571 
	C817.785278,660.904541 815.839722,660.191772 812.852783,660.022278 
	C811.527527,659.947021 810.194824,660.003357 808.430908,660.000000 
z"/>
<path fill="#B56504" opacity="1.000000" stroke="none" 
	d="
M808.437317,992.999023 
	C807.933960,972.966125 807.880310,952.933777 807.737915,932.436890 
	C807.747742,915.959412 807.846313,899.946655 807.978516,883.465881 
	C815.535034,881.331116 816.208252,888.407654 819.497192,892.077942 
	C822.534058,895.467041 825.698425,898.830566 828.160034,902.624878 
	C831.447449,907.692322 833.870483,913.204224 837.595337,918.153992 
	C840.030884,921.390442 839.327271,926.986145 840.043884,931.522827 
	C840.146423,932.171814 840.111206,933.144470 840.506592,933.400330 
	C847.298035,937.793701 843.922852,945.298889 846.019104,951.103455 
	C846.731445,953.075806 847.126465,955.885620 848.585693,956.736694 
	C854.062622,959.931091 854.341125,964.800415 854.000000,970.557617 
	C853.768311,972.589600 853.019531,974.331116 853.435608,975.724854 
	C853.955566,977.466858 856.685486,979.730835 856.278870,980.360474 
	C854.631531,982.912109 852.197876,984.976440 849.956787,987.118591 
	C847.794617,989.185303 845.096375,990.840820 843.450500,993.237793 
	C842.563904,994.528870 843.400513,996.995728 843.440552,998.932495 
	C843.483276,1001.002075 843.849976,1003.143066 843.444153,1005.123535 
	C842.962891,1007.471741 841.872314,1009.708984 840.930115,1011.945557 
	C839.439758,1015.483215 839.200500,1018.757568 841.659546,1022.129150 
	C842.319885,1023.034546 841.575867,1024.964233 841.239502,1026.711914 
	C840.336426,1026.002686 839.505554,1025.075317 839.046265,1023.990479 
	C838.475403,1022.642090 838.664612,1020.442078 837.739746,1019.861328 
	C832.655212,1016.668518 831.269897,1010.941956 828.044434,1006.507996 
	C827.283569,1005.462036 826.415710,1004.344604 826.121826,1003.132874 
	C824.349670,995.824829 821.941406,993.655762 814.371826,993.048889 
	C812.553894,992.903137 810.715759,993.009338 808.437317,992.999023 
z"/>
<path fill="#D08B0B" opacity="1.000000" stroke="none" 
	d="
M844.232788,479.729370 
	C842.852905,477.492981 841.705078,474.987305 840.778625,472.241394 
	C843.635620,473.799652 846.029541,475.710388 844.232788,479.729370 
z"/>
<path fill="#BF7608" opacity="1.000000" stroke="none" 
	d="
M808.451599,786.000000 
	C807.930359,769.630310 807.868347,753.260681 807.707458,736.427979 
	C807.717285,714.288025 807.825928,692.611084 807.977417,670.466919 
	C809.852234,670.002258 811.684937,670.035461 813.516235,670.000854 
	C817.249939,669.930237 819.168640,671.731873 818.968994,675.468140 
	C818.788696,678.843689 819.838318,681.030029 823.265015,682.384277 
	C830.003052,685.046997 829.529663,691.446350 829.906555,697.075745 
	C830.159668,700.857178 830.119568,704.252319 834.100708,706.466064 
	C835.267944,707.115173 835.715759,709.602722 835.932617,711.318604 
	C836.713989,717.500366 836.832886,723.532410 840.690430,729.238831 
	C842.941528,732.568848 842.007690,737.925415 843.097961,742.220154 
	C843.641174,744.359863 845.576050,746.125183 846.767212,748.127747 
	C847.900146,750.032227 849.733032,752.007874 849.773376,753.982605 
	C849.891296,759.757446 850.247314,765.237488 854.296265,769.870667 
	C854.950317,770.619141 854.782471,772.085938 854.997253,773.610352 
	C853.995972,776.358643 852.973083,778.709473 851.993713,781.078308 
	C851.191589,783.018433 850.441284,784.979919 849.465637,787.442383 
	C850.128418,788.023621 851.340332,788.690430 851.949646,789.715454 
	C852.821655,791.182495 854.228516,793.393433 853.707825,794.446655 
	C851.181274,799.557922 848.087219,804.388550 845.097168,809.659302 
	C841.162720,808.214417 836.293457,807.761963 836.566956,801.432312 
	C836.626160,800.062012 833.335693,797.673584 831.295227,797.282715 
	C827.897522,796.631775 827.097900,795.083679 826.912842,791.972900 
	C826.581726,786.407043 824.003601,784.827759 818.296143,785.633423 
	C815.211914,786.068726 812.042114,785.897583 808.451599,786.000000 
z"/>
</svg>