<svg version="1.1" id="Layer_1" xmlns="http://www.w3.org/2000/svg" xmlns:xlink="http://www.w3.org/1999/xlink" x="0px" y="0px"
	 width="100%" viewBox="0 0 1200 1133" enable-background="new 0 0 1200 1133" xml:space="preserve">
<path fill="#1E6D42" opacity="1.000000" stroke="none" 
	d="
M672.000000,1.000001 
	C675.692932,1.000000 679.385803,1.000000 683.536316,1.468649 
	C684.006287,38.260677 684.018677,74.584061 684.024292,111.381851 
	C683.998413,125.190025 683.979370,138.523788 683.876343,152.328857 
	C683.781921,168.128815 683.727112,183.457581 683.776001,198.786041 
	C683.811035,209.773254 683.984802,220.760025 684.075317,232.231354 
	C684.034058,266.804871 684.014221,300.894012 683.896057,335.443909 
	C683.852661,347.976044 683.907654,360.047394 683.968933,372.579895 
	C683.956238,407.266479 683.937195,441.491974 683.851929,476.199951 
	C683.875671,489.739288 683.965576,502.796204 684.043091,516.330933 
	C684.024170,550.882996 684.017639,584.957214 683.914124,619.489380 
	C683.847656,633.075012 683.878174,646.202698 683.927734,659.777527 
	C683.954712,694.452576 683.962524,728.680481 683.882080,763.375732 
	C683.893127,776.815735 683.992310,789.788391 684.071289,803.244629 
	C684.032776,837.814941 684.014465,871.901855 683.897095,906.448914 
	C683.842102,932.054871 683.886292,957.200562 683.945374,982.793091 
	C683.983948,996.524170 684.007568,1009.808472 684.018188,1023.554443 
	C684.003418,1060.677368 684.001709,1097.338623 684.000000,1134.000000 
	C680.638733,1134.000000 677.277405,1134.000000 673.456665,1133.599976 
	C670.042908,1132.465088 667.122803,1131.523315 664.128845,1131.028809 
	C644.933594,1127.857788 625.711731,1124.847168 606.518616,1121.663086 
	C585.553833,1118.184937 564.618408,1114.529785 543.655762,1111.038330 
	C524.623352,1107.868286 505.564667,1104.856201 486.530334,1101.697754 
	C467.011963,1098.458862 447.509033,1095.127197 428.087128,1091.439453 
	C428.449951,1088.245850 428.964325,1085.448975 428.965454,1082.651855 
	C429.006744,979.116882 429.000549,875.581970 429.431519,771.976074 
	C443.495758,772.760498 457.129364,773.615845 471.763794,774.533997 
	C470.276367,771.352600 469.494110,769.552124 468.608612,767.803955 
	C435.571259,702.581970 402.550568,637.351501 369.405060,572.184509 
	C367.655731,568.745178 367.576233,566.058777 369.313110,562.596375 
	C401.197723,499.036926 432.963745,435.417969 464.750549,371.809448 
	C465.579651,370.150360 466.359100,368.466431 467.359467,366.382050 
	C453.698517,367.108215 440.917053,367.787628 428.106384,367.969849 
	C428.051453,364.807098 428.003326,362.141541 428.003235,359.476013 
	C427.999420,258.337585 427.987793,157.199127 428.041962,56.060719 
	C428.044281,51.761887 428.661469,47.463383 429.344727,42.966644 
	C439.770386,41.129406 449.852570,39.543774 459.914795,37.840527 
	C484.957916,33.601463 509.980835,29.242043 535.033081,25.058306 
	C556.021790,21.553190 577.047485,18.270586 598.043945,14.811565 
	C619.676758,11.247718 641.303711,7.645889 662.907227,3.909967 
	C666.013000,3.372876 668.972717,1.990950 672.000000,1.000001 
z"/>
<path fill="#207547" opacity="1.000000" stroke="none" 
	d="
M1.000001,1021.000000 
	C1.000000,718.637329 1.000000,416.274597 1.437010,113.531609 
	C20.268238,110.258965 38.672836,107.430771 57.053806,104.456535 
	C76.082649,101.377464 95.091721,98.175491 114.103584,94.992325 
	C131.163910,92.135918 148.203918,89.156120 165.276398,86.375130 
	C177.143814,84.442017 189.051071,82.753380 201.183655,81.296295 
	C201.617874,83.939743 201.975296,86.242363 201.976013,88.545097 
	C202.004257,178.676315 201.975891,268.807587 202.043472,358.938751 
	C202.049194,366.570068 202.668152,374.200958 202.559097,381.915344 
	C197.731995,382.315338 193.348007,382.632050 188.506271,382.981812 
	C189.435226,385.198822 190.044983,386.724762 190.708389,388.227051 
	C216.882370,447.496735 243.035126,506.775879 269.314728,565.998718 
	C270.662079,569.035034 270.607422,571.335327 269.150085,574.283875 
	C239.918701,633.425659 210.792252,692.619324 181.653915,751.807068 
	C180.893951,753.350769 180.237457,754.945312 179.448135,756.704651 
	C190.105545,757.522400 200.053131,758.285706 210.000488,759.514648 
	C210.000183,854.436401 210.009659,948.892578 209.949387,1043.348755 
	C209.947723,1045.937988 209.195190,1048.526611 208.812836,1050.986694 
	C209.699814,1052.340942 210.844040,1054.087769 211.579163,1055.877563 
	C196.690399,1053.597534 182.202805,1051.322754 167.732788,1048.941162 
	C141.392654,1044.606079 115.057259,1040.241577 88.730461,1035.826416 
	C59.480808,1030.920898 30.242981,1025.945190 1.000001,1021.000000 
z"/>
<path fill="#207245" opacity="1.000000" stroke="none" 
	d="
M683.960327,151.857544 
	C683.979370,138.523788 683.998413,125.190025 684.489624,111.415268 
	C838.992004,110.983978 993.022217,110.985970 1147.052490,111.043411 
	C1151.336548,111.045006 1155.652954,111.406914 1159.898682,111.999374 
	C1178.877441,114.647675 1191.226562,125.644821 1198.524902,142.952560 
	C1199.013184,144.110382 1200.159668,144.990646 1201.000000,146.000000 
	C1201.000000,426.687561 1201.000000,707.375122 1200.633911,988.489624 
	C1199.826538,989.563416 1199.259888,990.157471 1198.962402,990.864807 
	C1189.896729,1012.417603 1174.031860,1023.109924 1150.306885,1023.083313 
	C997.213196,1022.911682 844.119080,1022.995178 691.025146,1022.999634 
	C688.693848,1022.999695 686.362549,1023.060425 684.031250,1023.092834 
	C684.007568,1009.808472 683.983948,996.524170 684.417358,982.829224 
	C843.762390,982.418640 1002.650330,982.418640 1161.603271,982.418640 
	C1161.603271,705.195007 1161.603271,428.675751 1161.603271,152.017670 
	C1160.158203,151.940811 1159.011719,151.826431 1157.865356,151.826462 
	C999.897034,151.831390 841.928650,151.844650 683.960327,151.857544 
z"/>
<path fill="#000000" opacity="1.000000" stroke="none" 
	d="
M684.018188,1023.554443 
	C686.362549,1023.060425 688.693848,1022.999695 691.025146,1022.999634 
	C844.119080,1022.995178 997.213196,1022.911682 1150.306885,1023.083313 
	C1174.031860,1023.109924 1189.896729,1012.417603 1198.962402,990.864807 
	C1199.259888,990.157471 1199.826538,989.563416 1200.633911,988.958252 
	C1201.000000,1037.301392 1201.000000,1085.602783 1201.000000,1134.000000 
	C1028.979126,1134.000000 856.958191,1134.000000 684.468628,1134.000000 
	C684.001709,1097.338623 684.003418,1060.677368 684.018188,1023.554443 
z"/>
<path fill="#000000" opacity="1.000000" stroke="none" 
	d="
M1201.000000,145.531342 
	C1200.159668,144.990646 1199.013184,144.110382 1198.524902,142.952560 
	C1191.226562,125.644821 1178.877441,114.647675 1159.898682,111.999374 
	C1155.652954,111.406914 1151.336548,111.045006 1147.052490,111.043411 
	C993.022217,110.985970 838.992004,110.983978 684.496460,110.940857 
	C684.018677,74.584061 684.006287,38.260677 683.996948,1.468649 
	C856.219421,1.000000 1028.438843,1.000000 1201.000000,1.000000 
	C1201.000000,49.020355 1201.000000,97.041519 1201.000000,145.531342 
z"/>
<path fill="#000000" opacity="1.000000" stroke="none" 
	d="
M1.000001,1021.468628 
	C30.242981,1025.945190 59.480808,1030.920898 88.730461,1035.826416 
	C115.057259,1040.241577 141.392654,1044.606079 167.732788,1048.941162 
	C182.202805,1051.322754 196.690399,1053.597534 211.988327,1055.945190 
	C226.456329,1058.312988 240.096848,1060.711426 253.758026,1062.985718 
	C272.633820,1066.127686 291.530457,1069.144409 310.408356,1072.273804 
	C329.761993,1075.482056 349.100250,1078.783203 368.451874,1082.003662 
	C388.296844,1085.306274 408.149841,1088.560669 427.999329,1091.836060 
	C447.509033,1095.127197 467.011963,1098.458862 486.530334,1101.697754 
	C505.564667,1104.856201 524.623352,1107.868286 543.655762,1111.038330 
	C564.618408,1114.529785 585.553833,1118.184937 606.518616,1121.663086 
	C625.711731,1124.847168 644.933594,1127.857788 664.128845,1131.028809 
	C667.122803,1131.523315 670.042908,1132.465088 672.998535,1133.599976 
	C449.000000,1134.000000 224.999985,1134.000000 1.000000,1134.000000 
	C1.000000,1096.562378 1.000000,1059.249756 1.000001,1021.468628 
z"/>
<path fill="#000000" opacity="1.000000" stroke="none" 
	d="
M200.940521,80.955513 
	C189.051071,82.753380 177.143814,84.442017 165.276398,86.375130 
	C148.203918,89.156120 131.163910,92.135918 114.103584,94.992325 
	C95.091721,98.175491 76.082649,101.377464 57.053806,104.456535 
	C38.672836,107.430771 20.268238,110.258965 1.437010,113.075653 
	C1.000000,75.687531 1.000000,38.375061 1.000000,1.000000 
	C224.354218,1.000000 447.708466,1.000000 671.531372,1.000001 
	C668.972717,1.990950 666.013000,3.372876 662.907227,3.909967 
	C641.303711,7.645889 619.676758,11.247718 598.043945,14.811565 
	C577.047485,18.270586 556.021790,21.553190 535.033081,25.058306 
	C509.980835,29.242043 484.957916,33.601463 459.914795,37.840527 
	C449.852570,39.543774 439.770386,41.129406 428.920227,42.914803 
	C416.745117,44.864384 405.337372,46.608414 393.951416,48.485031 
	C377.038971,51.272518 360.147369,54.186337 343.237000,56.986546 
	C324.361176,60.112209 305.472412,63.159687 286.592712,66.261948 
	C266.907074,69.496620 247.216232,72.701309 227.546326,76.029381 
	C218.654449,77.533859 209.807724,79.305229 200.940521,80.955513 
z"/>
<path fill="#FEFEFE" opacity="1.000000" stroke="none" 
	d="
M683.876343,152.328857 
	C841.928650,151.844650 999.897034,151.831390 1157.865356,151.826462 
	C1159.011719,151.826431 1160.158203,151.940811 1161.603271,152.017670 
	C1161.603271,428.675751 1161.603271,705.195007 1161.603271,982.418640 
	C1002.650330,982.418640 843.762390,982.418640 684.402466,982.382446 
	C683.886292,957.200562 683.842102,932.054871 684.365967,906.442078 
	C738.015137,905.975037 791.096313,905.975037 844.285278,905.975037 
	C844.285278,871.276794 844.285278,837.198608 844.285278,802.761108 
	C790.684204,802.761108 737.387878,802.761108 684.091553,802.761108 
	C683.992310,789.788391 683.893127,776.815735 684.352539,763.363525 
	C737.974121,762.883972 791.037109,762.883972 844.168945,762.883972 
	C844.168945,728.105469 844.168945,693.925659 844.168945,659.442261 
	C841.758545,659.442261 839.775513,659.443542 837.792419,659.442139 
	C786.497864,659.405090 735.203247,659.367737 683.908691,659.330444 
	C683.878174,646.202698 683.847656,633.075012 684.382080,619.490723 
	C738.028992,619.034119 791.111023,619.034119 844.278381,619.034119 
	C844.278381,584.330811 844.278381,550.254089 844.278381,515.853088 
	C790.663147,515.853088 737.359314,515.853088 684.055542,515.853088 
	C683.965576,502.796204 683.875671,489.739288 684.324524,476.160156 
	C737.930908,475.637939 790.998596,475.637939 844.206360,475.637939 
	C844.206360,440.791626 844.206360,406.601105 844.206360,372.118774 
	C790.531189,372.118774 737.246887,372.118774 683.962646,372.118774 
	C683.907654,360.047394 683.852661,347.976044 684.364990,335.436401 
	C738.011902,334.968170 791.091492,334.968170 844.284912,334.968170 
	C844.284912,300.265289 844.284912,266.188110 844.284912,231.746994 
	C790.685364,231.746994 737.391052,231.746994 684.096680,231.746994 
	C683.984802,220.760025 683.811035,209.773254 683.776001,198.786041 
	C683.727112,183.457581 683.781921,168.128815 683.876343,152.328857 
M885.108521,661.972595 
	C885.108521,695.744995 885.108521,729.517334 885.108521,763.467529 
	C949.076172,763.467529 1012.576782,763.467529 1076.196045,763.467529 
	C1076.196045,729.033813 1076.196045,694.957825 1076.196045,660.626221 
	C1074.634521,660.520203 1073.345459,660.356384 1072.056396,660.356079 
	C1011.247498,660.343506 950.438660,660.340088 889.629761,660.375732 
	C888.195984,660.376587 886.762512,660.834290 885.108521,661.972595 
M1076.478638,530.501343 
	C1076.478638,525.734680 1076.478638,520.968018 1076.478638,516.063538 
	C1012.419983,516.063538 949.000488,516.063538 885.467651,516.063538 
	C885.467651,550.490112 885.467651,584.679749 885.467651,618.742065 
	C949.301208,618.742065 1012.745789,618.742065 1076.478760,618.742065 
	C1076.478760,589.469238 1076.478760,560.485413 1076.478638,530.501343 
M964.500000,476.012115 
	C1001.753418,476.012115 1039.006836,476.012115 1076.096436,476.012115 
	C1076.096436,441.236633 1076.096436,407.170258 1076.096436,373.098541 
	C1012.302917,373.098541 948.892212,373.098541 885.346436,373.098541 
	C885.346436,407.470032 885.346436,441.541046 885.346436,476.012115 
	C911.574585,476.012115 937.537292,476.012115 964.500000,476.012115 
M1037.500000,905.972107 
	C1050.414795,905.972107 1063.329590,905.972107 1076.092529,905.972107 
	C1076.092529,871.155579 1076.092529,837.086975 1076.092529,803.017944 
	C1012.296875,803.017944 948.888489,803.017944 885.348511,803.017944 
	C885.348511,837.408020 885.348511,871.482727 885.348511,905.972107 
	C935.911499,905.972107 986.205750,905.972107 1037.500000,905.972107 
M1076.479248,273.500366 
	C1076.479248,259.724731 1076.479248,245.949097 1076.479248,232.095230 
	C1012.383606,232.095230 948.862671,232.095230 885.428955,232.095230 
	C885.428955,266.576019 885.428955,300.644775 885.428955,334.692017 
	C949.216431,334.692017 1012.653259,334.692017 1076.005859,334.692017 
	C1076.194824,334.112183 1076.382568,333.803833 1076.383301,333.495087 
	C1076.424927,313.830200 1076.451538,294.165314 1076.479248,273.500366 
z"/>
<path fill="#1F7244" opacity="1.000000" stroke="none" 
	d="
M201.183655,81.296295 
	C209.807724,79.305229 218.654449,77.533859 227.546326,76.029381 
	C247.216232,72.701309 266.907074,69.496620 286.592712,66.261948 
	C305.472412,63.159687 324.361176,60.112209 343.237000,56.986546 
	C360.147369,54.186337 377.038971,51.272518 393.951416,48.485031 
	C405.337372,46.608414 416.745117,44.864384 428.567657,43.112885 
	C428.661469,47.463383 428.044281,51.761887 428.041962,56.060719 
	C427.987793,157.199127 427.999420,258.337585 428.003235,359.476013 
	C428.003326,362.141541 428.051453,364.807098 427.714783,368.109283 
	C413.384644,369.524780 399.420929,370.396271 385.445862,371.007721 
	C382.494537,371.136841 381.078979,372.215454 379.965057,374.875977 
	C360.217346,422.041779 338.448792,468.358582 320.278442,515.523743 
	C319.286804,512.287048 318.282990,508.141052 316.765747,504.192322 
	C301.210602,463.709045 285.509033,423.281830 270.059052,382.758636 
	C268.585693,378.894165 266.814240,377.997345 262.830261,378.275269 
	C242.901825,379.665344 222.947464,380.683228 203.002228,381.832031 
	C202.668152,374.200958 202.049194,366.570068 202.043472,358.938751 
	C201.975891,268.807587 202.004257,178.676315 201.976013,88.545097 
	C201.975296,86.242363 201.617874,83.939743 201.183655,81.296295 
z"/>
<path fill="#1F7144" opacity="1.000000" stroke="none" 
	d="
M428.087128,1091.439453 
	C408.149841,1088.560669 388.296844,1085.306274 368.451874,1082.003662 
	C349.100250,1078.783203 329.761993,1075.482056 310.408356,1072.273804 
	C291.530457,1069.144409 272.633820,1066.127686 253.758026,1062.985718 
	C240.096848,1060.711426 226.456329,1058.312988 212.397430,1055.902344 
	C210.844040,1054.087769 209.699814,1052.340942 208.812836,1050.986694 
	C209.195190,1048.526611 209.947723,1045.937988 209.949387,1043.348755 
	C210.009659,948.892578 210.000183,854.436401 210.457199,759.444763 
	C225.536728,759.736816 240.168015,760.443359 254.774933,761.489807 
	C257.850708,761.710144 259.102448,760.820129 260.266937,758.105408 
	C279.942261,712.236023 299.724487,666.412476 318.855682,622.034180 
	C319.463379,623.937012 320.361694,627.662537 321.813751,631.158081 
	C340.415436,675.936707 359.127655,720.669434 377.682373,765.467468 
	C378.845490,768.275696 380.368805,768.933228 383.182465,769.089905 
	C398.462738,769.940796 413.729462,771.035950 429.000824,772.046997 
	C429.000549,875.581970 429.006744,979.116882 428.965454,1082.651855 
	C428.964325,1085.448975 428.449951,1088.245850 428.087128,1091.439453 
z"/>
<path fill="#FEFEFE" opacity="1.000000" stroke="none" 
	d="
M429.431519,771.976074 
	C413.729462,771.035950 398.462738,769.940796 383.182465,769.089905 
	C380.368805,768.933228 378.845490,768.275696 377.682373,765.467468 
	C359.127655,720.669434 340.415436,675.936707 321.813751,631.158081 
	C320.361694,627.662537 319.463379,623.937012 318.855682,622.034180 
	C299.724487,666.412476 279.942261,712.236023 260.266937,758.105408 
	C259.102448,760.820129 257.850708,761.710144 254.774933,761.489807 
	C240.168015,760.443359 225.536728,759.736816 210.457413,758.979126 
	C200.053131,758.285706 190.105545,757.522400 179.448135,756.704651 
	C180.237457,754.945312 180.893951,753.350769 181.653915,751.807068 
	C210.792252,692.619324 239.918701,633.425659 269.150085,574.283875 
	C270.607422,571.335327 270.662079,569.035034 269.314728,565.998718 
	C243.035126,506.775879 216.882370,447.496735 190.708389,388.227051 
	C190.044983,386.724762 189.435226,385.198822 188.506271,382.981812 
	C193.348007,382.632050 197.731995,382.315338 202.559082,381.915344 
	C222.947464,380.683228 242.901825,379.665344 262.830261,378.275269 
	C266.814240,377.997345 268.585693,378.894165 270.059052,382.758636 
	C285.509033,423.281830 301.210602,463.709045 316.765747,504.192322 
	C318.282990,508.141052 319.286804,512.287048 320.278442,515.523743 
	C338.448792,468.358582 360.217346,422.041779 379.965057,374.875977 
	C381.078979,372.215454 382.494537,371.136841 385.445862,371.007721 
	C399.420929,370.396271 413.384644,369.524780 427.743988,368.606506 
	C440.917053,367.787628 453.698517,367.108215 467.359467,366.382050 
	C466.359100,368.466431 465.579651,370.150360 464.750549,371.809448 
	C432.963745,435.417969 401.197723,499.036926 369.313110,562.596375 
	C367.576233,566.058777 367.655731,568.745178 369.405060,572.184509 
	C402.550568,637.351501 435.571259,702.581970 468.608612,767.803955 
	C469.494110,769.552124 470.276367,771.352600 471.763794,774.533997 
	C457.129364,773.615845 443.495758,772.760498 429.431519,771.976074 
z"/>
<path fill="#217246" opacity="1.000000" stroke="none" 
	d="
M683.927734,659.777588 
	C735.203247,659.367737 786.497864,659.405090 837.792419,659.442139 
	C839.775513,659.443542 841.758545,659.442261 844.168945,659.442261 
	C844.168945,693.925659 844.168945,728.105469 844.168945,762.883972 
	C791.037109,762.883972 737.974121,762.883972 684.440796,762.896179 
	C683.962524,728.680481 683.954712,694.452576 683.927734,659.777588 
z"/>
<path fill="#217246" opacity="1.000000" stroke="none" 
	d="
M683.968933,372.579895 
	C737.246887,372.118774 790.531189,372.118774 844.206360,372.118774 
	C844.206360,406.601105 844.206360,440.791626 844.206360,475.637939 
	C790.998596,475.637939 737.930908,475.637939 684.390747,475.677704 
	C683.937195,441.491974 683.956238,407.266479 683.968933,372.579895 
z"/>
<path fill="#207145" opacity="1.000000" stroke="none" 
	d="
M684.043091,516.330933 
	C737.359314,515.853088 790.663147,515.853088 844.278381,515.853088 
	C844.278381,550.254089 844.278381,584.330811 844.278381,619.034119 
	C791.111023,619.034119 738.028992,619.034119 684.479065,619.032776 
	C684.017639,584.957214 684.024170,550.882996 684.043091,516.330933 
z"/>
<path fill="#207145" opacity="1.000000" stroke="none" 
	d="
M684.071289,803.244629 
	C737.387878,802.761108 790.684204,802.761108 844.285278,802.761108 
	C844.285278,837.198608 844.285278,871.276794 844.285278,905.975037 
	C791.096313,905.975037 738.015137,905.975037 684.465088,905.981873 
	C684.014465,871.901855 684.032776,837.814941 684.071289,803.244629 
z"/>
<path fill="#207145" opacity="1.000000" stroke="none" 
	d="
M684.075317,232.231354 
	C737.391052,231.746994 790.685364,231.746994 844.284912,231.746994 
	C844.284912,266.188110 844.284912,300.265289 844.284912,334.968170 
	C791.091492,334.968170 738.011902,334.968170 684.463379,334.975677 
	C684.014221,300.894012 684.034058,266.804871 684.075317,232.231354 
z"/>
<path fill="#217245" opacity="1.000000" stroke="none" 
	d="
M885.218689,661.525757 
	C886.762512,660.834290 888.195984,660.376587 889.629761,660.375732 
	C950.438660,660.340088 1011.247498,660.343506 1072.056396,660.356079 
	C1073.345459,660.356384 1074.634521,660.520203 1076.196045,660.626221 
	C1076.196045,694.957825 1076.196045,729.033813 1076.196045,763.467529 
	C1012.576782,763.467529 949.076172,763.467529 885.108521,763.467529 
	C885.108521,729.517334 885.108521,695.744995 885.218689,661.525757 
z"/>
<path fill="#1F7144" opacity="1.000000" stroke="none" 
	d="
M1076.478760,531.001465 
	C1076.478760,560.485413 1076.478760,589.469238 1076.478760,618.742065 
	C1012.745789,618.742065 949.301208,618.742065 885.467651,618.742065 
	C885.467651,584.679749 885.467651,550.490112 885.467651,516.063538 
	C949.000488,516.063538 1012.419983,516.063538 1076.478638,516.063538 
	C1076.478638,520.968018 1076.478638,525.734680 1076.478760,531.001465 
z"/>
<path fill="#1F7144" opacity="1.000000" stroke="none" 
	d="
M964.000000,476.012115 
	C937.537292,476.012115 911.574585,476.012115 885.346436,476.012115 
	C885.346436,441.541046 885.346436,407.470032 885.346436,373.098541 
	C948.892212,373.098541 1012.302917,373.098541 1076.096436,373.098541 
	C1076.096436,407.170258 1076.096436,441.236633 1076.096436,476.012115 
	C1039.006836,476.012115 1001.753418,476.012115 964.000000,476.012115 
z"/>
<path fill="#1F7144" opacity="1.000000" stroke="none" 
	d="
M1037.000000,905.972107 
	C986.205750,905.972107 935.911499,905.972107 885.348511,905.972107 
	C885.348511,871.482727 885.348511,837.408020 885.348511,803.017944 
	C948.888489,803.017944 1012.296875,803.017944 1076.092529,803.017944 
	C1076.092529,837.086975 1076.092529,871.155579 1076.092529,905.972107 
	C1063.329590,905.972107 1050.414795,905.972107 1037.000000,905.972107 
z"/>
<path fill="#1F7144" opacity="1.000000" stroke="none" 
	d="
M1076.479248,274.000366 
	C1076.451538,294.165314 1076.424927,313.830200 1076.383301,333.495087 
	C1076.382568,333.803833 1076.194824,334.112183 1076.005859,334.692017 
	C1012.653259,334.692017 949.216431,334.692017 885.428955,334.692017 
	C885.428955,300.644775 885.428955,266.576019 885.428955,232.095230 
	C948.862671,232.095230 1012.383606,232.095230 1076.479248,232.095230 
	C1076.479248,245.949097 1076.479248,259.724731 1076.479248,274.000366 
z"/>
</svg>