<svg version="1.1" id="Layer_1" xmlns="http://www.w3.org/2000/svg" xmlns:xlink="http://www.w3.org/1999/xlink" x="0px" y="0px"
	 width="100%" viewBox="0 0 225 225" enable-background="new 0 0 225 225" xml:space="preserve">
<path fill="#059688" opacity="1.000000" stroke="none" 
	d="
M126.000000,226.000000 
	C117.645767,226.000000 109.291534,226.000000 100.307892,225.642578 
	C97.727242,224.895874 95.775131,224.510818 93.824860,224.116714 
	C51.285030,215.520142 22.350512,190.853546 7.296455,150.214920 
	C4.413960,142.433578 3.059447,134.086227 1.000000,126.000000 
	C1.000000,117.979103 1.000000,109.958199 1.352392,101.285416 
	C2.115540,98.177170 2.436852,95.701950 2.950307,93.267242 
	C12.517630,47.900913 39.425362,18.365667 83.847488,4.969563 
	C89.454147,3.278799 95.277206,2.305635 101.000000,1.000000 
	C109.020897,1.000000 117.041801,1.000000 125.734390,1.353438 
	C128.062210,1.852756 129.749557,1.842729 131.369919,2.167226 
	C176.667816,11.238735 207.134827,37.195915 221.314682,81.503746 
	C223.249603,87.549751 224.456192,93.828835 226.000000,100.000000 
	C226.000000,108.687561 226.000000,117.375130 225.637878,126.698105 
	C224.481339,131.572174 223.959457,135.883606 222.850189,140.038193 
	C212.198212,179.933914 187.427277,206.870178 148.343597,220.318314 
	C141.101501,222.810211 133.458145,224.136002 126.000000,226.000000 
M93.355141,81.892982 
	C84.653900,98.925652 75.952667,115.958313 66.730942,134.009827 
	C80.875656,134.009827 93.463219,134.009827 107.060165,134.009827 
	C107.060165,157.618866 107.060165,180.736633 107.060165,203.854385 
	C107.648956,203.963562 108.237740,204.072739 108.826530,204.181915 
	C127.145370,167.438004 145.464203,130.694077 164.354828,92.803284 
	C150.689316,92.803284 138.481964,92.803284 125.622986,92.803284 
	C125.622986,69.112350 125.622986,46.113216 125.622986,23.114086 
	C125.019310,22.915113 124.415634,22.716139 123.811966,22.517166 
	C113.793648,42.100513 103.775330,61.683865 93.355141,81.892982 
z"/>
<path fill="#FEFEFE" opacity="1.000000" stroke="none" 
	d="
M1.000000,126.468658 
	C3.059447,134.086227 4.413960,142.433578 7.296455,150.214920 
	C22.350512,190.853546 51.285030,215.520142 93.824860,224.116714 
	C95.775131,224.510818 97.727242,224.895874 99.839249,225.642578 
	C67.072693,226.000000 34.145393,226.000000 1.000000,226.000000 
	C1.000000,192.979431 1.000000,159.958374 1.000000,126.468658 
z"/>
<path fill="#FDFEFE" opacity="1.000000" stroke="none" 
	d="
M126.468658,226.000000 
	C133.458145,224.136002 141.101501,222.810211 148.343597,220.318314 
	C187.427277,206.870178 212.198212,179.933914 222.850189,140.038193 
	C223.959457,135.883606 224.481339,131.572174 225.637878,127.166756 
	C226.000000,159.927292 226.000000,192.854599 226.000000,226.000000 
	C192.979431,226.000000 159.958374,226.000000 126.468658,226.000000 
z"/>
<path fill="#FDFEFE" opacity="1.000000" stroke="none" 
	d="
M100.531342,1.000000 
	C95.277206,2.305635 89.454147,3.278799 83.847488,4.969563 
	C39.425362,18.365667 12.517630,47.900913 2.950307,93.267242 
	C2.436852,95.701950 2.115540,98.177170 1.352392,100.816765 
	C1.000000,67.739731 1.000000,34.479462 1.000000,1.000000 
	C34.020573,1.000000 67.041626,1.000000 100.531342,1.000000 
z"/>
<path fill="#FEFEFE" opacity="1.000000" stroke="none" 
	d="
M226.000000,99.531342 
	C224.456192,93.828835 223.249603,87.549751 221.314682,81.503746 
	C207.134827,37.195915 176.667816,11.238735 131.369919,2.167226 
	C129.749557,1.842729 128.062210,1.852756 126.203033,1.353438 
	C159.259903,1.000000 192.519791,1.000000 226.000000,1.000000 
	C226.000000,33.687233 226.000000,66.374954 226.000000,99.531342 
z"/>
<path fill="#FDFEFE" opacity="1.000000" stroke="none" 
	d="
M93.556076,81.580093 
	C103.775330,61.683865 113.793648,42.100513 123.811966,22.517166 
	C124.415634,22.716139 125.019310,22.915113 125.622986,23.114086 
	C125.622986,46.113216 125.622986,69.112350 125.622986,92.803284 
	C138.481964,92.803284 150.689316,92.803284 164.354828,92.803284 
	C145.464203,130.694077 127.145370,167.438004 108.826530,204.181915 
	C108.237740,204.072739 107.648956,203.963562 107.060165,203.854385 
	C107.060165,180.736633 107.060165,157.618866 107.060165,134.009827 
	C93.463219,134.009827 80.875656,134.009827 66.730942,134.009827 
	C75.952667,115.958313 84.653900,98.925652 93.556076,81.580093 
z"/>
</svg>