<svg version="1.1" id="Layer_1" xmlns="http://www.w3.org/2000/svg" xmlns:xlink="http://www.w3.org/1999/xlink" x="0px" y="0px"
	 width="100%" viewBox="0 0 300 168" enable-background="new 0 0 300 168" xml:space="preserve">
<path fill="#F1F1F1" opacity="1.000000" stroke="none" 
	d="
M193.000000,169.000000 
	C128.666672,169.000000 64.833351,169.000000 1.000017,169.000000 
	C1.000011,113.000015 1.000011,57.000031 1.000006,1.000032 
	C100.999969,1.000021 200.999939,1.000021 300.999939,1.000011 
	C300.999939,56.999969 300.999939,112.999939 300.999969,168.999954 
	C265.166656,169.000000 229.333328,169.000000 193.000000,169.000000 
M48.513863,52.977043 
	C45.848671,52.977093 43.183220,52.952843 40.518330,52.981247 
	C26.317808,53.132603 14.271104,65.251884 14.113658,79.530800 
	C13.950317,94.344307 26.000990,106.419716 41.018089,106.490440 
	C55.588844,106.559059 67.620766,94.985504 67.923889,80.609642 
	C68.062149,74.052505 63.781033,68.521118 57.548771,68.053246 
	C51.583221,67.605392 45.551994,67.552902 39.576389,67.855324 
	C33.779938,68.148682 29.260464,73.389473 29.035097,79.266113 
	C28.802965,85.319260 33.182339,90.574631 39.228931,91.498993 
	C45.381580,92.439568 50.274998,89.335609 52.141026,82.920166 
	C48.751030,82.920166 45.428616,83.265335 42.236801,82.769600 
	C40.718300,82.533760 39.448551,80.696281 38.066120,79.584343 
	C39.363632,78.612892 40.572666,76.987556 41.975925,76.797684 
	C45.585190,76.309349 49.280643,76.367180 52.941441,76.371849 
	C58.410580,76.378830 59.816967,78.166008 58.701092,83.422791 
	C56.895630,91.928154 49.401089,97.839561 40.670929,97.644302 
	C32.223801,97.455383 24.668571,90.872154 23.278034,82.489044 
	C21.647156,72.656998 31.066605,61.336334 39.565090,61.795795 
	C47.878864,62.245270 56.301292,61.645893 64.608681,60.825195 
	C68.449265,60.445778 70.638893,57.330761 70.778618,52.977043 
	C63.490063,52.977043 56.499474,52.977043 48.513863,52.977043 
M152.636475,104.839500 
	C155.228973,104.839500 157.821472,104.839500 160.223053,104.839500 
	C160.223053,96.601784 160.590363,88.954552 160.098480,81.362991 
	C159.749985,75.984344 156.121933,73.024994 150.979065,72.483299 
	C145.894608,71.947754 142.069763,74.031296 139.396225,78.343979 
	C133.146301,71.116333 128.029709,70.539589 119.861122,76.038124 
	C118.247459,70.352730 114.146423,73.582100 111.059921,73.151772 
	C111.059921,83.933350 111.059921,94.323875 111.059921,104.577461 
	C113.993362,104.577461 116.569191,104.577461 119.458405,104.577461 
	C119.458405,98.801689 119.353035,93.320518 119.489128,87.845352 
	C119.615959,82.742943 122.168709,79.704147 125.939880,80.105186 
	C130.581696,80.598801 131.098358,84.035286 131.073318,87.791283 
	C131.036011,93.393074 131.063644,98.995293 131.063644,104.587845 
	C134.378387,104.587845 137.103790,104.587845 140.036423,104.587845 
	C140.036423,98.650757 140.018829,93.004227 140.042435,87.357872 
	C140.059036,83.383957 141.603912,80.323586 145.923447,80.151787 
	C150.583679,79.966446 151.625519,83.455925 151.734421,87.226326 
	C151.897766,92.881889 151.875687,98.542793 152.636475,104.839500 
M261.934753,72.777260 
	C259.623016,72.777260 257.311310,72.777260 254.850861,72.777260 
	C254.850861,88.039154 254.850861,102.933464 254.850861,117.826401 
	C257.752045,117.826401 260.354187,117.826401 263.399719,117.826401 
	C263.399719,112.232513 263.399719,106.871468 263.399719,101.219093 
	C270.666321,106.357544 277.814423,106.291153 282.765930,101.364326 
	C287.995850,96.160538 289.193665,84.279472 284.678345,78.145325 
	C283.096893,75.996849 280.606506,74.020638 278.116089,73.140831 
	C272.847137,71.279442 267.801605,72.731651 263.465942,76.353806 
	C263.146912,74.933319 262.931213,73.972755 261.934753,72.777260 
M82.200241,86.287392 
	C82.200241,81.868767 82.200241,77.450150 82.200241,73.091972 
	C78.930855,73.091972 76.326424,73.091972 73.507805,73.091972 
	C73.507805,80.588570 73.081459,87.897720 73.625496,95.133919 
	C74.190399,102.647804 80.862534,106.948433 87.949051,104.739151 
	C90.355461,103.988937 92.412582,102.118370 94.604179,100.775162 
	C97.100494,105.826904 101.441551,105.494621 106.550980,104.600868 
	C106.254623,102.336838 106.496284,98.759186 105.627502,98.465416 
	C101.399773,97.035812 103.181564,93.828827 103.087791,91.415543 
	C102.850967,85.321274 103.009293,79.211655 103.009293,73.120094 
	C99.735741,73.120094 96.999557,73.120094 93.954391,73.120094 
	C93.954391,78.660515 93.986961,83.955414 93.945107,89.249710 
	C93.904312,94.409264 91.704239,97.363098 87.947594,97.439659 
	C84.117607,97.517723 82.348495,94.989899 82.202942,89.220230 
	C82.186165,88.555168 82.200394,87.889320 82.200241,86.287392 
M217.721695,83.594376 
	C215.105438,93.930984 219.553558,102.449219 228.738037,104.690857 
	C238.748306,107.134041 247.538803,101.897041 249.657333,92.228004 
	C251.449036,84.050636 247.185211,75.992302 239.664581,73.342392 
	C230.586685,70.143784 222.090485,73.839157 217.721695,83.594376 
M213.154358,94.313675 
	C215.957214,84.131233 211.483490,75.162277 202.512924,72.979614 
	C192.303085,70.495438 183.670578,75.413223 181.359467,85.030350 
	C179.409027,93.146667 183.585464,101.425415 190.979752,104.100121 
	C199.945724,107.343353 208.522537,103.834404 213.154358,94.313675 
M175.166153,64.571297 
	C175.166153,62.476501 175.166153,60.381706 175.166153,58.301697 
	C171.939972,58.301697 169.339081,58.301697 166.492813,58.301697 
	C166.492813,71.760384 166.161072,85.036934 166.636673,98.284492 
	C166.864975,104.644379 171.598648,106.544426 179.226852,103.985443 
	C178.737640,102.036583 178.755829,98.734787 177.636749,98.289177 
	C174.390945,96.996750 175.213470,94.663246 175.196457,92.527679 
	C175.124817,83.538109 175.166168,74.547646 175.166153,64.571297 
z"/>
<path fill="#050505" opacity="1.000000" stroke="none" 
	d="
M49.011372,52.977043 
	C56.499474,52.977043 63.490063,52.977043 70.778618,52.977043 
	C70.638893,57.330761 68.449265,60.445778 64.608681,60.825195 
	C56.301292,61.645893 47.878864,62.245270 39.565090,61.795795 
	C31.066605,61.336334 21.647156,72.656998 23.278034,82.489044 
	C24.668571,90.872154 32.223801,97.455383 40.670929,97.644302 
	C49.401089,97.839561 56.895630,91.928154 58.701092,83.422791 
	C59.816967,78.166008 58.410580,76.378830 52.941441,76.371849 
	C49.280643,76.367180 45.585190,76.309349 41.975925,76.797684 
	C40.572666,76.987556 39.363632,78.612892 38.066120,79.584343 
	C39.448551,80.696281 40.718300,82.533760 42.236801,82.769600 
	C45.428616,83.265335 48.751030,82.920166 52.141026,82.920166 
	C50.274998,89.335609 45.381580,92.439568 39.228931,91.498993 
	C33.182339,90.574631 28.802965,85.319260 29.035097,79.266113 
	C29.260464,73.389473 33.779938,68.148682 39.576389,67.855324 
	C45.551994,67.552902 51.583221,67.605392 57.548771,68.053246 
	C63.781033,68.521118 68.062149,74.052505 67.923889,80.609642 
	C67.620766,94.985504 55.588844,106.559059 41.018089,106.490440 
	C26.000990,106.419716 13.950317,94.344307 14.113658,79.530800 
	C14.271104,65.251884 26.317808,53.132603 40.518330,52.981247 
	C43.183220,52.952843 45.848671,52.977093 49.011372,52.977043 
z"/>
<path fill="#060606" opacity="1.000000" stroke="none" 
	d="
M152.284470,104.520462 
	C151.875687,98.542793 151.897766,92.881889 151.734421,87.226326 
	C151.625519,83.455925 150.583679,79.966446 145.923447,80.151787 
	C141.603912,80.323586 140.059036,83.383957 140.042435,87.357872 
	C140.018829,93.004227 140.036423,98.650757 140.036423,104.587845 
	C137.103790,104.587845 134.378387,104.587845 131.063644,104.587845 
	C131.063644,98.995293 131.036011,93.393074 131.073318,87.791283 
	C131.098358,84.035286 130.581696,80.598801 125.939880,80.105186 
	C122.168709,79.704147 119.615959,82.742943 119.489128,87.845352 
	C119.353035,93.320518 119.458405,98.801689 119.458405,104.577461 
	C116.569191,104.577461 113.993362,104.577461 111.059921,104.577461 
	C111.059921,94.323875 111.059921,83.933350 111.059921,73.151772 
	C114.146423,73.582100 118.247459,70.352730 119.861122,76.038124 
	C128.029709,70.539589 133.146301,71.116333 139.396225,78.343979 
	C142.069763,74.031296 145.894608,71.947754 150.979065,72.483299 
	C156.121933,73.024994 159.749985,75.984344 160.098480,81.362991 
	C160.590363,88.954552 160.223053,96.601784 160.223053,104.839500 
	C157.821472,104.839500 155.228973,104.839500 152.284470,104.520462 
z"/>
<path fill="#040404" opacity="1.000000" stroke="none" 
	d="
M262.325134,72.894730 
	C262.931213,73.972755 263.146912,74.933319 263.465942,76.353806 
	C267.801605,72.731651 272.847137,71.279442 278.116089,73.140831 
	C280.606506,74.020638 283.096893,75.996849 284.678345,78.145325 
	C289.193665,84.279472 287.995850,96.160538 282.765930,101.364326 
	C277.814423,106.291153 270.666321,106.357544 263.399719,101.219093 
	C263.399719,106.871468 263.399719,112.232513 263.399719,117.826401 
	C260.354187,117.826401 257.752045,117.826401 254.850861,117.826401 
	C254.850861,102.933464 254.850861,88.039154 254.850861,72.777260 
	C257.311310,72.777260 259.623016,72.777260 262.325134,72.894730 
M273.835236,80.247940 
	C270.119507,79.385948 266.130737,79.728714 264.897766,83.480316 
	C263.828674,86.733109 264.057220,90.888901 265.137665,94.177254 
	C265.706177,95.907494 269.420654,97.703224 271.542145,97.515923 
	C273.677338,97.327408 276.277802,95.115051 277.469360,93.082916 
	C279.797485,89.112457 278.249023,84.020332 273.835236,80.247940 
z"/>
<path fill="#060606" opacity="1.000000" stroke="none" 
	d="
M82.200241,86.755615 
	C82.200394,87.889320 82.186165,88.555168 82.202942,89.220230 
	C82.348495,94.989899 84.117607,97.517723 87.947594,97.439659 
	C91.704239,97.363098 93.904312,94.409264 93.945107,89.249710 
	C93.986961,83.955414 93.954391,78.660515 93.954391,73.120094 
	C96.999557,73.120094 99.735741,73.120094 103.009293,73.120094 
	C103.009293,79.211655 102.850967,85.321274 103.087791,91.415543 
	C103.181564,93.828827 101.399773,97.035812 105.627502,98.465416 
	C106.496284,98.759186 106.254623,102.336838 106.550980,104.600868 
	C101.441551,105.494621 97.100494,105.826904 94.604179,100.775162 
	C92.412582,102.118370 90.355461,103.988937 87.949051,104.739151 
	C80.862534,106.948433 74.190399,102.647804 73.625496,95.133919 
	C73.081459,87.897720 73.507805,80.588570 73.507805,73.091972 
	C76.326424,73.091972 78.930855,73.091972 82.200241,73.091972 
	C82.200241,77.450150 82.200241,81.868767 82.200241,86.755615 
z"/>
<path fill="#050505" opacity="1.000000" stroke="none" 
	d="
M217.816422,83.199142 
	C222.090485,73.839157 230.586685,70.143784 239.664581,73.342392 
	C247.185211,75.992302 251.449036,84.050636 249.657333,92.228004 
	C247.538803,101.897041 238.748306,107.134041 228.738037,104.690857 
	C219.553558,102.449219 215.105438,93.930984 217.816422,83.199142 
M232.722809,97.877922 
	C239.385391,98.570557 242.442245,90.729980 240.276474,84.920380 
	C239.037659,81.597336 236.644623,79.151489 233.279373,79.938156 
	C230.789124,80.520271 227.857666,82.614761 226.708176,84.850578 
	C224.011154,90.096489 226.409576,95.129074 232.722809,97.877922 
z"/>
<path fill="#050505" opacity="1.000000" stroke="none" 
	d="
M213.068176,94.706116 
	C208.522537,103.834404 199.945724,107.343353 190.979752,104.100121 
	C183.585464,101.425415 179.409027,93.146667 181.359467,85.030350 
	C183.670578,75.413223 192.303085,70.495438 202.512924,72.979614 
	C211.483490,75.162277 215.957214,84.131233 213.068176,94.706116 
M201.834518,96.456421 
	C205.624374,92.907051 205.873642,88.605148 204.057983,84.151131 
	C202.255463,79.729279 197.033661,78.373764 193.345657,81.096481 
	C189.917664,83.627243 188.768707,89.607758 191.093384,93.766647 
	C193.418762,97.926788 196.881805,98.914894 201.834518,96.456421 
z"/>
<path fill="#0A0A0A" opacity="1.000000" stroke="none" 
	d="
M175.166168,65.064400 
	C175.166168,74.547646 175.124817,83.538109 175.196457,92.527679 
	C175.213470,94.663246 174.390945,96.996750 177.636749,98.289177 
	C178.755829,98.734787 178.737640,102.036583 179.226852,103.985443 
	C171.598648,106.544426 166.864975,104.644379 166.636673,98.284492 
	C166.161072,85.036934 166.492813,71.760384 166.492813,58.301697 
	C169.339081,58.301697 171.939972,58.301697 175.166153,58.301697 
	C175.166153,60.381706 175.166153,62.476501 175.166168,65.064400 
z"/>
<path fill="#ECECEC" opacity="1.000000" stroke="none" 
	d="
M274.187622,80.451691 
	C278.249023,84.020332 279.797485,89.112457 277.469360,93.082916 
	C276.277802,95.115051 273.677338,97.327408 271.542145,97.515923 
	C269.420654,97.703224 265.706177,95.907494 265.137665,94.177254 
	C264.057220,90.888901 263.828674,86.733109 264.897766,83.480316 
	C266.130737,79.728714 270.119507,79.385948 274.187622,80.451691 
z"/>
<path fill="#ECECEC" opacity="1.000000" stroke="none" 
	d="
M232.336609,97.829102 
	C226.409576,95.129074 224.011154,90.096489 226.708176,84.850578 
	C227.857666,82.614761 230.789124,80.520271 233.279373,79.938156 
	C236.644623,79.151489 239.037659,81.597336 240.276474,84.920380 
	C242.442245,90.729980 239.385391,98.570557 232.336609,97.829102 
z"/>
<path fill="#EBEBEB" opacity="1.000000" stroke="none" 
	d="
M201.517258,96.680923 
	C196.881805,98.914894 193.418762,97.926788 191.093384,93.766647 
	C188.768707,89.607758 189.917664,83.627243 193.345657,81.096481 
	C197.033661,78.373764 202.255463,79.729279 204.057983,84.151131 
	C205.873642,88.605148 205.624374,92.907051 201.517258,96.680923 
z"/>
</svg>