<svg version="1.1" id="Layer_1" xmlns="http://www.w3.org/2000/svg" xmlns:xlink="http://www.w3.org/1999/xlink" x="0px" y="0px"
	 width="100%" viewBox="0 0 1200 1391" enable-background="new 0 0 1200 1391" xml:space="preserve">
<path fill="#000000" opacity="1.000000" stroke="none" 
	d="
M1.000000,539.000000 
	C1.000000,359.333344 1.000000,180.166672 1.000000,1.000000 
	C401.000000,1.000000 801.000000,1.000000 1201.000000,1.000000 
	C1201.000000,464.666656 1201.000000,928.333313 1201.000000,1392.000000 
	C801.000000,1392.000000 401.000000,1392.000000 1.000000,1392.000000 
	C1.000000,1107.833374 1.000000,823.666687 1.000000,539.000000 
M113.498131,879.001587 
	C104.502975,871.109436 95.507828,863.217224 89.337669,857.803589 
	C127.598724,959.455322 192.850876,1045.921875 285.413269,1110.427246 
	C400.348022,1190.523438 528.348145,1221.769287 667.446350,1204.829224 
	C767.774902,1192.610718 857.707031,1154.268921 936.850037,1091.483398 
	C1016.417114,1028.361450 1073.458130,948.664124 1108.660278,853.323792 
	C1105.470703,856.179199 1102.923340,859.606628 1099.887817,862.526428 
	C1087.339966,874.595581 1075.062012,886.996216 1061.881226,898.341309 
	C1049.629883,908.886414 1036.799927,918.897827 1023.421631,927.958557 
	C1007.546936,938.710083 991.253845,949.021667 974.340393,958.016663 
	C953.382446,969.162720 932.071106,979.937012 910.056030,988.727234 
	C883.561279,999.305969 856.338135,1008.178040 829.096436,1016.724731 
	C812.706848,1021.866760 795.759827,1025.354614 778.918396,1028.897583 
	C763.618469,1032.116333 748.163452,1034.671265 732.702148,1037.029785 
	C715.576904,1039.642090 698.400208,1042.000732 681.183228,1043.901855 
	C667.770996,1045.383057 654.276611,1046.486450 640.793518,1046.869995 
	C623.110718,1047.372925 605.392700,1047.387085 587.708618,1046.911987 
	C565.233093,1046.308105 542.772217,1045.086304 520.313843,1043.955200 
	C512.268005,1043.550171 504.201477,1042.972656 496.225983,1041.879028 
	C481.187225,1039.816650 466.168335,1037.549072 451.214081,1034.947754 
	C434.868500,1032.104492 418.378204,1029.657715 402.357971,1025.478027 
	C376.151093,1018.640686 349.958984,1011.460876 324.349365,1002.703796 
	C300.725616,994.625793 277.506958,985.093506 254.778122,974.735352 
	C225.660767,961.465820 197.978455,945.393982 171.746170,926.969421 
	C151.301498,912.609863 131.637878,897.282288 113.498131,879.001587 
M161.520248,422.989746 
	C176.673187,413.125458 191.703934,403.066864 207.007523,393.442108 
	C230.364120,378.752594 255.112228,366.526154 280.675781,356.429565 
	C308.274719,345.529083 336.498901,336.083710 364.824677,327.196686 
	C383.378540,321.375549 402.521759,317.331238 421.542664,313.132965 
	C436.159424,309.906769 450.938141,307.275238 465.753082,305.125031 
	C480.823669,302.937744 496.012604,301.519867 511.175690,300.029205 
	C526.546509,298.518127 541.926880,296.731110 557.343628,296.157196 
	C575.349365,295.486938 593.400208,295.880615 611.429443,296.041595 
	C622.693726,296.142151 633.966675,296.437744 645.213135,297.057373 
	C658.858032,297.809113 672.507751,298.707581 686.103271,300.064606 
	C703.202759,301.771484 720.343933,303.424286 737.294128,306.168396 
	C756.555847,309.286743 775.832581,312.773254 794.729858,317.569122 
	C820.044678,323.993713 845.355713,330.805908 870.013306,339.343689 
	C895.147888,348.046600 919.808228,358.333496 944.068726,369.273926 
	C961.267334,377.029694 977.988037,386.179413 993.962463,396.231842 
	C1014.360718,409.068176 1034.535278,422.501068 1053.416870,437.433777 
	C1069.868286,450.444519 1084.437622,465.844910 1099.726440,480.307831 
	C1102.814697,483.229279 1105.400635,486.681793 1108.218140,489.889465 
	C1066.329712,376.591736 995.450195,286.155212 894.080261,220.897202 
	C778.086426,146.224899 650.995544,120.185127 514.669189,140.132126 
	C450.656311,149.498367 390.371185,170.605667 333.825775,202.075317 
	C276.710754,233.861984 226.840759,274.676666 184.311569,324.275757 
	C145.780151,369.212494 92.161140,462.418365 88.500908,490.128937 
	C110.603874,465.236603 134.412567,442.846436 161.520248,422.989746 
M296.571075,1260.070557 
	C290.902435,1231.652100 276.387207,1208.898315 252.217163,1192.866699 
	C230.192581,1178.258057 205.766678,1173.214722 179.578812,1176.973145 
	C153.078445,1180.776245 131.027283,1192.534668 114.001030,1213.453979 
	C93.432190,1238.725830 86.162994,1267.343140 91.968399,1299.344360 
	C96.631767,1325.050293 109.220856,1346.347046 129.855820,1362.019165 
	C158.641479,1383.881470 190.918442,1389.657227 225.740356,1379.054565 
	C245.867172,1372.926514 262.422150,1361.442993 275.507446,1344.982422 
	C289.204926,1327.751587 296.963318,1308.156128 297.884460,1286.148071 
	C298.235809,1277.754028 297.288788,1269.305664 296.571075,1260.070557 
M1038.316406,173.943527 
	C1047.943848,167.691376 1056.716187,160.423553 1063.378418,151.014938 
	C1079.227539,128.632202 1082.998657,103.946999 1075.754639,77.764282 
	C1071.507324,62.412426 1062.959961,49.499508 1050.656128,39.089127 
	C1031.253052,22.672083 1008.780762,16.614843 984.030396,20.255522 
	C962.054199,23.488132 943.869812,34.197617 930.390381,52.150761 
	C915.038086,72.598419 910.603516,95.534164 915.772217,120.355659 
	C919.297791,137.286469 927.826172,151.361053 940.548584,163.176849 
	C955.037598,176.633408 972.212219,183.542023 991.593323,184.890274 
	C1007.895569,186.024353 1023.290344,182.109039 1038.316406,173.943527 
M366.999847,618.500244 
	C366.999908,675.489868 366.999725,732.479431 367.000214,789.469055 
	C367.000336,803.466492 367.091064,817.464844 366.941467,831.460693 
	C366.904541,834.914429 367.989075,836.154846 371.499634,836.059875 
	C379.159271,835.852722 386.839813,835.747192 394.489349,836.094849 
	C398.929260,836.296631 400.124207,834.859436 400.094757,830.472595 
	C399.906860,802.479004 399.995392,774.483459 400.009979,746.488586 
	C400.010895,744.773499 400.157288,743.058594 400.267700,740.652527 
	C402.092285,742.618958 403.431305,743.868591 404.544525,745.294556 
	C410.037079,752.329834 417.226196,757.318665 425.146240,760.930847 
	C440.099457,767.750732 455.866791,768.263428 471.751984,764.954895 
	C489.689484,761.218933 504.465210,752.196960 516.048279,737.862549 
	C531.623413,718.587830 536.315674,695.771729 536.798340,671.974854 
	C537.128174,655.708313 534.190186,639.679016 527.255737,624.686707 
	C519.864502,608.706848 508.747772,596.079468 492.951599,588.041748 
	C479.643280,581.270081 465.488403,579.408081 450.587555,580.850281 
	C433.534180,582.500732 419.090973,589.047852 407.225006,601.313171 
	C403.888062,604.762390 400.783173,608.436157 397.290680,612.319641 
	C396.837799,604.470764 396.113556,597.192383 396.116730,589.914368 
	C396.118530,585.813599 394.654480,584.796875 390.880859,584.935791 
	C384.390869,585.174622 377.876831,585.205994 371.390106,584.926025 
	C367.387421,584.753235 365.660461,585.811951 365.930542,590.148010 
	C366.497650,599.252319 366.667145,608.381531 366.999847,618.500244 
M971.678406,739.999817 
	C939.957153,738.971680 915.701965,706.723450 919.874695,681.003296 
	C921.899353,681.003296 924.024902,681.003357 926.150513,681.003357 
	C963.650391,681.002930 1001.150452,680.948059 1038.649902,681.080750 
	C1042.687988,681.095032 1044.395264,680.101379 1044.052246,675.815857 
	C1043.220215,665.418274 1043.271240,654.915771 1041.860107,644.606934 
	C1039.808716,629.620056 1034.238892,615.745667 1024.462646,604.065979 
	C1011.942688,589.108337 995.179199,582.058899 976.055298,581.140381 
	C958.744385,580.308899 942.113647,583.465393 927.152283,592.991455 
	C912.589172,602.263855 902.293274,615.061096 895.541870,630.845459 
	C890.284241,643.137207 887.836670,655.947144 886.726746,669.296692 
	C885.516357,683.855713 885.744080,698.000427 890.853027,711.830261 
	C902.653931,743.775879 925.989624,762.446411 959.157715,766.538391 
	C981.643311,769.312378 1004.525879,767.338867 1026.343628,759.386414 
	C1034.916016,756.261780 1034.988281,756.400085 1032.968872,747.786438 
	C1031.669067,742.242249 1030.299805,736.714478 1028.851318,730.723083 
	C1010.298157,738.539734 991.719116,740.888611 971.678406,739.999817 
M590.346008,838.884033 
	C591.712097,838.348633 593.145935,837.940979 594.434021,837.258362 
	C609.994080,829.011475 623.139587,818.043274 633.295837,803.496887 
	C645.214905,786.425781 654.163757,767.822815 662.070190,748.687439 
	C671.524658,725.805420 680.862976,702.872131 689.934937,679.836304 
	C699.975891,654.340210 709.681213,628.711670 719.481384,603.121155 
	C721.805786,597.051331 723.925293,590.903015 726.408447,584.047058 
	C714.751831,584.047058 704.113586,583.936646 693.484680,584.201172 
	C692.294128,584.230835 690.603699,586.181946 690.083801,587.588867 
	C686.652222,596.875122 683.378296,606.223145 680.237305,615.612732 
	C669.797852,646.820374 659.434021,678.053223 649.047180,709.278503 
	C647.642700,713.500671 646.272156,717.734192 644.677368,722.598572 
	C640.605103,710.361877 637.105469,698.852905 632.961670,687.580627 
	C620.649780,654.088928 608.063904,620.698059 595.661926,587.239319 
	C594.783997,584.870667 593.614502,583.907471 591.006104,583.946899 
	C581.178101,584.095398 571.346375,583.992676 561.516296,584.036072 
	C560.447266,584.040771 559.379700,584.382629 558.128723,584.599792 
	C558.288940,585.620483 558.273071,586.298035 558.503906,586.877136 
	C566.758179,607.582703 574.956360,628.311157 583.328064,648.969238 
	C596.307190,680.996704 609.476929,712.947266 622.379150,745.005554 
	C624.281006,749.731079 627.334961,754.399719 624.918823,760.094604 
	C617.997864,776.406982 607.975098,790.472290 593.731567,800.989319 
	C585.712952,806.910034 576.645691,811.410583 567.680481,816.772461 
	C569.311218,822.494568 571.288574,829.141174 573.091797,835.834656 
	C575.294983,844.012695 575.233154,844.033936 583.517944,841.247620 
	C585.554321,840.562683 587.578003,839.840149 590.346008,838.884033 
M270.009491,743.481873 
	C271.765289,741.341553 273.521088,739.201233 276.056641,736.110352 
	C276.847961,745.709412 277.543732,754.148987 278.237549,762.565369 
	C288.476288,762.565369 298.038605,762.565369 308.165710,762.565369 
	C307.736511,759.307678 307.082642,756.561829 307.061249,753.811035 
	C306.949219,739.396667 306.991760,724.981018 306.991058,710.565857 
	C306.989014,669.401855 306.959167,628.237732 307.052521,587.073914 
	C307.060394,583.598755 305.585571,582.898010 302.546265,582.954651 
	C295.049377,583.094360 287.533203,583.283936 280.053894,582.894348 
	C275.244324,582.643860 273.860718,584.112061 273.891602,588.984802 
	C274.102570,622.314758 274.025635,655.646606 273.962769,688.977722 
	C273.956879,692.100464 273.477875,695.230957 273.096375,698.342896 
	C270.063873,723.079651 248.437454,739.223877 226.048370,737.951965 
	C212.514954,737.183228 202.149445,731.343262 195.827576,718.738342 
	C191.089127,709.290527 189.218689,699.237000 189.118805,688.993774 
	C188.798660,656.165649 188.916733,623.331970 189.096573,590.501709 
	C189.120850,586.071289 187.857132,584.713989 183.462021,584.907227 
	C175.810638,585.243774 168.121445,585.262634 160.472290,584.901855 
	C155.961380,584.689087 154.885971,586.256714 154.910110,590.573242 
	C155.080688,621.070374 154.914291,651.569275 155.038025,682.066772 
	C155.095871,696.324890 156.160828,710.498291 160.005432,724.346558 
	C163.487976,736.890686 169.942200,748.012695 180.262634,755.474487 
	C196.041046,766.882446 214.343521,769.454895 233.347733,765.389832 
	C247.716492,762.316284 259.745148,754.984985 270.009491,743.481873 
M168.969070,188.906631 
	C163.937042,178.691086 158.792099,168.811142 149.269516,161.551834 
	C129.950836,146.824707 103.623940,144.132217 82.381897,156.366943 
	C57.233265,170.851746 48.702995,192.746185 52.416149,218.615097 
	C56.536503,247.320862 78.726959,266.480957 106.385422,268.766296 
	C129.036682,270.637878 147.829697,261.807739 160.922729,242.906784 
	C172.168747,226.672150 174.975922,208.760788 168.969070,188.906631 
M780.000000,664.500000 
	C780.000000,674.498230 779.882690,684.498230 780.031067,694.494202 
	C780.199524,705.842346 777.329224,717.226562 780.939697,728.547119 
	C784.905090,740.980530 789.156616,753.019775 801.597717,759.883057 
	C818.715027,769.326172 836.422852,767.001892 854.202393,762.680847 
	C855.382446,762.394043 856.869202,760.064270 856.850403,758.703735 
	C856.752319,751.635681 856.211975,744.573730 855.793274,736.919189 
	C851.510742,737.507507 847.799927,737.973633 844.103455,738.534424 
	C837.243958,739.575256 830.530396,739.346619 824.375000,735.771240 
	C815.354004,730.531433 813.218262,721.517395 813.126587,712.283325 
	C812.805786,679.959351 813.073730,647.629883 812.927917,615.303406 
	C812.909424,611.202271 814.031189,609.827515 818.237122,609.914673 
	C830.396179,610.166504 842.564819,609.915955 854.727661,610.053040 
	C857.972473,610.089600 859.157349,609.008118 859.048584,605.741516 
	C858.854553,599.915771 858.853760,594.074341 859.047363,588.248596 
	C859.156677,584.959839 857.920471,583.912598 854.699463,583.956970 
	C844.203491,584.101685 833.704224,584.007507 823.206238,584.006409 
	C813.009521,584.005371 813.009521,584.005981 813.009521,573.674438 
	C813.009460,560.214844 813.009460,546.755249 813.009460,533.126831 
	C802.913208,535.510681 793.312744,537.851318 783.671753,540.011108 
	C780.552002,540.710083 779.930176,542.550110 779.957458,545.401306 
	C780.064209,556.564819 779.871643,567.732239 780.067505,578.893311 
	C780.133911,582.679260 779.173462,584.288757 775.068665,584.082458 
	C768.752563,583.765137 762.406311,584.105835 756.077515,583.962524 
	C753.121277,583.895691 751.862061,584.847839 751.957397,587.954041 
	C752.131165,593.614258 752.117371,599.286682 751.961182,604.947998 
	C751.878723,607.937256 752.909729,609.119202 755.982483,609.041077 
	C762.310364,608.880188 768.654541,609.204529 774.974243,608.926086 
	C778.909180,608.752808 780.124878,610.064941 780.079102,614.010376 
	C779.887878,630.505005 779.999451,647.003174 780.000000,664.500000 
M96.066605,766.702271 
	C96.377304,764.413879 96.996849,762.118225 96.942833,759.838501 
	C96.754295,751.882568 96.129753,743.934387 96.044235,735.979187 
	C95.888466,721.489014 96.000084,706.995850 95.999977,692.503967 
	C95.999733,657.856689 95.927635,623.208984 96.090042,588.562500 
	C96.110306,584.238098 95.025703,582.668518 90.525208,582.905640 
	C83.548500,583.273315 76.538139,582.996216 69.542053,583.003662 
	C63.016411,583.010681 63.002899,583.017151 63.002399,589.487549 
	C62.998451,640.625671 63.187016,691.764954 62.860310,742.900940 
	C62.784550,754.758545 61.474190,766.679565 59.780060,778.434204 
	C58.280926,788.835815 54.035336,798.106201 44.358650,803.931580 
	C36.568768,808.621094 28.484236,812.123962 19.189089,812.016907 
	C16.384396,811.984619 14.970738,812.623718 15.768602,816.153809 
	C16.928932,821.287354 17.440653,826.588013 17.942654,831.844727 
	C18.525402,837.947021 19.469696,838.841431 25.499199,837.882629 
	C26.802345,837.675476 28.067919,837.200989 29.374023,837.048035 
	C52.637604,834.324280 72.436539,825.580139 84.334122,804.150879 
	C90.616287,792.835815 95.179916,780.765686 96.066605,766.702271 
M1124.000000,719.500000 
	C1124.000000,718.667419 1123.977173,717.834106 1124.003296,717.002380 
	C1124.705933,694.614014 1122.306885,672.143127 1125.974121,649.829285 
	C1128.012817,637.424744 1134.028687,627.478516 1144.028076,620.039856 
	C1153.298950,613.143188 1164.125610,611.058350 1175.406128,611.063416 
	C1178.776245,611.064941 1180.167236,610.151489 1180.061768,606.568604 
	C1179.841187,599.081482 1179.904785,591.581848 1180.036621,584.090637 
	C1180.088379,581.153564 1179.178101,579.703369 1176.060059,579.992432 
	C1171.615723,580.404541 1167.050781,580.201599 1162.732056,581.149170 
	C1150.549683,583.821777 1139.725586,589.231750 1132.110596,599.461609 
	C1127.965454,605.030151 1124.611572,611.187439 1120.992798,616.933105 
	C1120.992798,607.643616 1120.924072,597.883423 1121.035156,588.125305 
	C1121.068115,585.229858 1120.248169,583.886841 1117.095215,583.955994 
	C1109.771729,584.116638 1102.438599,584.139832 1095.116699,583.946289 
	C1091.703003,583.856079 1090.669189,585.311523 1090.996948,588.403198 
	C1091.362671,591.853516 1091.989014,595.314514 1091.943115,598.763489 
	C1091.745972,613.542542 1091.112549,628.318176 1091.059937,643.096497 
	C1090.923828,681.396484 1091.034546,719.697327 1090.962036,757.997681 
	C1090.956299,761.034058 1092.013794,762.090942 1095.026489,762.039917 
	C1103.183716,761.901794 1111.348389,761.856506 1119.503052,762.060364 
	C1123.008301,762.147949 1124.104248,760.923218 1124.059326,757.467468 
	C1123.898804,745.146851 1123.998657,732.822754 1124.000000,719.500000 
z"/>
<path fill="#F37726" opacity="1.000000" stroke="none" 
	d="
M113.748337,879.251465 
	C131.637878,897.282288 151.301498,912.609863 171.746170,926.969421 
	C197.978455,945.393982 225.660767,961.465820 254.778122,974.735352 
	C277.506958,985.093506 300.725616,994.625793 324.349365,1002.703796 
	C349.958984,1011.460876 376.151093,1018.640686 402.357971,1025.478027 
	C418.378204,1029.657715 434.868500,1032.104492 451.214081,1034.947754 
	C466.168335,1037.549072 481.187225,1039.816650 496.225983,1041.879028 
	C504.201477,1042.972656 512.268005,1043.550171 520.313843,1043.955200 
	C542.772217,1045.086304 565.233093,1046.308105 587.708618,1046.911987 
	C605.392700,1047.387085 623.110718,1047.372925 640.793518,1046.869995 
	C654.276611,1046.486450 667.770996,1045.383057 681.183228,1043.901855 
	C698.400208,1042.000732 715.576904,1039.642090 732.702148,1037.029785 
	C748.163452,1034.671265 763.618469,1032.116333 778.918396,1028.897583 
	C795.759827,1025.354614 812.706848,1021.866760 829.096436,1016.724731 
	C856.338135,1008.178040 883.561279,999.305969 910.056030,988.727234 
	C932.071106,979.937012 953.382446,969.162720 974.340393,958.016663 
	C991.253845,949.021667 1007.546936,938.710083 1023.421631,927.958557 
	C1036.799927,918.897827 1049.629883,908.886414 1061.881226,898.341309 
	C1075.062012,886.996216 1087.339966,874.595581 1099.887817,862.526428 
	C1102.923340,859.606628 1105.470703,856.179199 1108.660278,853.323792 
	C1073.458130,948.664124 1016.417114,1028.361450 936.850037,1091.483398 
	C857.707031,1154.268921 767.774902,1192.610718 667.446350,1204.829224 
	C528.348145,1221.769287 400.348022,1190.523438 285.413269,1110.427246 
	C192.850876,1045.921875 127.598724,959.455322 89.337669,857.803589 
	C95.507828,863.217224 104.502975,871.109436 113.748337,879.251465 
z"/>
<path fill="#F37726" opacity="1.000000" stroke="none" 
	d="
M161.259872,423.245667 
	C134.412567,442.846436 110.603874,465.236603 88.500908,490.128937 
	C92.161140,462.418365 145.780151,369.212494 184.311569,324.275757 
	C226.840759,274.676666 276.710754,233.861984 333.825775,202.075317 
	C390.371185,170.605667 450.656311,149.498367 514.669189,140.132126 
	C650.995544,120.185127 778.086426,146.224899 894.080261,220.897202 
	C995.450195,286.155212 1066.329712,376.591736 1108.218140,489.889465 
	C1105.400635,486.681793 1102.814697,483.229279 1099.726440,480.307831 
	C1084.437622,465.844910 1069.868286,450.444519 1053.416870,437.433777 
	C1034.535278,422.501068 1014.360718,409.068176 993.962463,396.231842 
	C977.988037,386.179413 961.267334,377.029694 944.068726,369.273926 
	C919.808228,358.333496 895.147888,348.046600 870.013306,339.343689 
	C845.355713,330.805908 820.044678,323.993713 794.729858,317.569122 
	C775.832581,312.773254 756.555847,309.286743 737.294128,306.168396 
	C720.343933,303.424286 703.202759,301.771484 686.103271,300.064606 
	C672.507751,298.707581 658.858032,297.809113 645.213135,297.057373 
	C633.966675,296.437744 622.693726,296.142151 611.429443,296.041595 
	C593.400208,295.880615 575.349365,295.486938 557.343628,296.157196 
	C541.926880,296.731110 526.546509,298.518127 511.175690,300.029205 
	C496.012604,301.519867 480.823669,302.937744 465.753082,305.125031 
	C450.938141,307.275238 436.159424,309.906769 421.542664,313.132965 
	C402.521759,317.331238 383.378540,321.375549 364.824677,327.196686 
	C336.498901,336.083710 308.274719,345.529083 280.675781,356.429565 
	C255.112228,366.526154 230.364120,378.752594 207.007523,393.442108 
	C191.703934,403.066864 176.673187,413.125458 161.259872,423.245667 
z"/>
<path fill="#9E9E9E" opacity="1.000000" stroke="none" 
	d="
M296.752258,1260.476318 
	C297.288788,1269.305664 298.235809,1277.754028 297.884460,1286.148071 
	C296.963318,1308.156128 289.204926,1327.751587 275.507446,1344.982422 
	C262.422150,1361.442993 245.867172,1372.926514 225.740356,1379.054565 
	C190.918442,1389.657227 158.641479,1383.881470 129.855820,1362.019165 
	C109.220856,1346.347046 96.631767,1325.050293 91.968399,1299.344360 
	C86.162994,1267.343140 93.432190,1238.725830 114.001030,1213.453979 
	C131.027283,1192.534668 153.078445,1180.776245 179.578812,1176.973145 
	C205.766678,1173.214722 230.192581,1178.258057 252.217163,1192.866699 
	C276.387207,1208.898315 290.902435,1231.652100 296.752258,1260.476318 
z"/>
<path fill="#767677" opacity="1.000000" stroke="none" 
	d="
M1037.953857,174.026581 
	C1023.290344,182.109039 1007.895569,186.024353 991.593323,184.890274 
	C972.212219,183.542023 955.037598,176.633408 940.548584,163.176849 
	C927.826172,151.361053 919.297791,137.286469 915.772217,120.355659 
	C910.603516,95.534164 915.038086,72.598419 930.390381,52.150761 
	C943.869812,34.197617 962.054199,23.488132 984.030396,20.255522 
	C1008.780762,16.614843 1031.253052,22.672083 1050.656128,39.089127 
	C1062.959961,49.499508 1071.507324,62.412426 1075.754639,77.764282 
	C1082.998657,103.946999 1079.227539,128.632202 1063.378418,151.014938 
	C1056.716187,160.423553 1047.943848,167.691376 1037.953857,174.026581 
z"/>
<path fill="#4E4E4E" opacity="1.000000" stroke="none" 
	d="
M366.999817,618.000366 
	C366.667145,608.381531 366.497650,599.252319 365.930542,590.148010 
	C365.660461,585.811951 367.387421,584.753235 371.390106,584.926025 
	C377.876831,585.205994 384.390869,585.174622 390.880859,584.935791 
	C394.654480,584.796875 396.118530,585.813599 396.116730,589.914368 
	C396.113556,597.192383 396.837799,604.470764 397.290680,612.319641 
	C400.783173,608.436157 403.888062,604.762390 407.225006,601.313171 
	C419.090973,589.047852 433.534180,582.500732 450.587555,580.850281 
	C465.488403,579.408081 479.643280,581.270081 492.951599,588.041748 
	C508.747772,596.079468 519.864502,608.706848 527.255737,624.686707 
	C534.190186,639.679016 537.128174,655.708313 536.798340,671.974854 
	C536.315674,695.771729 531.623413,718.587830 516.048279,737.862549 
	C504.465210,752.196960 489.689484,761.218933 471.751984,764.954895 
	C455.866791,768.263428 440.099457,767.750732 425.146240,760.930847 
	C417.226196,757.318665 410.037079,752.329834 404.544525,745.294556 
	C403.431305,743.868591 402.092285,742.618958 400.267700,740.652527 
	C400.157288,743.058594 400.010895,744.773499 400.009979,746.488586 
	C399.995392,774.483459 399.906860,802.479004 400.094757,830.472595 
	C400.124207,834.859436 398.929260,836.296631 394.489349,836.094849 
	C386.839813,835.747192 379.159271,835.852722 371.499634,836.059875 
	C367.989075,836.154846 366.904541,834.914429 366.941467,831.460693 
	C367.091064,817.464844 367.000336,803.466492 367.000214,789.469055 
	C366.999725,732.479431 366.999908,675.489868 366.999817,618.000366 
M494.131714,713.608459 
	C502.076569,698.726807 504.163086,682.864319 503.133484,666.157104 
	C501.983337,647.492737 495.981781,631.269470 481.996979,618.535278 
	C472.873413,610.227661 461.690826,606.110168 449.639496,607.403503 
	C442.155670,608.206604 434.575775,611.335815 427.801788,614.879272 
	C412.406464,622.932556 403.234344,636.512512 401.327820,653.391113 
	C399.683929,667.944458 400.217651,682.878967 401.169678,697.555359 
	C402.304413,715.047607 412.439301,727.568909 427.684875,735.063660 
	C451.151947,746.600159 480.417847,739.406006 494.131714,713.608459 
z"/>
<path fill="#4E4E4E" opacity="1.000000" stroke="none" 
	d="
M972.158325,739.999634 
	C991.719116,740.888611 1010.298157,738.539734 1028.851318,730.723083 
	C1030.299805,736.714478 1031.669067,742.242249 1032.968872,747.786438 
	C1034.988281,756.400085 1034.916016,756.261780 1026.343628,759.386414 
	C1004.525879,767.338867 981.643311,769.312378 959.157715,766.538391 
	C925.989624,762.446411 902.653931,743.775879 890.853027,711.830261 
	C885.744080,698.000427 885.516357,683.855713 886.726746,669.296692 
	C887.836670,655.947144 890.284241,643.137207 895.541870,630.845459 
	C902.293274,615.061096 912.589172,602.263855 927.152283,592.991455 
	C942.113647,583.465393 958.744385,580.308899 976.055298,581.140381 
	C995.179199,582.058899 1011.942688,589.108337 1024.462646,604.065979 
	C1034.238892,615.745667 1039.808716,629.620056 1041.860107,644.606934 
	C1043.271240,654.915771 1043.220215,665.418274 1044.052246,675.815857 
	C1044.395264,680.101379 1042.687988,681.095032 1038.649902,681.080750 
	C1001.150452,680.948059 963.650391,681.002930 926.150513,681.003357 
	C924.024902,681.003357 921.899353,681.003296 919.874695,681.003296 
	C915.701965,706.723450 939.957153,738.971680 972.158325,739.999634 
M1005.884460,622.736816 
	C1003.005920,619.740967 1000.281006,616.576843 997.219360,613.781555 
	C988.892334,606.178711 978.648315,602.331970 967.744080,603.265564 
	C951.580139,604.649475 938.328918,612.169373 929.057739,626.083374 
	C923.468140,634.472107 919.748230,643.285950 919.924683,653.437561 
	C920.526123,653.669006 920.828979,653.887329 921.132141,653.887817 
	C950.768616,653.931763 980.405151,653.944641 1010.041504,654.008972 
	C1013.151367,654.015747 1014.119690,652.428650 1013.997681,649.621216 
	C1013.589050,640.220337 1011.303833,631.390991 1005.884460,622.736816 
z"/>
<path fill="#4E4E4E" opacity="1.000000" stroke="none" 
	d="
M589.976807,839.009460 
	C587.578003,839.840149 585.554321,840.562683 583.517944,841.247620 
	C575.233154,844.033936 575.294983,844.012695 573.091797,835.834656 
	C571.288574,829.141174 569.311218,822.494568 567.680481,816.772461 
	C576.645691,811.410583 585.712952,806.910034 593.731567,800.989319 
	C607.975098,790.472290 617.997864,776.406982 624.918823,760.094604 
	C627.334961,754.399719 624.281006,749.731079 622.379150,745.005554 
	C609.476929,712.947266 596.307190,680.996704 583.328064,648.969238 
	C574.956360,628.311157 566.758179,607.582703 558.503906,586.877136 
	C558.273071,586.298035 558.288940,585.620483 558.128723,584.599792 
	C559.379700,584.382629 560.447266,584.040771 561.516296,584.036072 
	C571.346375,583.992676 581.178101,584.095398 591.006104,583.946899 
	C593.614502,583.907471 594.783997,584.870667 595.661926,587.239319 
	C608.063904,620.698059 620.649780,654.088928 632.961670,687.580627 
	C637.105469,698.852905 640.605103,710.361877 644.677368,722.598572 
	C646.272156,717.734192 647.642700,713.500671 649.047180,709.278503 
	C659.434021,678.053223 669.797852,646.820374 680.237305,615.612732 
	C683.378296,606.223145 686.652222,596.875122 690.083801,587.588867 
	C690.603699,586.181946 692.294128,584.230835 693.484680,584.201172 
	C704.113586,583.936646 714.751831,584.047058 726.408447,584.047058 
	C723.925293,590.903015 721.805786,597.051331 719.481384,603.121155 
	C709.681213,628.711670 699.975891,654.340210 689.934937,679.836304 
	C680.862976,702.872131 671.524658,725.805420 662.070190,748.687439 
	C654.163757,767.822815 645.214905,786.425781 633.295837,803.496887 
	C623.139587,818.043274 609.994080,829.011475 594.434021,837.258362 
	C593.145935,837.940979 591.712097,838.348633 589.976807,839.009460 
z"/>
<path fill="#4E4E4E" opacity="1.000000" stroke="none" 
	d="
M269.761414,743.733643 
	C259.745148,754.984985 247.716492,762.316284 233.347733,765.389832 
	C214.343521,769.454895 196.041046,766.882446 180.262634,755.474487 
	C169.942200,748.012695 163.487976,736.890686 160.005432,724.346558 
	C156.160828,710.498291 155.095871,696.324890 155.038025,682.066772 
	C154.914291,651.569275 155.080688,621.070374 154.910110,590.573242 
	C154.885971,586.256714 155.961380,584.689087 160.472290,584.901855 
	C168.121445,585.262634 175.810638,585.243774 183.462021,584.907227 
	C187.857132,584.713989 189.120850,586.071289 189.096573,590.501709 
	C188.916733,623.331970 188.798660,656.165649 189.118805,688.993774 
	C189.218689,699.237000 191.089127,709.290527 195.827576,718.738342 
	C202.149445,731.343262 212.514954,737.183228 226.048370,737.951965 
	C248.437454,739.223877 270.063873,723.079651 273.096375,698.342896 
	C273.477875,695.230957 273.956879,692.100464 273.962769,688.977722 
	C274.025635,655.646606 274.102570,622.314758 273.891602,588.984802 
	C273.860718,584.112061 275.244324,582.643860 280.053894,582.894348 
	C287.533203,583.283936 295.049377,583.094360 302.546265,582.954651 
	C305.585571,582.898010 307.060394,583.598755 307.052521,587.073914 
	C306.959167,628.237732 306.989014,669.401855 306.991058,710.565857 
	C306.991760,724.981018 306.949219,739.396667 307.061249,753.811035 
	C307.082642,756.561829 307.736511,759.307678 308.165710,762.565369 
	C298.038605,762.565369 288.476288,762.565369 278.237549,762.565369 
	C277.543732,754.148987 276.847961,745.709412 276.056641,736.110352 
	C273.521088,739.201233 271.765289,741.341553 269.761414,743.733643 
z"/>
<path fill="#616262" opacity="1.000000" stroke="none" 
	d="
M168.985779,189.309845 
	C174.975922,208.760788 172.168747,226.672150 160.922729,242.906784 
	C147.829697,261.807739 129.036682,270.637878 106.385422,268.766296 
	C78.726959,266.480957 56.536503,247.320862 52.416149,218.615097 
	C48.702995,192.746185 57.233265,170.851746 82.381897,156.366943 
	C103.623940,144.132217 129.950836,146.824707 149.269516,161.551834 
	C158.792099,168.811142 163.937042,178.691086 168.985779,189.309845 
z"/>
<path fill="#4E4E4E" opacity="1.000000" stroke="none" 
	d="
M780.000000,664.000000 
	C779.999451,647.003174 779.887878,630.505005 780.079102,614.010376 
	C780.124878,610.064941 778.909180,608.752808 774.974243,608.926086 
	C768.654541,609.204529 762.310364,608.880188 755.982483,609.041077 
	C752.909729,609.119202 751.878723,607.937256 751.961182,604.947998 
	C752.117371,599.286682 752.131165,593.614258 751.957397,587.954041 
	C751.862061,584.847839 753.121277,583.895691 756.077515,583.962524 
	C762.406311,584.105835 768.752563,583.765137 775.068665,584.082458 
	C779.173462,584.288757 780.133911,582.679260 780.067505,578.893311 
	C779.871643,567.732239 780.064209,556.564819 779.957458,545.401306 
	C779.930176,542.550110 780.552002,540.710083 783.671753,540.011108 
	C793.312744,537.851318 802.913208,535.510681 813.009460,533.126831 
	C813.009460,546.755249 813.009460,560.214844 813.009521,573.674438 
	C813.009521,584.005981 813.009521,584.005371 823.206238,584.006409 
	C833.704224,584.007507 844.203491,584.101685 854.699463,583.956970 
	C857.920471,583.912598 859.156677,584.959839 859.047363,588.248596 
	C858.853760,594.074341 858.854553,599.915771 859.048584,605.741516 
	C859.157349,609.008118 857.972473,610.089600 854.727661,610.053040 
	C842.564819,609.915955 830.396179,610.166504 818.237122,609.914673 
	C814.031189,609.827515 812.909424,611.202271 812.927917,615.303406 
	C813.073730,647.629883 812.805786,679.959351 813.126587,712.283325 
	C813.218262,721.517395 815.354004,730.531433 824.375000,735.771240 
	C830.530396,739.346619 837.243958,739.575256 844.103455,738.534424 
	C847.799927,737.973633 851.510742,737.507507 855.793274,736.919189 
	C856.211975,744.573730 856.752319,751.635681 856.850403,758.703735 
	C856.869202,760.064270 855.382446,762.394043 854.202393,762.680847 
	C836.422852,767.001892 818.715027,769.326172 801.597717,759.883057 
	C789.156616,753.019775 784.905090,740.980530 780.939697,728.547119 
	C777.329224,717.226562 780.199524,705.842346 780.031067,694.494202 
	C779.882690,684.498230 780.000000,674.498230 780.000000,664.000000 
z"/>
<path fill="#4E4E4E" opacity="1.000000" stroke="none" 
	d="
M96.044022,767.156250 
	C95.179916,780.765686 90.616287,792.835815 84.334122,804.150879 
	C72.436539,825.580139 52.637604,834.324280 29.374023,837.048035 
	C28.067919,837.200989 26.802345,837.675476 25.499199,837.882629 
	C19.469696,838.841431 18.525402,837.947021 17.942654,831.844727 
	C17.440653,826.588013 16.928932,821.287354 15.768602,816.153809 
	C14.970738,812.623718 16.384396,811.984619 19.189089,812.016907 
	C28.484236,812.123962 36.568768,808.621094 44.358650,803.931580 
	C54.035336,798.106201 58.280926,788.835815 59.780060,778.434204 
	C61.474190,766.679565 62.784550,754.758545 62.860310,742.900940 
	C63.187016,691.764954 62.998451,640.625671 63.002399,589.487549 
	C63.002899,583.017151 63.016411,583.010681 69.542053,583.003662 
	C76.538139,582.996216 83.548500,583.273315 90.525208,582.905640 
	C95.025703,582.668518 96.110306,584.238098 96.090042,588.562500 
	C95.927635,623.208984 95.999733,657.856689 95.999977,692.503967 
	C96.000084,706.995850 95.888466,721.489014 96.044235,735.979187 
	C96.129753,743.934387 96.754295,751.882568 96.942833,759.838501 
	C96.996849,762.118225 96.377304,764.413879 96.044022,767.156250 
z"/>
<path fill="#4E4E4E" opacity="1.000000" stroke="none" 
	d="
M1124.000000,720.000000 
	C1123.998657,732.822754 1123.898804,745.146851 1124.059326,757.467468 
	C1124.104248,760.923218 1123.008301,762.147949 1119.503052,762.060364 
	C1111.348389,761.856506 1103.183716,761.901794 1095.026489,762.039917 
	C1092.013794,762.090942 1090.956299,761.034058 1090.962036,757.997681 
	C1091.034546,719.697327 1090.923828,681.396484 1091.059937,643.096497 
	C1091.112549,628.318176 1091.745972,613.542542 1091.943115,598.763489 
	C1091.989014,595.314514 1091.362671,591.853516 1090.996948,588.403198 
	C1090.669189,585.311523 1091.703003,583.856079 1095.116699,583.946289 
	C1102.438599,584.139832 1109.771729,584.116638 1117.095215,583.955994 
	C1120.248169,583.886841 1121.068115,585.229858 1121.035156,588.125305 
	C1120.924072,597.883423 1120.992798,607.643616 1120.992798,616.933105 
	C1124.611572,611.187439 1127.965454,605.030151 1132.110596,599.461609 
	C1139.725586,589.231750 1150.549683,583.821777 1162.732056,581.149170 
	C1167.050781,580.201599 1171.615723,580.404541 1176.060059,579.992432 
	C1179.178101,579.703369 1180.088379,581.153564 1180.036621,584.090637 
	C1179.904785,591.581848 1179.841187,599.081482 1180.061768,606.568604 
	C1180.167236,610.151489 1178.776245,611.064941 1175.406128,611.063416 
	C1164.125610,611.058350 1153.298950,613.143188 1144.028076,620.039856 
	C1134.028687,627.478516 1128.012817,637.424744 1125.974121,649.829285 
	C1122.306885,672.143127 1124.705933,694.614014 1124.003296,717.002380 
	C1123.977173,717.834106 1124.000000,718.667419 1124.000000,720.000000 
z"/>
<path fill="#000000" opacity="1.000000" stroke="none" 
	d="
M494.009735,713.959106 
	C480.417847,739.406006 451.151947,746.600159 427.684875,735.063660 
	C412.439301,727.568909 402.304413,715.047607 401.169678,697.555359 
	C400.217651,682.878967 399.683929,667.944458 401.327820,653.391113 
	C403.234344,636.512512 412.406464,622.932556 427.801788,614.879272 
	C434.575775,611.335815 442.155670,608.206604 449.639496,607.403503 
	C461.690826,606.110168 472.873413,610.227661 481.996979,618.535278 
	C495.981781,631.269470 501.983337,647.492737 503.133484,666.157104 
	C504.163086,682.864319 502.076569,698.726807 494.009735,713.959106 
z"/>
<path fill="#000000" opacity="1.000000" stroke="none" 
	d="
M1006.011963,623.078735 
	C1011.303833,631.390991 1013.589050,640.220337 1013.997681,649.621216 
	C1014.119690,652.428650 1013.151367,654.015747 1010.041504,654.008972 
	C980.405151,653.944641 950.768616,653.931763 921.132141,653.887817 
	C920.828979,653.887329 920.526123,653.669006 919.924683,653.437561 
	C919.748230,643.285950 923.468140,634.472107 929.057739,626.083374 
	C938.328918,612.169373 951.580139,604.649475 967.744080,603.265564 
	C978.648315,602.331970 988.892334,606.178711 997.219360,613.781555 
	C1000.281006,616.576843 1003.005920,619.740967 1006.011963,623.078735 
z"/>
</svg>