<svg version="1.1" id="Layer_1" xmlns="http://www.w3.org/2000/svg" xmlns:xlink="http://www.w3.org/1999/xlink" x="0px" y="0px"
	 width="100%" viewBox="0 0 800 533" enable-background="new 0 0 800 533" xml:space="preserve">
<path fill="#2E2924" opacity="1.000000" stroke="none" 
	d="
M510.000000,534.000000 
	C340.000000,534.000000 170.500000,534.000000 1.000000,534.000000 
	C1.000000,356.333344 1.000000,178.666672 1.000000,1.000000 
	C267.666656,1.000000 534.333313,1.000000 801.000000,1.000000 
	C801.000000,178.666672 801.000000,356.333344 801.000000,534.000000 
	C704.166687,534.000000 607.333313,534.000000 510.000000,534.000000 
M611.599609,293.407318 
	C611.724548,284.064087 611.885803,274.720947 611.907043,265.377472 
	C611.908813,264.610962 610.957581,263.842285 610.119568,262.816986 
	C610.050598,262.544159 609.941650,262.288330 609.802429,261.352112 
	C605.833069,254.105896 600.612183,251.644913 591.485535,252.718048 
	C583.727905,253.630234 579.078674,257.534302 576.941711,265.140442 
	C579.046570,266.534760 581.225769,267.978333 583.415283,269.428741 
	C587.720154,261.733185 590.976074,259.673645 596.853210,261.056793 
	C600.669006,261.954865 602.346924,264.434692 601.913391,267.790070 
	C595.290405,269.850922 588.828064,271.389343 582.768250,273.899567 
	C578.072632,275.844666 576.078613,280.149261 576.695923,285.372803 
	C577.266113,290.197327 580.821045,294.603760 585.614563,295.634888 
	C591.603088,296.923096 597.493591,296.744232 602.378357,292.585449 
	C604.643311,296.378448 607.557007,295.581604 610.852783,293.802124 
	C610.852783,293.802124 611.013123,294.003662 611.599609,293.407318 
M242.788147,221.069443 
	C241.175064,221.099976 239.561996,221.130493 237.034485,221.351318 
	C233.553009,221.329468 230.071579,221.295410 226.590073,221.287689 
	C199.405655,221.227402 172.221222,221.172180 144.557144,220.545715 
	C142.685272,220.953598 140.813416,221.361481 139.125977,221.920502 
	C139.125977,221.920502 139.077423,222.153946 138.288315,222.115662 
	C115.256104,227.312912 99.133881,248.043304 101.270638,269.714020 
	C103.844696,295.819611 122.674553,312.891235 149.011978,312.922180 
	C176.809540,312.954834 204.611923,312.655457 232.401245,313.135468 
	C238.788177,313.245789 244.604797,312.160675 250.428040,310.247223 
	C269.757446,303.895844 282.701965,283.829651 280.923615,263.202759 
	C279.132111,242.423416 262.856506,224.811707 242.903397,221.882141 
	C242.903397,221.882141 243.062576,221.711487 242.788147,221.069443 
M326.156433,239.495529 
	C323.322845,239.570663 320.489227,239.645782 316.899963,240.262436 
	C316.612885,241.016144 316.077881,241.768982 316.075226,242.523682 
	C316.018311,258.636017 315.988831,274.748688 316.081757,290.860596 
	C316.088226,291.989258 317.086304,293.112213 318.181335,294.730927 
	C330.689392,294.730927 343.197479,294.730927 355.939972,294.730927 
	C355.939972,291.843506 355.939972,289.066895 355.433350,285.619537 
	C347.857513,285.417328 340.279175,285.008392 332.706940,285.100800 
	C328.965820,285.146454 327.862213,283.922577 327.924225,280.247437 
	C328.122467,268.491730 328.045288,256.730164 327.944336,244.971939 
	C327.929749,243.274643 327.201416,241.583466 326.156433,239.495529 
M400.507294,294.612457 
	C403.248291,294.934387 405.989319,295.256287 409.120270,295.623962 
	C409.120270,290.710144 409.120178,287.078461 409.120270,283.446747 
	C409.120361,279.631805 409.017365,275.813477 409.142517,272.002625 
	C409.395264,264.307526 415.247223,259.432983 422.396851,261.079681 
	C425.015472,261.682770 427.789398,262.650543 427.060059,267.422119 
	C427.037079,273.917694 426.914185,280.415283 427.043488,286.907837 
	C427.090942,289.293030 427.734741,291.666412 428.688446,294.566956 
	C431.588409,294.463623 434.488403,294.360260 438.132843,293.715698 
	C438.334808,285.260864 438.556671,276.806305 438.675812,268.350342 
	C438.681366,267.955566 437.769928,267.547882 437.053741,266.475555 
	C434.382812,253.056274 422.026184,248.352081 409.443878,255.880280 
	C407.108856,251.748795 403.299408,254.379700 399.581848,254.445023 
	C399.450958,267.233368 399.312317,280.021637 399.225250,292.810272 
	C399.222565,293.209564 399.753632,293.612488 400.507294,294.612457 
M662.171936,241.895416 
	C662.171936,259.479614 662.171936,277.063812 662.171936,294.737793 
	C665.634277,294.737793 668.639587,294.737793 671.968811,294.737793 
	C671.968811,286.379547 671.764038,278.408417 672.037292,270.453705 
	C672.235535,264.680908 675.741760,261.326691 680.998596,261.029633 
	C686.293823,260.730377 689.888489,263.714966 690.763306,269.541779 
	C691.179871,272.316193 691.071533,275.178070 691.093567,278.001190 
	C691.137268,283.605530 691.106506,289.210480 691.106506,295.690125 
	C694.865112,295.043671 697.969421,294.509735 701.624573,293.357971 
	C701.742310,285.175964 701.911804,276.993958 701.905334,268.812012 
	C701.904602,267.897644 700.904236,266.984070 700.096008,265.434143 
	C697.661804,261.658478 696.040710,256.694153 692.623047,254.356201 
	C685.650757,249.586563 678.154114,252.214157 670.654053,256.598694 
	C670.654053,250.337494 670.654053,244.956360 670.654053,238.951447 
	C667.390320,239.348236 664.688721,239.676682 661.705017,240.207825 
	C661.635681,240.298660 661.488892,240.440063 661.509705,240.471970 
	C661.630066,240.656174 661.789856,240.814560 662.171936,241.895416 
M481.212372,253.761765 
	C478.146332,254.021851 474.373016,251.722122 472.613251,256.280945 
	C461.603424,248.587051 446.796478,252.922012 443.553589,265.442017 
	C442.094055,271.077057 442.202942,277.809479 443.814056,283.406738 
	C447.310883,295.555511 460.975006,299.606354 472.118561,293.011871 
	C472.322876,293.167908 472.527161,293.323914 472.794128,294.233185 
	C471.824463,298.853912 469.401550,302.219910 464.497925,302.977814 
	C459.196075,303.797333 454.193146,303.390900 451.304504,297.876556 
	C448.534302,298.778412 446.040741,299.590179 443.557678,300.398560 
	C445.527130,307.250824 454.820862,313.561523 461.419830,312.732880 
	C472.582703,311.331116 478.610046,306.297394 482.262939,295.460968 
	C482.505096,294.698975 482.955200,293.937775 482.958252,293.174835 
	C483.005890,281.150696 483.022247,269.126160 482.953217,257.102264 
	C482.947205,256.056763 482.291565,255.015030 481.212372,253.761765 
M507.920288,286.117371 
	C499.721619,280.804443 496.634430,271.065033 499.517273,259.607849 
	C501.930084,250.018661 509.393280,245.288803 519.065979,247.153687 
	C524.930481,248.284378 528.055725,252.382217 530.258606,257.615662 
	C533.289795,257.109650 536.135864,256.634552 539.022095,256.152771 
	C534.834229,239.815201 520.038147,236.094223 507.229919,239.633820 
	C494.957581,243.025299 488.059143,255.068069 489.116180,269.992249 
	C490.528931,289.937531 507.955170,301.338989 525.823547,294.008667 
	C536.278503,289.719604 542.854797,276.835144 540.003479,266.440735 
	C533.732178,266.440735 527.506470,266.440735 521.417603,266.440735 
	C521.417603,268.780121 521.417603,270.708374 521.417603,273.081116 
	C524.742981,273.081116 527.796692,273.081116 530.884521,273.081116 
	C529.142212,285.920746 521.835510,289.131866 507.920288,286.117371 
M656.473572,280.654755 
	C658.170044,271.108154 657.128479,262.255554 648.979736,255.822723 
	C641.665344,250.048523 633.961304,251.078812 626.543457,255.644821 
	C624.506958,251.085236 621.058716,254.002197 618.238220,253.394623 
	C618.238220,273.692657 618.238220,293.558868 618.238220,313.592834 
	C621.296143,313.592834 624.073547,313.592834 627.386536,313.592834 
	C627.386536,308.726837 627.521851,303.931885 627.343262,299.148621 
	C627.203308,295.398956 628.578979,294.639404 632.147888,295.443542 
	C644.394897,298.203064 652.111572,293.615234 656.473572,280.654755 
M370.843109,253.156754 
	C364.750366,254.792923 360.707550,258.522308 358.793518,265.019135 
	C361.002258,266.472778 363.175568,267.903107 365.355103,269.337524 
	C370.278412,261.524994 373.984589,259.390656 379.569794,261.211914 
	C383.055115,262.348419 384.501678,264.813873 383.971344,267.817902 
	C377.362366,269.850555 371.011780,271.281647 365.109955,273.774963 
	C359.869141,275.989044 357.971313,280.832428 358.917725,286.158783 
	C359.788696,291.060852 363.870331,295.197998 369.018127,295.941589 
	C374.582275,296.745392 380.011078,296.392273 384.893005,292.375580 
	C386.140533,299.284637 389.985138,293.955933 392.905579,294.817230 
	C392.905579,284.946869 393.142029,275.622314 392.832550,266.315918 
	C392.573975,258.540405 387.767365,253.634201 380.078705,252.802567 
	C377.300079,252.502029 374.446686,252.892639 370.843109,253.156754 
M557.469849,294.752045 
	C557.648987,288.810547 557.938660,282.869904 557.983704,276.927399 
	C558.070190,265.497864 560.591980,262.577301 571.819092,261.413849 
	C571.819092,259.005737 571.819092,256.586395 571.819092,253.926880 
	C565.785767,253.059082 561.052673,255.028976 557.008179,260.197449 
	C556.872009,257.638855 556.780212,255.913162 556.684143,254.108978 
	C554.025757,254.108978 551.765930,254.108978 549.448181,254.108978 
	C549.448181,268.138306 549.448181,281.960449 549.448181,296.323456 
	C552.160400,295.795654 554.374023,295.364868 557.469849,294.752045 
z"/>
<path fill="#CDFDEC" opacity="1.000000" stroke="none" 
	d="
M242.949219,222.110931 
	C262.856506,224.811707 279.132111,242.423416 280.923615,263.202759 
	C282.701965,283.829651 269.757446,303.895844 250.428040,310.247223 
	C244.604797,312.160675 238.788177,313.245789 232.401245,313.135468 
	C204.611923,312.655457 176.809540,312.954834 149.011978,312.922180 
	C122.674553,312.891235 103.844696,295.819611 101.270638,269.714020 
	C99.133881,248.043304 115.256104,227.312912 139.004456,222.385559 
	C140.368591,222.767883 141.016541,222.978271 141.664612,222.978638 
	C174.177963,222.996933 206.691360,223.007111 239.204666,222.961990 
	C240.453232,222.960266 241.701050,222.407135 242.949219,222.110931 
M178.898422,288.415833 
	C181.887131,293.553314 186.665985,293.234436 190.983658,293.015503 
	C188.183228,287.955292 185.689804,282.847626 182.643997,278.093903 
	C178.549423,271.703339 174.122849,265.517426 169.662735,259.371460 
	C165.601395,253.774979 161.039856,248.527191 157.189163,242.796234 
	C153.570801,237.411087 147.522629,234.443604 142.418610,236.400070 
	C137.897964,238.132935 133.497604,246.691223 134.485550,251.829102 
	C139.039490,249.436340 143.540482,251.146362 145.020767,255.907959 
	C145.561615,257.647766 145.729858,259.507782 146.316498,261.228241 
	C148.013504,266.205139 148.727142,272.066589 151.892883,275.853638 
	C155.799820,280.527283 157.969193,285.273193 158.745804,291.857574 
	C154.906235,292.190765 151.022446,292.527802 146.354553,292.932892 
	C151.744858,296.023163 151.733597,295.985504 156.774475,294.478271 
	C157.659943,294.213501 159.120087,293.989960 159.578079,294.462067 
	C165.257111,300.316162 171.151779,294.746155 177.001114,294.551453 
	C174.946442,294.131714 172.891769,293.711975 170.817886,293.288330 
	C171.524704,290.500244 172.074478,288.331635 172.700195,285.863434 
	C174.582382,286.621155 176.394699,287.350769 178.898422,288.415833 
M217.441330,278.570984 
	C218.290634,277.908447 219.139923,277.245911 220.022629,276.557312 
	C219.166672,275.260925 218.364899,274.365570 217.935974,273.317596 
	C217.378891,271.956543 216.362289,269.928589 216.908035,269.172119 
	C217.720627,268.045807 219.681778,267.427460 221.235123,267.230194 
	C223.658340,266.922485 226.149368,267.148773 228.611664,267.148773 
	C228.902771,266.731567 229.193893,266.314331 229.485016,265.897125 
	C228.514893,265.077606 227.656631,263.832733 226.547684,263.541138 
	C224.995010,263.132812 223.223267,263.636078 221.605133,263.376282 
	C219.977158,263.114899 217.736389,262.833344 217.044296,261.745911 
	C216.448441,260.809662 217.527512,258.677490 218.106033,257.165985 
	C218.547409,256.012787 219.364426,255.003387 220.091537,253.802567 
	C218.870575,253.073853 217.960449,252.530655 216.990082,251.951492 
	C214.616837,255.248398 213.200180,258.546326 208.216003,258.359802 
	C204.773895,258.230957 202.593353,261.690125 202.684982,265.469360 
	C202.775986,269.221649 204.936356,272.415009 208.506958,272.411835 
	C213.103088,272.407745 214.697647,275.306732 217.441330,278.570984 
M233.779694,266.881256 
	C235.097061,271.473236 238.209534,273.508148 242.813553,272.544525 
	C246.742401,271.722198 248.668289,268.904358 248.498886,264.873077 
	C248.319321,260.600555 245.587097,258.603180 240.436783,257.781860 
	C238.722427,257.508453 236.854431,255.862610 235.794373,254.332947 
	C233.883865,251.576141 232.694244,252.133453 231.073120,254.749802 
	C235.709793,257.722900 234.554916,261.967865 233.779694,266.881256 
M231.681808,282.979858 
	C228.652344,279.481537 225.006348,278.559418 221.151306,281.234009 
	C217.981369,283.433258 216.978424,286.672455 218.712158,290.381226 
	C220.475327,294.152985 224.509827,295.790314 228.195786,294.286804 
	C232.451859,292.550751 233.732651,289.055634 231.681808,282.979858 
M222.961395,250.184891 
	C224.116562,250.115814 225.444351,250.387924 226.391922,249.908524 
	C228.542480,248.820511 231.673676,247.739716 232.248474,245.959366 
	C232.959381,243.757462 232.192673,240.357468 230.799362,238.355484 
	C228.312759,234.782562 222.843399,235.079391 219.880630,238.292908 
	C216.623138,241.826080 217.488174,246.333481 222.961395,250.184891 
z"/>
<path fill="#CBF7E8" opacity="1.000000" stroke="none" 
	d="
M481.547699,295.923187 
	C478.610046,306.297394 472.582703,311.331116 461.419830,312.732880 
	C454.820862,313.561523 445.527130,307.250824 443.557678,300.398560 
	C446.040741,299.590179 448.534302,298.778412 451.304504,297.876556 
	C454.193146,303.390900 459.196075,303.797333 464.497925,302.977814 
	C469.401550,302.219910 471.824463,298.853912 472.864227,293.557281 
	C472.468658,292.755920 472.002960,292.630463 471.537292,292.505005 
	C460.975006,299.606354 447.310883,295.555511 443.814056,283.406738 
	C442.202942,277.809479 442.094055,271.077057 443.553589,265.442017 
	C446.796478,252.922012 461.603424,248.587051 472.613251,256.280945 
	C474.373016,251.722122 478.146332,254.021851 481.566772,254.337311 
	C481.796692,268.582977 481.672180,282.253082 481.547699,295.923187 
M470.850037,282.949036 
	C471.154053,277.755066 472.134216,272.481628 471.536346,267.393616 
	C471.101044,263.689148 467.718201,261.362885 463.616150,260.937958 
	C454.854340,260.030304 449.854980,266.226624 450.989014,276.704254 
	C451.481323,281.252808 453.136597,285.246582 457.797913,286.827881 
	C462.534058,288.434509 467.001862,287.884552 470.850037,282.949036 
z"/>
<path fill="#CCF8E9" opacity="1.000000" stroke="none" 
	d="
M508.288025,286.295135 
	C521.835510,289.131866 529.142212,285.920746 530.884521,273.081116 
	C527.796692,273.081116 524.742981,273.081116 521.417603,273.081116 
	C521.417603,270.708374 521.417603,268.780121 521.417603,266.440735 
	C527.506470,266.440735 533.732178,266.440735 540.003479,266.440735 
	C542.854797,276.835144 536.278503,289.719604 525.823547,294.008667 
	C507.955170,301.338989 490.528931,289.937531 489.116180,269.992249 
	C488.059143,255.068069 494.957581,243.025299 507.229919,239.633820 
	C520.038147,236.094223 534.834229,239.815201 539.022095,256.152771 
	C536.135864,256.634552 533.289795,257.109650 530.258606,257.615662 
	C528.055725,252.382217 524.930481,248.284378 519.065979,247.153687 
	C509.393280,245.288803 501.930084,250.018661 499.517273,259.607849 
	C496.634430,271.065033 499.721619,280.804443 508.288025,286.295135 
z"/>
<path fill="#CDFAEB" opacity="1.000000" stroke="none" 
	d="
M656.368591,281.059875 
	C652.111572,293.615234 644.394897,298.203064 632.147888,295.443542 
	C628.578979,294.639404 627.203308,295.398956 627.343262,299.148621 
	C627.521851,303.931885 627.386536,308.726837 627.386536,313.592834 
	C624.073547,313.592834 621.296143,313.592834 618.238220,313.592834 
	C618.238220,293.558868 618.238220,273.692657 618.238220,253.394623 
	C621.058716,254.002197 624.506958,251.085236 626.543457,255.644821 
	C633.961304,251.078812 641.665344,250.048523 648.979736,255.822723 
	C657.128479,262.255554 658.170044,271.108154 656.368591,281.059875 
M647.185303,275.357635 
	C646.479736,271.994568 646.325989,268.382050 644.944031,265.324768 
	C642.664185,260.281372 637.641479,260.161163 633.268738,261.310089 
	C630.988953,261.909119 628.015564,264.620300 627.645630,266.771301 
	C626.812500,271.615906 626.759766,276.833191 627.706421,281.639374 
	C628.144653,283.864166 631.464905,286.784119 633.820557,287.142792 
	C642.557983,288.473083 645.903870,285.369690 647.185303,275.357635 
z"/>
<path fill="#CAF5E7" opacity="1.000000" stroke="none" 
	d="
M701.073730,293.975800 
	C697.969421,294.509735 694.865112,295.043671 691.106506,295.690125 
	C691.106506,289.210480 691.137268,283.605530 691.093567,278.001190 
	C691.071533,275.178070 691.179871,272.316193 690.763306,269.541779 
	C689.888489,263.714966 686.293823,260.730377 680.998596,261.029633 
	C675.741760,261.326691 672.235535,264.680908 672.037292,270.453705 
	C671.764038,278.408417 671.968811,286.379547 671.968811,294.737793 
	C668.639587,294.737793 665.634277,294.737793 662.171936,294.737793 
	C662.171936,277.063812 662.171936,259.479614 662.101929,241.196243 
	C662.031921,240.497070 661.987122,240.005112 661.987122,240.005127 
	C664.688721,239.676682 667.390320,239.348236 670.654053,238.951447 
	C670.654053,244.956360 670.654053,250.337494 670.654053,256.598694 
	C678.154114,252.214157 685.650757,249.586563 692.623047,254.356201 
	C696.040710,256.694153 697.661804,261.658478 700.246399,266.219360 
	C700.622437,275.994965 700.848083,284.985382 701.073730,293.975800 
z"/>
<path fill="#CCF8E9" opacity="1.000000" stroke="none" 
	d="
M371.235260,253.062317 
	C374.446686,252.892639 377.300079,252.502029 380.078705,252.802567 
	C387.767365,253.634201 392.573975,258.540405 392.832550,266.315918 
	C393.142029,275.622314 392.905579,284.946869 392.905579,294.817230 
	C389.985138,293.955933 386.140533,299.284637 384.893005,292.375580 
	C380.011078,296.392273 374.582275,296.745392 369.018127,295.941589 
	C363.870331,295.197998 359.788696,291.060852 358.917725,286.158783 
	C357.971313,280.832428 359.869141,275.989044 365.109955,273.774963 
	C371.011780,271.281647 377.362366,269.850555 383.971344,267.817902 
	C384.501678,264.813873 383.055115,262.348419 379.569794,261.211914 
	C373.984589,259.390656 370.278412,261.524994 365.355103,269.337524 
	C363.175568,267.903107 361.002258,266.472778 358.793518,265.019135 
	C360.707550,258.522308 364.750366,254.792923 371.235260,253.062317 
M384.132568,279.536499 
	C384.020508,278.450714 383.908447,277.364929 383.763977,275.965179 
	C379.397003,277.092560 375.264648,277.835571 371.413757,279.312500 
	C369.867584,279.905487 368.381317,281.960144 367.928955,283.635956 
	C367.632294,284.735046 368.887634,286.899078 370.050140,287.635864 
	C375.496704,291.087830 383.376373,286.911133 384.132568,279.536499 
z"/>
<path fill="#CCF9EA" opacity="1.000000" stroke="none" 
	d="
M610.622070,293.916687 
	C607.557007,295.581604 604.643311,296.378448 602.378357,292.585449 
	C597.493591,296.744232 591.603088,296.923096 585.614563,295.634888 
	C580.821045,294.603760 577.266113,290.197327 576.695923,285.372803 
	C576.078613,280.149261 578.072632,275.844666 582.768250,273.899567 
	C588.828064,271.389343 595.290405,269.850922 601.913391,267.790070 
	C602.346924,264.434692 600.669006,261.954865 596.853210,261.056793 
	C590.976074,259.673645 587.720154,261.733185 583.415283,269.428741 
	C581.225769,267.978333 579.046570,266.534760 576.941711,265.140442 
	C579.078674,257.534302 583.727905,253.630234 591.485535,252.718048 
	C600.612183,251.644913 605.833069,254.105896 609.561707,262.034729 
	C609.215393,272.234375 609.066467,281.751434 609.075928,291.268433 
	C609.076843,292.151672 610.082764,293.033966 610.622070,293.916687 
M600.801941,284.978607 
	C601.362915,282.180023 601.923889,279.381470 602.667114,275.673828 
	C597.291199,277.110352 592.893494,277.907257 588.847351,279.563202 
	C587.344910,280.178101 585.676758,282.947906 585.894775,284.476837 
	C586.107361,285.967621 588.717041,288.302612 590.125732,288.201263 
	C593.541443,287.955566 596.870605,286.508301 600.801941,284.978607 
z"/>
<path fill="#CAF5E7" opacity="1.000000" stroke="none" 
	d="
M437.388367,294.256897 
	C434.488403,294.360260 431.588409,294.463623 428.467438,293.838684 
	C428.264404,286.033234 428.364258,278.954590 428.244263,271.879730 
	C428.213257,270.050385 427.492859,268.232697 427.089172,266.409668 
	C427.789398,262.650543 425.015472,261.682770 422.396851,261.079681 
	C415.247223,259.432983 409.395264,264.307526 409.142517,272.002625 
	C409.017365,275.813477 409.120361,279.631805 409.120270,283.446747 
	C409.120178,287.078461 409.120270,290.710144 409.120270,295.623962 
	C405.989319,295.256287 403.248291,294.934387 400.345276,293.848389 
	C400.194336,280.002289 400.205383,266.920258 400.216431,253.838242 
	C403.299408,254.379700 407.108856,251.748795 409.443878,255.880280 
	C422.026184,248.352081 434.382812,253.056274 437.124939,267.268066 
	C437.260223,276.792664 437.324310,285.524780 437.388367,294.256897 
z"/>
<path fill="#C8F2E4" opacity="1.000000" stroke="none" 
	d="
M355.939972,286.290283 
	C355.939972,289.066895 355.939972,291.843506 355.939972,294.730927 
	C343.197479,294.730927 330.689392,294.730927 317.978546,294.001648 
	C317.735718,275.421875 317.695679,257.571381 317.655640,239.720901 
	C320.489227,239.645782 323.322845,239.570663 326.437866,240.168503 
	C326.719299,255.866394 326.719299,270.891327 326.719299,286.290283 
	C336.786194,286.290283 346.363068,286.290283 355.939972,286.290283 
z"/>
<path fill="#CDFAEB" opacity="1.000000" stroke="none" 
	d="
M557.028748,294.843079 
	C554.374023,295.364868 552.160400,295.795654 549.448181,296.323456 
	C549.448181,281.960449 549.448181,268.138306 549.448181,254.108978 
	C551.765930,254.108978 554.025757,254.108978 556.684143,254.108978 
	C556.780212,255.913162 556.872009,257.638855 557.008179,260.197449 
	C561.052673,255.028976 565.785767,253.059082 571.819092,253.926880 
	C571.819092,256.586395 571.819092,259.005737 571.819092,261.413849 
	C560.591980,262.577301 558.070190,265.497864 557.983704,276.927399 
	C557.938660,282.869904 557.648987,288.810547 557.028748,294.843079 
z"/>
<path fill="#DBFFFC" opacity="1.000000" stroke="none" 
	d="
M242.926300,221.996536 
	C241.701050,222.407135 240.453232,222.960266 239.204666,222.961990 
	C206.691360,223.007111 174.177963,222.996933 141.664612,222.978638 
	C141.016541,222.978271 140.368591,222.767883 139.399017,222.404709 
	C139.077423,222.153946 139.125977,221.920502 139.418091,221.862213 
	C141.485748,221.574417 143.261276,221.344894 145.036804,221.115387 
	C172.221222,221.172180 199.405655,221.227402 226.590073,221.287689 
	C230.071579,221.295410 233.553009,221.329468 237.838501,221.387589 
	C240.115860,221.519730 241.589218,221.615601 243.062576,221.711487 
	C243.062576,221.711487 242.903397,221.882141 242.926300,221.996536 
z"/>
<path fill="#140A03" opacity="1.000000" stroke="none" 
	d="
M355.686646,285.954895 
	C346.363068,286.290283 336.786194,286.290283 326.719299,286.290283 
	C326.719299,270.891327 326.719299,255.866394 326.761353,240.365479 
	C327.201416,241.583466 327.929749,243.274643 327.944336,244.971939 
	C328.045288,256.730164 328.122467,268.491730 327.924225,280.247437 
	C327.862213,283.922577 328.965820,285.146454 332.706940,285.100800 
	C340.279175,285.008392 347.857513,285.417328 355.686646,285.954895 
z"/>
<path fill="#DBFFFC" opacity="1.000000" stroke="none" 
	d="
M610.737427,293.859436 
	C610.082764,293.033966 609.076843,292.151672 609.075928,291.268433 
	C609.066467,281.751434 609.215393,272.234375 609.556885,262.383423 
	C609.941650,262.288330 610.050598,262.544159 610.348694,263.407288 
	C610.722961,273.999634 610.868042,284.001648 611.013123,294.003662 
	C611.013123,294.003662 610.852783,293.802124 610.737427,293.859436 
z"/>
<path fill="#201A15" opacity="1.000000" stroke="none" 
	d="
M317.277802,239.991669 
	C317.695679,257.571381 317.735718,275.421875 317.699524,293.755096 
	C317.086304,293.112213 316.088226,291.989258 316.081757,290.860596 
	C315.988831,274.748688 316.018311,258.636017 316.075226,242.523682 
	C316.077881,241.768982 316.612885,241.016144 317.277802,239.991669 
z"/>
<path fill="#140A03" opacity="1.000000" stroke="none" 
	d="
M481.905334,295.692078 
	C481.672180,282.253082 481.796692,268.582977 481.929443,254.442200 
	C482.291565,255.015030 482.947205,256.056763 482.953217,257.102264 
	C483.022247,269.126160 483.005890,281.150696 482.958252,293.174835 
	C482.955200,293.937775 482.505096,294.698975 481.905334,295.692078 
z"/>
<path fill="#140A03" opacity="1.000000" stroke="none" 
	d="
M399.899139,254.141632 
	C400.205383,266.920258 400.194336,280.002289 400.109589,293.549011 
	C399.753632,293.612488 399.222565,293.209564 399.225250,292.810272 
	C399.312317,280.021637 399.450958,267.233368 399.899139,254.141632 
z"/>
<path fill="#140A03" opacity="1.000000" stroke="none" 
	d="
M611.306396,293.705505 
	C610.868042,284.001648 610.722961,273.999634 610.513489,263.536133 
	C610.957581,263.842285 611.908813,264.610962 611.907043,265.377472 
	C611.885803,274.720947 611.724548,284.064087 611.306396,293.705505 
z"/>
<path fill="#140A03" opacity="1.000000" stroke="none" 
	d="
M701.349121,293.666870 
	C700.848083,284.985382 700.622437,275.994965 700.382141,266.537354 
	C700.904236,266.984070 701.904602,267.897644 701.905334,268.812012 
	C701.911804,276.993958 701.742310,285.175964 701.349121,293.666870 
z"/>
<path fill="#140A03" opacity="1.000000" stroke="none" 
	d="
M427.074585,266.915894 
	C427.492859,268.232697 428.213257,270.050385 428.244263,271.879730 
	C428.364258,278.954590 428.264404,286.033234 428.176514,293.577820 
	C427.734741,291.666412 427.090942,289.293030 427.043488,286.907837 
	C426.914185,280.415283 427.037079,273.917694 427.074585,266.915894 
z"/>
<path fill="#201A15" opacity="1.000000" stroke="none" 
	d="
M437.760620,293.986298 
	C437.324310,285.524780 437.260223,276.792664 437.240845,267.603394 
	C437.769928,267.547882 438.681366,267.955566 438.675812,268.350342 
	C438.556671,276.806305 438.334808,285.260864 437.760620,293.986298 
z"/>
<path fill="#1A140E" opacity="1.000000" stroke="none" 
	d="
M144.796967,220.830551 
	C143.261276,221.344894 141.485748,221.574417 139.325882,221.786652 
	C140.813416,221.361481 142.685272,220.953598 144.796967,220.830551 
z"/>
<path fill="#1A140E" opacity="1.000000" stroke="none" 
	d="
M242.925354,221.390457 
	C241.589218,221.615601 240.115860,221.519730 238.295715,221.292450 
	C239.561996,221.130493 241.175064,221.099976 242.925354,221.390457 
z"/>
<path fill="#140A03" opacity="1.000000" stroke="none" 
	d="
M661.846069,240.106476 
	C661.987122,240.005112 662.031921,240.497070 661.984131,240.739380 
	C661.789856,240.814560 661.630066,240.656174 661.509705,240.471970 
	C661.488892,240.440063 661.635681,240.298660 661.846069,240.106476 
z"/>
<path fill="#2E2924" opacity="1.000000" stroke="none" 
	d="
M178.552719,288.248108 
	C176.394699,287.350769 174.582382,286.621155 172.700195,285.863434 
	C172.074478,288.331635 171.524704,290.500244 170.817886,293.288330 
	C172.891769,293.711975 174.946442,294.131714 177.001114,294.551453 
	C171.151779,294.746155 165.257111,300.316162 159.578079,294.462067 
	C159.120087,293.989960 157.659943,294.213501 156.774475,294.478271 
	C151.733597,295.985504 151.744858,296.023163 146.354553,292.932892 
	C151.022446,292.527802 154.906235,292.190765 158.745804,291.857574 
	C157.969193,285.273193 155.799820,280.527283 151.892883,275.853638 
	C148.727142,272.066589 148.013504,266.205139 146.316498,261.228241 
	C145.729858,259.507782 145.561615,257.647766 145.020767,255.907959 
	C143.540482,251.146362 139.039490,249.436340 134.485550,251.829102 
	C133.497604,246.691223 137.897964,238.132935 142.418610,236.400070 
	C147.522629,234.443604 153.570801,237.411087 157.189163,242.796234 
	C161.039856,248.527191 165.601395,253.774979 169.662735,259.371460 
	C174.122849,265.517426 178.549423,271.703339 182.643997,278.093903 
	C185.689804,282.847626 188.183228,287.955292 190.983658,293.015503 
	C186.665985,293.234436 181.887131,293.553314 178.552719,288.248108 
z"/>
<path fill="#2E2924" opacity="1.000000" stroke="none" 
	d="
M217.093658,278.383484 
	C214.697647,275.306732 213.103088,272.407745 208.506958,272.411835 
	C204.936356,272.415009 202.775986,269.221649 202.684982,265.469360 
	C202.593353,261.690125 204.773895,258.230957 208.216003,258.359802 
	C213.200180,258.546326 214.616837,255.248398 216.990082,251.951492 
	C217.960449,252.530655 218.870575,253.073853 220.091537,253.802567 
	C219.364426,255.003387 218.547409,256.012787 218.106033,257.165985 
	C217.527512,258.677490 216.448441,260.809662 217.044296,261.745911 
	C217.736389,262.833344 219.977158,263.114899 221.605133,263.376282 
	C223.223267,263.636078 224.995010,263.132812 226.547684,263.541138 
	C227.656631,263.832733 228.514893,265.077606 229.485016,265.897125 
	C229.193893,266.314331 228.902771,266.731567 228.611664,267.148773 
	C226.149368,267.148773 223.658340,266.922485 221.235123,267.230194 
	C219.681778,267.427460 217.720627,268.045807 216.908035,269.172119 
	C216.362289,269.928589 217.378891,271.956543 217.935974,273.317596 
	C218.364899,274.365570 219.166672,275.260925 220.022629,276.557312 
	C219.139923,277.245911 218.290634,277.908447 217.093658,278.383484 
z"/>
<path fill="#2E2924" opacity="1.000000" stroke="none" 
	d="
M233.730835,266.518616 
	C234.554916,261.967865 235.709793,257.722900 231.073120,254.749802 
	C232.694244,252.133453 233.883865,251.576141 235.794373,254.332947 
	C236.854431,255.862610 238.722427,257.508453 240.436783,257.781860 
	C245.587097,258.603180 248.319321,260.600555 248.498886,264.873077 
	C248.668289,268.904358 246.742401,271.722198 242.813553,272.544525 
	C238.209534,273.508148 235.097061,271.473236 233.730835,266.518616 
z"/>
<path fill="#2E2924" opacity="1.000000" stroke="none" 
	d="
M231.886047,283.319641 
	C233.732651,289.055634 232.451859,292.550751 228.195786,294.286804 
	C224.509827,295.790314 220.475327,294.152985 218.712158,290.381226 
	C216.978424,286.672455 217.981369,283.433258 221.151306,281.234009 
	C225.006348,278.559418 228.652344,279.481537 231.886047,283.319641 
z"/>
<path fill="#2E2924" opacity="1.000000" stroke="none" 
	d="
M222.547699,250.109695 
	C217.488174,246.333481 216.623138,241.826080 219.880630,238.292908 
	C222.843399,235.079391 228.312759,234.782562 230.799362,238.355484 
	C232.192673,240.357468 232.959381,243.757462 232.248474,245.959366 
	C231.673676,247.739716 228.542480,248.820511 226.391922,249.908524 
	C225.444351,250.387924 224.116562,250.115814 222.547699,250.109695 
z"/>
<path fill="#2E2924" opacity="1.000000" stroke="none" 
	d="
M470.614502,283.284607 
	C467.001862,287.884552 462.534058,288.434509 457.797913,286.827881 
	C453.136597,285.246582 451.481323,281.252808 450.989014,276.704254 
	C449.854980,266.226624 454.854340,260.030304 463.616150,260.937958 
	C467.718201,261.362885 471.101044,263.689148 471.536346,267.393616 
	C472.134216,272.481628 471.154053,277.755066 470.614502,283.284607 
z"/>
<path fill="#2E2924" opacity="1.000000" stroke="none" 
	d="
M471.827942,292.758423 
	C472.002960,292.630463 472.468658,292.755920 472.832886,293.180664 
	C472.527161,293.323914 472.322876,293.167908 471.827942,292.758423 
z"/>
<path fill="#2E2924" opacity="1.000000" stroke="none" 
	d="
M647.150269,275.794525 
	C645.903870,285.369690 642.557983,288.473083 633.820557,287.142792 
	C631.464905,286.784119 628.144653,283.864166 627.706421,281.639374 
	C626.759766,276.833191 626.812500,271.615906 627.645630,266.771301 
	C628.015564,264.620300 630.988953,261.909119 633.268738,261.310089 
	C637.641479,260.161163 642.664185,260.281372 644.944031,265.324768 
	C646.325989,268.382050 646.479736,271.994568 647.150269,275.794525 
z"/>
<path fill="#2E2924" opacity="1.000000" stroke="none" 
	d="
M384.133545,279.955505 
	C383.376373,286.911133 375.496704,291.087830 370.050140,287.635864 
	C368.887634,286.899078 367.632294,284.735046 367.928955,283.635956 
	C368.381317,281.960144 369.867584,279.905487 371.413757,279.312500 
	C375.264648,277.835571 379.397003,277.092560 383.763977,275.965179 
	C383.908447,277.364929 384.020508,278.450714 384.133545,279.955505 
z"/>
<path fill="#2E2924" opacity="1.000000" stroke="none" 
	d="
M600.518311,285.261902 
	C596.870605,286.508301 593.541443,287.955566 590.125732,288.201263 
	C588.717041,288.302612 586.107361,285.967621 585.894775,284.476837 
	C585.676758,282.947906 587.344910,280.178101 588.847351,279.563202 
	C592.893494,277.907257 597.291199,277.110352 602.667114,275.673828 
	C601.923889,279.381470 601.362915,282.180023 600.518311,285.261902 
z"/>
</svg>