<svg version="1.1" id="Layer_1" xmlns="http://www.w3.org/2000/svg" xmlns:xlink="http://www.w3.org/1999/xlink" x="0px" y="0px"
	 width="100%" viewBox="0 0 569 88" enable-background="new 0 0 569 88" xml:space="preserve">
<path fill="#FCFCFC" opacity="1.000000" stroke="none" 
	d="
M570.000000,71.000000 
	C570.000000,76.994179 570.000000,82.988350 570.000000,89.000000 
	C425.979095,89.000000 281.958221,89.000000 137.582428,88.635147 
	C138.186295,88.009438 139.136551,87.710739 140.105072,87.493301 
	C159.805145,83.070541 172.875198,68.024475 174.715500,47.637009 
	C176.317322,29.891531 165.011612,12.099764 147.421295,4.817662 
	C144.006027,3.403798 140.476715,2.265439 137.000000,0.999999 
	C281.333344,1.000000 425.666687,1.000000 570.000000,1.000000 
	C570.000000,14.754533 570.000000,28.408607 569.670105,42.387093 
	C566.023071,31.312731 555.734436,27.989180 542.895447,34.539684 
	C542.895447,29.097406 542.895447,23.871910 542.895447,18.814762 
	C540.001892,18.814762 537.560425,18.814762 534.935547,18.814762 
	C534.935547,36.301876 534.935547,53.530556 534.935547,70.875473 
	C537.697388,70.875473 540.232361,70.875473 543.013306,70.875473 
	C543.013306,63.434383 542.887634,56.291126 543.049988,49.154419 
	C543.200623,42.533939 547.345886,38.836147 554.013794,39.000801 
	C559.446472,39.134960 561.666687,41.951065 561.706726,48.922981 
	C561.748535,56.205776 561.716003,63.488998 561.716003,71.000000 
	C564.767334,71.000000 567.383667,71.000000 570.000000,71.000000 
M367.724182,46.507271 
	C367.724182,41.742043 367.724182,36.976810 367.724182,31.259499 
	C364.192657,32.129356 361.494415,32.793972 357.556915,33.763828 
	C350.893860,29.434715 340.417816,30.216015 334.651489,36.605503 
	C328.284424,43.660660 327.831757,58.528156 333.759613,65.898827 
	C339.633240,73.202057 349.048950,74.304680 359.033508,68.707214 
	C359.142365,73.591309 357.417786,77.156662 352.809784,78.965103 
	C347.666656,80.983551 342.212463,79.399429 338.092804,74.636505 
	C335.726135,75.422470 333.282196,76.234100 330.821228,77.051384 
	C334.145325,85.454834 340.207855,88.326225 351.502472,87.223877 
	C359.996552,86.394875 366.109131,81.275551 366.943146,72.899284 
	C367.780304,64.492027 367.509460,55.974438 367.724182,46.507271 
M432.821747,69.205597 
	C432.824219,61.875648 432.696564,54.542610 432.870361,47.216724 
	C433.008881,41.377556 436.334808,38.402946 441.639832,38.918346 
	C445.838318,39.326241 448.265137,42.279682 448.390564,47.847874 
	C448.562378,55.477787 448.433533,63.114475 448.433533,70.934921 
	C451.457153,70.934921 454.026154,70.934921 456.960144,70.934921 
	C456.960144,69.577995 456.960083,68.437347 456.960144,67.296700 
	C456.960571,60.632912 456.889465,53.968105 456.983978,47.305653 
	C457.059631,41.970940 459.632416,39.013405 464.090820,38.811394 
	C469.029144,38.587639 471.710785,41.099415 472.258667,46.758755 
	C472.514618,49.402298 472.424866,52.082256 472.435883,54.745945 
	C472.458252,60.152489 472.442566,65.559189 472.442566,71.022797 
	C475.665344,71.022797 478.116394,71.022797 480.816376,71.022797 
	C480.816376,61.590771 481.351135,52.266579 480.659271,43.034309 
	C480.024139,34.558865 473.582092,29.998222 465.205048,31.648720 
	C461.565979,32.365715 458.260406,34.775391 454.635010,36.496178 
	C448.290924,29.812559 441.163666,29.405720 432.257507,35.759640 
	C431.724152,29.666862 427.533600,32.966415 424.185303,32.221870 
	C424.185303,38.970417 424.185303,45.259628 424.185303,51.548840 
	C424.185303,57.998432 424.185303,64.448021 424.185303,71.668388 
	C427.494049,71.082802 430.132904,70.615768 432.821747,69.205597 
M378.295197,29.305767 
	C377.238647,39.375740 379.646088,43.164104 389.308655,46.336136 
	C394.352570,47.991951 399.603149,49.126129 404.455444,51.206932 
	C406.520416,52.092434 409.127502,54.817036 409.101562,56.672508 
	C409.070648,58.884441 406.969727,61.927090 404.907379,63.096840 
	C397.408539,67.350159 389.086578,63.907227 384.317902,54.997261 
	C381.635559,55.408878 378.876862,55.832207 375.279541,56.384220 
	C376.901825,59.495342 377.895386,62.576408 379.819916,64.879494 
	C386.638733,73.039467 395.684387,73.916924 405.280243,71.516922 
	C413.785889,69.389587 418.152496,64.119736 418.285522,56.647148 
	C418.418671,49.167004 415.323792,45.542721 406.064880,42.629501 
	C401.475769,41.185581 396.637085,40.374130 392.266479,38.463871 
	C390.076202,37.506561 387.092712,34.516850 387.317535,32.824951 
	C387.619568,30.552097 390.295258,27.749844 392.626404,26.754992 
	C398.818390,24.112480 404.710724,27.137449 409.501556,34.688950 
	C412.209991,34.117088 415.017242,33.524357 417.902222,32.915215 
	C413.305084,20.498497 402.716522,15.531993 389.336884,19.114828 
	C384.224304,20.483892 380.340393,23.305948 378.295197,29.305767 
M279.665680,37.074825 
	C274.421967,30.481632 267.381073,30.272917 260.139465,32.088749 
	C254.531509,33.494938 250.744553,37.195576 249.435104,43.234451 
	C251.682083,44.621925 253.701340,45.868771 255.732544,47.122997 
	C259.513916,40.086113 263.222809,37.862938 268.785522,39.232338 
	C272.363312,40.113106 273.862915,42.500122 273.503418,45.922562 
	C267.626373,47.587303 261.949951,48.834244 256.548431,50.826485 
	C251.113892,52.830891 248.677322,57.308598 249.259201,62.521294 
	C249.809326,67.449463 253.155899,71.073700 258.577728,72.292404 
	C263.591888,73.419464 268.485565,73.341591 272.898651,70.126335 
	C273.411163,69.752945 274.280243,69.505569 274.864227,69.658195 
	C277.089874,70.239853 279.266388,71.009338 282.052094,71.896896 
	C282.052094,63.312298 282.260956,55.831940 281.961151,48.372025 
	C281.818146,44.813900 280.708374,41.294624 279.665680,37.074825 
M306.840515,31.176098 
	C301.370697,34.416916 295.350525,31.677830 289.487305,32.342087 
	C289.487305,45.490669 289.487305,58.225254 289.487305,71.030258 
	C292.233093,71.030258 294.697937,71.030258 297.652283,71.030258 
	C297.652283,64.059608 297.528473,57.260815 297.685791,50.468540 
	C297.856262,43.108402 302.098755,38.820824 308.647400,39.041077 
	C314.237793,39.229092 316.198730,42.036003 316.244873,50.082291 
	C316.284760,57.033203 316.253174,63.984520 316.253174,71.030136 
	C319.266937,71.030136 321.729218,71.030136 324.690247,71.030136 
	C324.690247,63.230175 324.825287,55.601215 324.658722,47.978848 
	C324.406616,36.441936 319.326324,31.494791 306.840515,31.176098 
M516.747925,31.418692 
	C516.747925,27.310368 516.747925,23.202044 516.747925,19.098188 
	C513.481384,19.098188 510.911285,19.098188 507.994812,19.098188 
	C507.994812,23.478048 507.994812,27.569664 507.994812,32.142681 
	C505.424316,32.142681 503.207275,32.142681 501.125427,32.142681 
	C501.125427,34.442432 501.125427,36.239544 501.125427,38.182159 
	C503.439911,38.317970 505.569183,38.442909 508.097137,38.591248 
	C508.097137,44.692242 508.462524,50.687561 508.018890,56.622406 
	C507.170349,67.974022 513.323547,74.492943 528.083374,70.761444 
	C528.083374,68.695282 528.083374,66.622749 528.083374,64.436699 
	C525.933594,64.436699 524.115295,64.519608 522.307373,64.418640 
	C519.015686,64.234818 516.870667,62.492565 516.788330,59.159248 
	C516.621033,52.385727 516.738342,45.605167 516.738342,38.423889 
	C520.725586,38.423889 524.312439,38.423889 528.154785,38.423889 
	C528.154785,36.118111 528.154785,34.223427 528.154785,31.935623 
	C524.499878,31.935623 521.036926,31.935623 516.747925,31.418692 
M209.771240,26.509380 
	C209.771240,41.436054 209.771240,56.362728 209.771240,71.092529 
	C222.380554,71.092529 234.301819,71.092529 246.224548,71.092529 
	C246.224548,68.500336 246.224548,66.260780 246.224548,63.503071 
	C236.719208,63.503071 227.477585,63.503071 217.845062,63.503071 
	C217.845062,48.214912 217.845062,33.453663 217.845062,18.837761 
	C214.994141,18.837761 212.559860,18.837761 209.771225,18.837761 
	C209.771225,21.240879 209.771225,23.374163 209.771240,26.509380 
M495.115204,68.436310 
	C495.115204,56.365692 495.115204,44.295071 495.115204,32.489639 
	C491.945740,32.489639 489.541870,32.489639 487.227051,32.489639 
	C487.227051,45.593044 487.227051,58.348991 487.227051,72.289345 
	C490.252258,71.189659 492.681427,70.306641 495.115204,68.436310 
M495.291687,27.060999 
	C497.338959,23.469748 496.749878,20.314098 492.724518,19.171949 
	C491.015137,18.686922 487.821503,19.811596 486.888031,21.240545 
	C485.970032,22.645790 486.345581,25.872398 487.427765,27.392876 
	C489.338196,30.077028 492.270081,29.770815 495.291687,27.060999 
z"/>
<path fill="#020202" opacity="1.000000" stroke="none" 
	d="
M136.625000,0.999999 
	C140.476715,2.265439 144.006027,3.403798 147.421295,4.817662 
	C165.011612,12.099764 176.317322,29.891531 174.715500,47.637009 
	C172.875198,68.024475 159.805145,83.070541 140.105072,87.493301 
	C139.136551,87.710739 138.186295,88.009438 137.113770,88.635147 
	C135.933334,89.000000 134.866653,89.000000 133.188034,88.622849 
	C132.088074,88.166466 131.600098,88.018181 131.112045,88.017899 
	C102.409607,88.001244 73.707153,87.986626 45.004795,88.033722 
	C44.002670,88.035370 43.001575,88.663734 42.000000,89.000000 
	C40.611111,89.000000 39.222221,89.000000 37.391136,88.623100 
	C36.538116,87.985489 36.159477,87.591072 35.711838,87.483345 
	C18.666906,83.381210 7.604643,73.007057 2.658323,56.134506 
	C2.422500,55.330086 1.566947,54.707348 1.000000,54.000000 
	C1.000000,52.285641 1.000000,50.571285 1.297209,48.205147 
	C1.396279,45.702244 1.198139,43.851124 1.000000,42.000000 
	C1.000000,40.285641 1.000000,38.571285 1.351701,36.334312 
	C1.891901,35.544071 2.171149,35.302330 2.255913,35.005119 
	C7.147629,17.853195 18.093229,6.926214 35.478596,2.545299 
	C36.077499,2.394382 36.496922,1.531197 37.000000,1.000000 
	C38.388889,1.000000 39.777779,1.000000 41.794376,1.378502 
	C42.908535,1.843888 43.394958,2.006656 43.881435,2.006806 
	C72.919106,2.015716 101.956810,2.021303 130.994385,1.965595 
	C131.996872,1.963671 132.998154,1.336009 134.000000,1.000001 
	C134.750000,1.000000 135.500000,1.000000 136.625000,0.999999 
M114.371895,47.092300 
	C109.013786,51.873634 103.576126,56.569809 98.329674,61.470669 
	C95.525620,64.090019 94.858505,67.324959 98.014977,70.106926 
	C101.083115,72.811043 104.522324,72.044479 106.771782,69.070557 
	C111.063972,63.396019 114.893158,57.371262 119.513969,51.901093 
	C123.697876,57.473911 127.903893,63.030334 132.055573,68.627068 
	C133.890869,71.101166 136.100433,73.156349 139.072388,70.912056 
	C142.387070,68.408936 140.674149,65.710953 138.492264,63.283813 
	C134.053345,58.345947 129.595749,53.422894 125.272758,48.384827 
	C124.590080,47.589218 124.571075,46.224133 124.915932,45.005959 
	C127.612144,42.048473 130.445099,40.052158 134.871353,39.479115 
	C141.406982,38.632980 145.488480,30.065746 142.298767,24.447859 
	C140.537582,26.317822 139.099396,28.403267 137.140854,29.707083 
	C136.032349,30.445042 133.603180,30.502689 132.631378,29.751255 
	C131.774734,29.088854 131.623245,26.714130 132.060349,25.393396 
	C132.543030,23.934902 134.143997,22.879002 135.066193,21.517864 
	C135.448212,20.954035 135.547211,19.992525 135.360245,19.328676 
	C135.253250,18.948864 134.312332,18.586931 133.747726,18.588205 
	C130.051346,18.596539 123.232414,23.566504 123.096764,27.076357 
	C122.912987,31.831453 122.111794,36.171127 118.935135,40.611572 
	C113.509399,36.874199 112.420776,30.964863 110.985672,24.203350 
	C114.518318,23.117079 118.141899,22.002846 121.683731,20.913752 
	C115.332848,15.172365 101.693153,18.385580 97.587067,26.603197 
	C97.114197,27.549564 96.286278,28.657869 95.369881,28.987497 
	C89.941505,30.940083 89.424332,32.672562 92.942825,37.058998 
	C94.190506,38.614456 95.001457,40.520222 96.011787,42.266064 
	C96.896156,42.148380 97.780518,42.030697 98.664886,41.913013 
	C100.538277,40.273521 102.411659,38.634026 105.214569,36.181061 
	C109.490959,36.979301 112.236214,42.174072 114.371895,47.092300 
M62.765545,73.778481 
	C62.770615,74.062157 62.742920,74.352783 62.800705,74.625282 
	C62.818069,74.707176 63.089706,74.811172 63.217422,74.782562 
	C66.582321,74.028938 69.942360,73.253639 73.306664,72.497292 
	C73.923454,72.358635 74.555061,72.285828 75.179825,72.182632 
	C74.827888,71.788750 74.475945,71.394867 74.124008,71.000992 
	C72.230499,70.652931 70.336990,70.304871 68.394020,69.947716 
	C69.134087,67.442436 69.761185,65.319572 70.379211,63.227413 
	C76.842232,63.990471 80.444748,72.854622 87.642868,69.566017 
	C84.965790,64.682732 82.340485,59.823154 79.645325,55.002632 
	C77.865532,51.819328 76.215912,48.527748 74.107185,45.570454 
	C67.593681,36.435825 58.145519,29.750092 53.053925,19.276150 
	C50.820309,14.681373 43.706909,13.802315 39.720325,16.089693 
	C35.273960,18.640881 31.975033,26.364607 33.520153,30.606056 
	C37.998241,28.435356 41.900566,29.864130 43.192703,34.299980 
	C43.979168,36.999886 44.107590,39.938240 45.179817,42.497955 
	C47.134449,47.164207 48.782890,52.323654 52.017418,55.991180 
	C55.599277,60.052532 55.710430,64.340431 55.089634,69.095772 
	C51.821686,69.095772 48.553734,69.095772 45.285786,69.095772 
	C45.242950,69.834793 45.200115,70.573814 45.157284,71.312836 
	C51.069691,71.951523 56.982101,72.590210 62.765545,73.778481 
z"/>
<path fill="#030303" opacity="1.000000" stroke="none" 
	d="
M570.000000,70.531342 
	C567.383667,71.000000 564.767334,71.000000 561.716003,71.000000 
	C561.716003,63.488998 561.748535,56.205776 561.706726,48.922981 
	C561.666687,41.951065 559.446472,39.134960 554.013794,39.000801 
	C547.345886,38.836147 543.200623,42.533939 543.049988,49.154419 
	C542.887634,56.291126 543.013306,63.434383 543.013306,70.875473 
	C540.232361,70.875473 537.697388,70.875473 534.935547,70.875473 
	C534.935547,53.530556 534.935547,36.301876 534.935547,18.814762 
	C537.560425,18.814762 540.001892,18.814762 542.895447,18.814762 
	C542.895447,23.871910 542.895447,29.097406 542.895447,34.539684 
	C555.734436,27.989180 566.023071,31.312731 569.670105,42.855751 
	C570.000000,52.020893 570.000000,61.041790 570.000000,70.531342 
z"/>
<path fill="#FAFAFA" opacity="1.000000" stroke="none" 
	d="
M36.531342,1.000000 
	C36.496922,1.531197 36.077499,2.394382 35.478596,2.545299 
	C18.093229,6.926214 7.147629,17.853195 2.255913,35.005119 
	C2.171149,35.302330 1.891901,35.544071 1.351701,35.905846 
	C1.000000,24.405704 1.000000,12.811407 1.000000,1.000000 
	C12.686666,1.000000 24.374674,1.000000 36.531342,1.000000 
z"/>
<path fill="#FAFAFA" opacity="1.000000" stroke="none" 
	d="
M1.000000,54.468658 
	C1.566947,54.707348 2.422500,55.330086 2.658323,56.134506 
	C7.604643,73.007057 18.666906,83.381210 35.711838,87.483345 
	C36.159477,87.591072 36.538116,87.985489 36.974468,88.623100 
	C25.074438,89.000000 13.148876,89.000000 1.000000,89.000000 
	C1.000000,77.646744 1.000000,66.292030 1.000000,54.468658 
z"/>
<path fill="#6C6C6C" opacity="1.000000" stroke="none" 
	d="
M133.531342,1.000001 
	C132.998154,1.336009 131.996872,1.963671 130.994385,1.965595 
	C101.956810,2.021303 72.919106,2.015716 43.881435,2.006806 
	C43.394958,2.006656 42.908535,1.843888 42.211044,1.378502 
	C72.354225,1.000000 102.708458,1.000000 133.531342,1.000001 
z"/>
<path fill="#6C6C6C" opacity="1.000000" stroke="none" 
	d="
M42.468658,89.000000 
	C43.001575,88.663734 44.002670,88.035370 45.004795,88.033722 
	C73.707153,87.986626 102.409607,88.001244 131.112045,88.017899 
	C131.600098,88.018181 132.088074,88.166466 132.788040,88.622849 
	C102.979103,89.000000 72.958214,89.000000 42.468658,89.000000 
z"/>
<path fill="#252525" opacity="1.000000" stroke="none" 
	d="
M1.000000,42.428463 
	C1.198139,43.851124 1.396279,45.702244 1.297209,47.776684 
	C1.000000,46.285641 1.000000,44.571285 1.000000,42.428463 
z"/>
<path fill="#090909" opacity="1.000000" stroke="none" 
	d="
M367.724182,47.006237 
	C367.509460,55.974438 367.780304,64.492027 366.943146,72.899284 
	C366.109131,81.275551 359.996552,86.394875 351.502472,87.223877 
	C340.207855,88.326225 334.145325,85.454834 330.821228,77.051384 
	C333.282196,76.234100 335.726135,75.422470 338.092804,74.636505 
	C342.212463,79.399429 347.666656,80.983551 352.809784,78.965103 
	C357.417786,77.156662 359.142365,73.591309 359.033508,68.707214 
	C349.048950,74.304680 339.633240,73.202057 333.759613,65.898827 
	C327.831757,58.528156 328.284424,43.660660 334.651489,36.605503 
	C340.417816,30.216015 350.893860,29.434715 357.556915,33.763828 
	C361.494415,32.793972 364.192657,32.129356 367.724182,31.259499 
	C367.724182,36.976810 367.724182,41.742043 367.724182,47.006237 
M340.414978,60.941566 
	C347.321564,67.265396 356.335999,65.606590 358.372162,57.226490 
	C359.257874,53.581245 358.803833,49.346355 357.949036,45.610176 
	C356.915314,41.091827 353.286896,38.965355 348.617249,39.024864 
	C343.818604,39.086018 339.653656,41.166504 339.017578,45.933941 
	C338.395294,50.597710 339.581146,55.502716 340.414978,60.941566 
z"/>
<path fill="#0E0E0E" opacity="1.000000" stroke="none" 
	d="
M432.796753,69.677170 
	C430.132904,70.615768 427.494049,71.082802 424.185303,71.668388 
	C424.185303,64.448021 424.185303,57.998432 424.185303,51.548840 
	C424.185303,45.259628 424.185303,38.970417 424.185303,32.221870 
	C427.533600,32.966415 431.724152,29.666862 432.257507,35.759640 
	C441.163666,29.405720 448.290924,29.812559 454.635010,36.496178 
	C458.260406,34.775391 461.565979,32.365715 465.205048,31.648720 
	C473.582092,29.998222 480.024139,34.558865 480.659271,43.034309 
	C481.351135,52.266579 480.816376,61.590771 480.816376,71.022797 
	C478.116394,71.022797 475.665344,71.022797 472.442566,71.022797 
	C472.442566,65.559189 472.458252,60.152489 472.435883,54.745945 
	C472.424866,52.082256 472.514618,49.402298 472.258667,46.758755 
	C471.710785,41.099415 469.029144,38.587639 464.090820,38.811394 
	C459.632416,39.013405 457.059631,41.970940 456.983978,47.305653 
	C456.889465,53.968105 456.960571,60.632912 456.960144,67.296700 
	C456.960083,68.437347 456.960144,69.577995 456.960144,70.934921 
	C454.026154,70.934921 451.457153,70.934921 448.433533,70.934921 
	C448.433533,63.114475 448.562378,55.477787 448.390564,47.847874 
	C448.265137,42.279682 445.838318,39.326241 441.639832,38.918346 
	C436.334808,38.402946 433.008881,41.377556 432.870361,47.216724 
	C432.696564,54.542610 432.824219,61.875648 432.796753,69.677170 
z"/>
<path fill="#080808" opacity="1.000000" stroke="none" 
	d="
M378.472961,28.939810 
	C380.340393,23.305948 384.224304,20.483892 389.336884,19.114828 
	C402.716522,15.531993 413.305084,20.498497 417.902222,32.915215 
	C415.017242,33.524357 412.209991,34.117088 409.501556,34.688950 
	C404.710724,27.137449 398.818390,24.112480 392.626404,26.754992 
	C390.295258,27.749844 387.619568,30.552097 387.317535,32.824951 
	C387.092712,34.516850 390.076202,37.506561 392.266479,38.463871 
	C396.637085,40.374130 401.475769,41.185581 406.064880,42.629501 
	C415.323792,45.542721 418.418671,49.167004 418.285522,56.647148 
	C418.152496,64.119736 413.785889,69.389587 405.280243,71.516922 
	C395.684387,73.916924 386.638733,73.039467 379.819916,64.879494 
	C377.895386,62.576408 376.901825,59.495342 375.279541,56.384220 
	C378.876862,55.832207 381.635559,55.408878 384.317902,54.997261 
	C389.086578,63.907227 397.408539,67.350159 404.907379,63.096840 
	C406.969727,61.927090 409.070648,58.884441 409.101562,56.672508 
	C409.127502,54.817036 406.520416,52.092434 404.455444,51.206932 
	C399.603149,49.126129 394.352570,47.991951 389.308655,46.336136 
	C379.646088,43.164104 377.238647,39.375740 378.472961,28.939810 
z"/>
<path fill="#070707" opacity="1.000000" stroke="none" 
	d="
M279.851105,37.416290 
	C280.708374,41.294624 281.818146,44.813900 281.961151,48.372025 
	C282.260956,55.831940 282.052094,63.312298 282.052094,71.896896 
	C279.266388,71.009338 277.089874,70.239853 274.864227,69.658195 
	C274.280243,69.505569 273.411163,69.752945 272.898651,70.126335 
	C268.485565,73.341591 263.591888,73.419464 258.577728,72.292404 
	C253.155899,71.073700 249.809326,67.449463 249.259201,62.521294 
	C248.677322,57.308598 251.113892,52.830891 256.548431,50.826485 
	C261.949951,48.834244 267.626373,47.587303 273.503418,45.922562 
	C273.862915,42.500122 272.363312,40.113106 268.785522,39.232338 
	C263.222809,37.862938 259.513916,40.086113 255.732544,47.122997 
	C253.701340,45.868771 251.682083,44.621925 249.435104,43.234451 
	C250.744553,37.195576 254.531509,33.494938 260.139465,32.088749 
	C267.381073,30.272917 274.421967,30.481632 279.851105,37.416290 
M261.337921,65.264435 
	C270.617401,66.718994 274.700623,62.913746 273.213074,53.417202 
	C269.222900,54.430294 265.120605,55.026779 261.385590,56.533600 
	C256.789154,58.387951 256.651611,61.704353 261.337921,65.264435 
z"/>
<path fill="#111111" opacity="1.000000" stroke="none" 
	d="
M307.266846,31.150124 
	C319.326324,31.494791 324.406616,36.441936 324.658722,47.978848 
	C324.825287,55.601215 324.690247,63.230175 324.690247,71.030136 
	C321.729218,71.030136 319.266937,71.030136 316.253174,71.030136 
	C316.253174,63.984520 316.284760,57.033203 316.244873,50.082291 
	C316.198730,42.036003 314.237793,39.229092 308.647400,39.041077 
	C302.098755,38.820824 297.856262,43.108402 297.685791,50.468540 
	C297.528473,57.260815 297.652283,64.059608 297.652283,71.030258 
	C294.697937,71.030258 292.233093,71.030258 289.487305,71.030258 
	C289.487305,58.225254 289.487305,45.490669 289.487305,32.342087 
	C295.350525,31.677830 301.370697,34.416916 307.266846,31.150124 
z"/>
<path fill="#0C0C0C" opacity="1.000000" stroke="none" 
	d="
M517.160950,31.677158 
	C521.036926,31.935623 524.499878,31.935623 528.154785,31.935623 
	C528.154785,34.223427 528.154785,36.118111 528.154785,38.423889 
	C524.312439,38.423889 520.725586,38.423889 516.738342,38.423889 
	C516.738342,45.605167 516.621033,52.385727 516.788330,59.159248 
	C516.870667,62.492565 519.015686,64.234818 522.307373,64.418640 
	C524.115295,64.519608 525.933594,64.436699 528.083374,64.436699 
	C528.083374,66.622749 528.083374,68.695282 528.083374,70.761444 
	C513.323547,74.492943 507.170349,67.974022 508.018890,56.622406 
	C508.462524,50.687561 508.097137,44.692242 508.097137,38.591248 
	C505.569183,38.442909 503.439911,38.317970 501.125427,38.182159 
	C501.125427,36.239544 501.125427,34.442432 501.125427,32.142681 
	C503.207275,32.142681 505.424316,32.142681 507.994812,32.142681 
	C507.994812,27.569664 507.994812,23.478048 507.994812,19.098188 
	C510.911285,19.098188 513.481384,19.098188 516.747925,19.098188 
	C516.747925,23.202044 516.747925,27.310368 517.160950,31.677158 
z"/>
<path fill="#010101" opacity="1.000000" stroke="none" 
	d="
M209.771240,26.008411 
	C209.771225,23.374163 209.771225,21.240879 209.771225,18.837761 
	C212.559860,18.837761 214.994141,18.837761 217.845062,18.837761 
	C217.845062,33.453663 217.845062,48.214912 217.845062,63.503071 
	C227.477585,63.503071 236.719208,63.503071 246.224548,63.503071 
	C246.224548,66.260780 246.224548,68.500336 246.224548,71.092529 
	C234.301819,71.092529 222.380554,71.092529 209.771240,71.092529 
	C209.771240,56.362728 209.771240,41.436054 209.771240,26.008411 
z"/>
<path fill="#010101" opacity="1.000000" stroke="none" 
	d="
M495.112885,68.929970 
	C492.681427,70.306641 490.252258,71.189659 487.227051,72.289345 
	C487.227051,58.348991 487.227051,45.593044 487.227051,32.489639 
	C489.541870,32.489639 491.945740,32.489639 495.115204,32.489639 
	C495.115204,44.295071 495.115204,56.365692 495.112885,68.929970 
z"/>
<path fill="#090909" opacity="1.000000" stroke="none" 
	d="
M495.068359,27.371147 
	C492.270081,29.770815 489.338196,30.077028 487.427765,27.392876 
	C486.345581,25.872398 485.970032,22.645790 486.888031,21.240545 
	C487.821503,19.811596 491.015137,18.686922 492.724518,19.171949 
	C496.749878,20.314098 497.338959,23.469748 495.068359,27.371147 
z"/>
<path fill="#F9F9F9" opacity="1.000000" stroke="none" 
	d="
M55.986061,68.969742 
	C55.710430,64.340431 55.599277,60.052532 52.017418,55.991180 
	C48.782890,52.323654 47.134449,47.164207 45.179817,42.497955 
	C44.107590,39.938240 43.979168,36.999886 43.192703,34.299980 
	C41.900566,29.864130 37.998241,28.435356 33.520153,30.606056 
	C31.975033,26.364607 35.273960,18.640881 39.720325,16.089693 
	C43.706909,13.802315 50.820309,14.681373 53.053925,19.276150 
	C58.145519,29.750092 67.593681,36.435825 74.107185,45.570454 
	C76.215912,48.527748 77.865532,51.819328 79.645325,55.002632 
	C82.340485,59.823154 84.965790,64.682732 87.642868,69.566017 
	C80.444748,72.854622 76.842232,63.990471 70.379211,63.227413 
	C69.761185,65.319572 69.134087,67.442436 68.394020,69.947716 
	C70.336990,70.304871 72.230499,70.652931 74.124008,71.000992 
	C74.475945,71.394867 74.827888,71.788750 75.179825,72.182632 
	C74.555061,72.285828 73.923454,72.358635 73.306664,72.497292 
	C69.942360,73.253639 66.582321,74.028938 63.217422,74.782562 
	C63.089706,74.811172 62.818069,74.707176 62.800705,74.625282 
	C62.742920,74.352783 62.770615,74.062157 62.855103,73.120880 
	C62.953842,71.951981 62.963028,71.440689 63.112785,70.616455 
	C64.111351,69.938545 64.969345,69.573570 66.092621,69.095757 
	C64.706406,67.040276 63.503510,65.256630 62.026115,63.065952 
	C61.060093,65.523926 60.209297,67.688721 58.984436,69.883453 
	C57.735603,69.598839 56.860832,69.284294 55.986061,68.969742 
z"/>
<path fill="#F3F3F3" opacity="1.000000" stroke="none" 
	d="
M124.245209,45.122349 
	C124.571075,46.224133 124.590080,47.589218 125.272758,48.384827 
	C129.595749,53.422894 134.053345,58.345947 138.492264,63.283813 
	C140.674149,65.710953 142.387070,68.408936 139.072388,70.912056 
	C136.100433,73.156349 133.890869,71.101166 132.055573,68.627068 
	C127.903893,63.030334 123.697876,57.473911 119.235352,51.384750 
	C117.715599,49.611382 116.474472,48.354359 115.233345,47.097340 
	C112.236214,42.174072 109.490959,36.979301 105.214569,36.181061 
	C102.411659,38.634026 100.538277,40.273521 98.664886,41.913013 
	C97.780518,42.030697 96.896156,42.148380 96.011787,42.266064 
	C95.001457,40.520222 94.190506,38.614456 92.942825,37.058998 
	C89.424332,32.672562 89.941505,30.940083 95.369881,28.987497 
	C96.286278,28.657869 97.114197,27.549564 97.587067,26.603197 
	C101.693153,18.385580 115.332848,15.172365 121.683731,20.913752 
	C118.141899,22.002846 114.518318,23.117079 110.985672,24.203350 
	C112.420776,30.964863 113.509399,36.874199 119.408859,40.351578 
	C121.336792,41.768509 122.791000,43.445427 124.245209,45.122349 
z"/>
<path fill="#F6F6F6" opacity="1.000000" stroke="none" 
	d="
M124.580574,45.064156 
	C122.791000,43.445427 121.336792,41.768509 119.542038,40.044800 
	C122.111794,36.171127 122.912987,31.831453 123.096764,27.076357 
	C123.232414,23.566504 130.051346,18.596539 133.747726,18.588205 
	C134.312332,18.586931 135.253250,18.948864 135.360245,19.328676 
	C135.547211,19.992525 135.448212,20.954035 135.066193,21.517864 
	C134.143997,22.879002 132.543030,23.934902 132.060349,25.393396 
	C131.623245,26.714130 131.774734,29.088854 132.631378,29.751255 
	C133.603180,30.502689 136.032349,30.445042 137.140854,29.707083 
	C139.099396,28.403267 140.537582,26.317822 142.298767,24.447859 
	C145.488480,30.065746 141.406982,38.632980 134.871353,39.479115 
	C130.445099,40.052158 127.612144,42.048473 124.580574,45.064156 
z"/>
<path fill="#F2F2F2" opacity="1.000000" stroke="none" 
	d="
M114.802620,47.094818 
	C116.474472,48.354359 117.715599,49.611382 118.935638,51.180145 
	C114.893158,57.371262 111.063972,63.396019 106.771782,69.070557 
	C104.522324,72.044479 101.083115,72.811043 98.014977,70.106926 
	C94.858505,67.324959 95.525620,64.090019 98.329674,61.470669 
	C103.576126,56.569809 109.013786,51.873634 114.802620,47.094818 
z"/>
<path fill="#E3E3E3" opacity="1.000000" stroke="none" 
	d="
M55.537849,69.032761 
	C56.860832,69.284294 57.735603,69.598839 59.319916,69.799767 
	C61.010376,70.100563 61.991295,70.514984 62.972214,70.929398 
	C62.963028,71.440689 62.953842,71.951981 62.919586,72.846085 
	C56.982101,72.590210 51.069691,71.951523 45.157284,71.312836 
	C45.200115,70.573814 45.242950,69.834793 45.285786,69.095772 
	C48.553734,69.095772 51.821686,69.095772 55.537849,69.032761 
z"/>
<path fill="#F9F9F9" opacity="1.000000" stroke="none" 
	d="
M340.194153,60.621696 
	C339.581146,55.502716 338.395294,50.597710 339.017578,45.933941 
	C339.653656,41.166504 343.818604,39.086018 348.617249,39.024864 
	C353.286896,38.965355 356.915314,41.091827 357.949036,45.610176 
	C358.803833,49.346355 359.257874,53.581245 358.372162,57.226490 
	C356.335999,65.606590 347.321564,67.265396 340.194153,60.621696 
z"/>
<path fill="#F1F1F1" opacity="1.000000" stroke="none" 
	d="
M260.952087,65.153519 
	C256.651611,61.704353 256.789154,58.387951 261.385590,56.533600 
	C265.120605,55.026779 269.222900,54.430294 273.213074,53.417202 
	C274.700623,62.913746 270.617401,66.718994 260.952087,65.153519 
z"/>
<path fill="#212121" opacity="1.000000" stroke="none" 
	d="
M63.112785,70.616455 
	C61.991295,70.514984 61.010376,70.100563 59.693977,69.769836 
	C60.209297,67.688721 61.060093,65.523926 62.026115,63.065952 
	C63.503510,65.256630 64.706406,67.040276 66.092621,69.095757 
	C64.969345,69.573570 64.111351,69.938545 63.112785,70.616455 
z"/>
</svg>