<svg version="1.1" id="Layer_1" xmlns="http://www.w3.org/2000/svg" xmlns:xlink="http://www.w3.org/1999/xlink" x="0px" y="0px"
	 width="100%" viewBox="0 0 320 320" enable-background="new 0 0 320 320" xml:space="preserve">
<path fill="#47704C" opacity="1.000000" stroke="none" 
	d="
M321.000000,5.000000 
	C321.000000,108.688103 321.000000,212.376205 320.531342,316.532166 
	C218.089432,316.999359 116.116165,317.001709 14.142907,316.992645 
	C5.758003,316.991913 5.020389,316.384399 5.018935,308.992401 
	C4.999537,210.351608 5.000007,111.710823 5.017700,13.070030 
	C5.018996,5.843509 5.845232,5.095375 13.080791,5.007702 
	C14.413599,4.991553 15.746729,5.000294 17.079710,5.000290 
	C118.386475,5.000017 219.693237,5.000019 321.000000,5.000000 
M131.889145,185.683380 
	C131.889145,185.683380 131.832153,185.838211 130.848557,185.620209 
	C129.063828,185.473236 127.261574,185.096939 125.498375,185.231705 
	C122.677940,185.447266 120.175293,186.264877 121.038872,190.772034 
	C121.063866,191.500351 121.088860,192.228683 121.036987,193.530334 
	C122.228050,194.627304 123.398582,196.649719 124.613380,196.676666 
	C135.589706,196.920166 146.575912,196.934891 157.554321,196.740036 
	C161.020691,196.678528 162.304092,194.259979 160.808212,191.172684 
	C159.836044,189.166199 158.384613,186.486237 156.596481,185.951370 
	C151.324615,184.374390 150.778793,180.786591 150.970627,176.309998 
	C151.127289,172.654648 150.998932,168.987198 151.000336,165.325104 
	C151.005341,152.174896 150.862732,139.021286 151.164108,125.877853 
	C151.214478,123.681038 153.079605,119.760696 154.305130,119.680603 
	C158.287247,119.420334 162.412842,120.363487 166.365417,121.326706 
	C167.378647,121.573631 167.957825,123.601730 168.736404,124.811531 
	C167.586609,125.542770 166.524017,126.584755 165.267944,126.937180 
	C163.014862,127.569321 160.333298,127.464226 161.034592,131.829071 
	C161.058014,132.869019 161.081436,133.908981 161.027344,135.516434 
	C162.310379,136.659912 163.425232,138.161438 164.916382,138.861786 
	C167.079468,139.877716 169.514374,140.314896 171.946594,141.930389 
	C171.908844,161.954193 171.871094,181.977982 171.221664,202.325790 
	C168.827286,203.236572 166.270935,203.873901 164.099136,205.160431 
	C162.791504,205.935028 162.082550,207.720245 161.036652,209.774216 
	C161.059387,210.499115 161.082123,211.224030 161.029770,212.523987 
	C161.531555,216.866211 165.034470,215.902466 167.585419,215.921860 
	C184.217392,216.048355 200.850708,216.002731 217.483597,215.996277 
	C227.822311,215.992264 227.823380,215.977997 231.149170,206.052536 
	C234.106979,197.225357 234.106964,197.225342 243.328949,196.988770 
	C250.869003,196.795349 251.734390,195.025970 248.574707,188.171707 
	C247.543228,185.934128 246.969650,182.347534 248.067307,180.488052 
	C250.916824,175.660767 254.808411,171.448074 258.289612,166.994400 
	C260.119110,164.653854 261.847809,164.891724 263.439819,167.246307 
	C265.861969,170.828659 268.241821,174.439758 270.681152,178.010284 
	C272.655304,180.899918 274.744751,183.674652 269.868988,185.970627 
	C269.264618,186.255234 269.342712,187.989044 269.034576,189.829071 
	C269.057983,190.869019 269.081421,191.908981 269.029755,193.523987 
	C270.214355,194.622009 271.376892,196.644394 272.587006,196.673264 
	C283.194946,196.926407 293.813812,196.956741 304.423859,196.755798 
	C308.224365,196.683807 309.083588,194.196442 307.775940,190.813278 
	C305.710541,185.469727 301.439240,183.202148 294.308685,183.749557 
	C294.308685,183.749557 294.272339,183.597046 294.244385,182.887604 
	C293.275574,181.808212 292.306763,180.728806 291.272400,179.661697 
	C291.272400,179.661697 291.267914,179.595184 291.267242,178.821793 
	C289.277588,172.580658 286.632660,166.811935 280.268372,163.670654 
	C280.268372,163.670654 280.267914,163.595184 280.267242,162.821732 
	C278.662109,159.594971 277.269897,156.237518 275.392212,153.178009 
	C273.497101,150.090118 273.276306,147.522415 275.710236,144.580673 
	C280.266083,139.074265 284.245117,133.055389 289.103058,127.845482 
	C292.870667,123.804886 297.645996,120.712746 301.902008,117.114609 
	C303.731140,115.568245 307.115051,112.846390 306.816559,112.307831 
	C305.343262,109.649338 303.055206,105.801712 300.721924,105.557983 
	C292.665375,104.716415 284.465057,105.050842 276.334656,105.350349 
	C275.214050,105.391624 274.179169,107.760216 273.036652,109.774231 
	C273.059418,110.499138 273.082153,111.224037 273.011597,112.496735 
	C273.049377,112.988052 272.894287,113.741852 273.153259,113.932220 
	C279.270325,118.428024 275.608185,122.135918 272.288666,125.948639 
	C270.546753,127.949326 268.973053,130.095566 267.291443,132.149963 
	C265.447418,134.402832 263.451569,134.836548 261.619690,132.228058 
	C259.428345,129.107681 257.297913,125.933640 255.340591,122.663445 
	C253.926910,120.301529 254.533142,118.537216 256.986633,116.837898 
	C258.713348,115.641960 261.163452,112.422585 260.719940,111.712608 
	C259.125732,109.160667 256.546082,105.604637 254.147888,105.453247 
	C243.405319,104.775146 232.596512,105.087433 221.812592,105.170395 
	C219.514954,105.188080 217.381073,105.891785 218.034790,109.757286 
	C218.037125,110.466438 218.039444,111.175598 218.210815,112.597183 
	C219.487656,113.964264 220.516937,115.879318 222.090271,116.590080 
	C225.965057,118.340523 230.089828,119.537605 234.534409,121.140625 
	C234.797623,121.324745 234.966888,121.572945 235.166809,122.621223 
	C237.005585,127.846268 238.921234,133.013901 244.731644,135.329346 
	C244.731644,135.329346 244.732071,135.404816 244.732727,136.178299 
	C246.064117,138.984406 247.033722,142.048111 248.807449,144.539261 
	C251.845993,148.806793 252.127274,152.388092 248.466187,156.550568 
	C243.756134,161.905701 239.424301,167.611725 235.201920,173.366455 
	C233.933273,175.095535 233.573135,177.491211 232.891663,179.694382 
	C232.891663,179.694382 232.832474,179.829453 232.028717,179.754791 
	C230.320068,180.284241 228.485474,180.572845 226.926407,181.388290 
	C222.251465,183.833496 221.201050,183.331039 221.051102,177.942749 
	C220.916885,173.119476 221.144974,168.282654 220.903915,163.467285 
	C220.781647,161.024734 220.338409,158.456741 219.361694,156.245163 
	C218.636154,154.602310 216.818466,153.441772 215.487228,152.066406 
	C214.363739,153.551041 212.716660,154.879288 212.217514,156.550400 
	C210.861771,161.089432 208.071457,163.159637 203.419373,162.980408 
	C201.757965,162.916397 200.091263,163.000916 198.427032,162.996506 
	C189.480820,162.972794 189.041885,162.541916 189.001740,153.795792 
	C188.942947,140.988632 188.943100,141.030258 201.825790,140.984787 
	C209.581665,140.957397 217.455948,140.256317 220.003723,150.541992 
	C220.346222,151.924728 223.868210,153.628143 225.477402,153.259613 
	C226.923660,152.928391 228.644699,149.975845 228.694809,148.137344 
	C228.811691,143.851151 228.275925,139.487686 227.490799,135.250732 
	C226.397110,129.348648 223.491043,127.108032 217.435532,127.037430 
	C209.780533,126.948189 202.123840,127.002426 194.467880,127.000748 
	C181.277618,126.997856 181.277618,126.999794 178.730484,114.035461 
	C177.429337,107.412971 174.649994,105.043053 167.754959,105.025635 
	C149.114426,104.978554 130.473709,105.004807 111.833061,105.020714 
	C110.505730,105.021843 108.887924,104.734055 107.924515,105.368820 
	C106.708572,106.169960 106.026360,107.781189 105.036499,109.969963 
	C104.968781,115.313957 104.901062,120.657944 104.418930,126.489693 
	C102.554176,129.528625 103.486229,131.710419 106.750877,132.554337 
	C109.994484,133.392838 112.054008,131.991196 112.977753,128.563873 
	C114.936615,121.296089 116.984589,119.664619 124.358559,119.145821 
	C127.172958,118.947807 130.007812,119.040451 132.946579,119.931908 
	C132.908829,140.621902 132.871078,161.311890 132.453934,182.501221 
	C132.232193,183.518311 132.010437,184.535416 131.889145,185.683380 
M17.034679,189.830811 
	C17.061083,190.872879 17.087486,191.914948 17.037018,193.530365 
	C17.415176,197.579407 20.650866,196.911972 23.109468,196.924759 
	C41.605381,197.021133 60.102615,196.899139 78.597977,197.039047 
	C83.320557,197.074783 86.049980,195.292969 87.329567,190.689758 
	C88.503975,186.464920 90.176460,182.378540 91.059395,179.858383 
	C101.707214,179.858383 110.968643,179.982880 120.223976,179.799515 
	C124.140610,179.721893 125.173218,177.293854 123.317970,174.006348 
	C122.282791,172.172012 120.972176,170.007797 119.220497,169.159958 
	C115.043747,167.138382 113.297691,163.635986 111.648544,159.711807 
	C104.742683,143.279175 97.780907,126.868614 90.613586,110.549240 
	C89.780373,108.652061 87.541740,107.372124 85.954681,105.806023 
	C84.530716,107.471191 82.604630,108.916145 81.762451,110.836456 
	C75.204475,125.789680 68.921501,140.863297 62.404819,155.834976 
	C60.166805,160.976685 58.293320,166.444244 52.648781,169.281616 
	C51.737377,169.739761 51.606129,171.749924 51.040039,173.769440 
	C51.064644,174.498627 51.089249,175.227798 51.036991,176.530319 
	C51.271549,180.294205 54.246441,179.805328 56.596741,179.916611 
	C60.268291,180.090469 63.954124,179.962662 67.633904,179.962662 
	C67.624954,180.535904 67.616005,181.109161 67.607056,181.682404 
	C61.233810,181.682404 54.845638,181.907028 48.500401,181.485428 
	C47.288490,181.404922 45.278927,178.779526 45.272713,177.321274 
	C45.199059,160.038147 45.412457,142.753448 45.605202,125.469765 
	C45.666435,119.978653 48.000015,116.920204 54.043949,116.779579 
	C58.339329,116.679649 59.733837,113.982964 57.364315,110.348717 
	C55.910648,108.119156 53.087921,105.482620 50.751732,105.353752 
	C40.805740,104.805115 30.811340,105.067917 20.835957,105.168106 
	C18.543177,105.191132 16.380823,105.862106 17.037584,109.821907 
	C17.060015,110.864250 17.082445,111.906586 17.028166,113.518677 
	C18.312977,114.652992 19.457457,116.033775 20.915459,116.863899 
	C23.106108,118.111168 25.516422,118.972626 27.946564,120.929558 
	C27.908821,140.953674 27.871078,160.977798 27.424376,181.536377 
	C27.040321,182.585266 26.656267,183.634155 26.705385,184.828751 
	C26.705385,184.828751 26.833076,185.267563 25.846909,185.196777 
	C24.090576,185.184998 22.110765,184.662766 20.641235,185.306107 
	C19.193329,185.939987 18.262379,187.754700 17.034679,189.830811 
z"/>
<path fill="#47704C" opacity="1.000000" stroke="none" 
	d="
M321.000000,4.500000 
	C219.693237,5.000019 118.386475,5.000017 17.079710,5.000290 
	C15.746729,5.000294 14.413599,4.991553 13.080791,5.007702 
	C5.845232,5.095375 5.018996,5.843509 5.017700,13.070030 
	C5.000007,111.710823 4.999537,210.351608 5.018935,308.992401 
	C5.020389,316.384399 5.758003,316.991913 14.142907,316.992645 
	C116.116165,317.001709 218.089432,316.999359 320.531342,317.000000 
	C321.000000,318.332642 321.000000,319.665283 321.000000,320.998444 
	C214.389145,320.998962 107.778275,320.998962 1.083707,320.998962 
	C1.083707,214.444305 1.083707,107.888535 1.083707,1.166382 
	C107.666435,1.166382 214.333221,1.166382 321.000000,1.166382 
	C321.000000,2.001087 321.000000,3.000544 321.000000,4.500000 
z"/>
<path fill="#000000" opacity="1.000000" stroke="none" 
	d="
M171.833344,202.001785 
	C171.871094,181.977982 171.908844,161.954193 171.938202,141.089020 
	C170.587326,133.852463 165.436890,135.236664 161.104858,134.948929 
	C161.081436,133.908981 161.058014,132.869019 161.531281,131.422745 
	C182.461517,131.016418 202.895065,131.016418 223.509003,131.016418 
	C224.043549,136.338470 224.665909,141.064453 224.899384,145.809540 
	C224.964340,147.129349 223.877640,148.505829 223.319305,149.856293 
	C222.221710,148.666687 220.578033,147.650833 220.133392,146.253448 
	C218.998703,142.687241 218.061432,138.607941 213.851898,138.204453 
	C204.403458,137.298767 194.887665,137.095917 185.473495,136.610748 
	C185.473495,147.525055 185.473495,157.078629 185.473495,166.994904 
	C192.088181,166.994904 198.234482,166.971512 204.380493,167.002350 
	C209.269592,167.026871 212.042694,164.649460 213.059784,159.879089 
	C213.426086,158.161087 214.363464,156.564850 215.040237,154.913055 
	C215.498535,155.028015 215.956833,155.142975 216.415131,155.257950 
	C216.415131,165.016342 216.415131,174.774719 216.415131,184.533112 
	C216.003647,184.760345 215.592148,184.987579 215.180664,185.214813 
	C214.455582,183.852936 213.121231,182.493683 213.115341,181.128677 
	C213.094467,176.299820 209.936539,173.755325 206.155945,173.381607 
	C199.310165,172.704880 192.349533,173.189911 185.031448,173.189911 
	C185.031448,183.167633 184.976288,192.468277 185.062485,201.767578 
	C185.091217,204.866119 186.908585,206.829926 189.995956,206.908539 
	C196.152084,207.065277 202.324478,207.132599 208.473343,206.859161 
	C213.824570,206.621155 218.401642,204.362534 221.540222,199.873184 
	C222.685669,198.234772 223.330414,196.246323 224.203583,194.417557 
	C222.511673,193.940079 220.783630,193.559967 219.140778,192.950287 
	C218.076447,192.555313 217.136581,191.824921 216.140945,191.244827 
	C216.970825,190.479553 217.714218,189.582581 218.645187,188.971222 
	C223.347458,185.883102 228.098526,182.869308 232.832474,179.829453 
	C232.832474,179.829453 232.891663,179.694382 233.083740,179.423584 
	C240.389954,170.386139 247.533035,161.642517 254.560715,152.807083 
	C255.095840,152.134338 255.277542,150.501648 254.836426,149.839584 
	C251.580673,144.953140 248.124908,140.199936 244.732071,135.404816 
	C244.732071,135.404816 244.731644,135.329346 244.506027,135.039856 
	C241.201004,130.461990 238.121597,126.173615 235.042191,121.885223 
	C234.966888,121.572945 234.797623,121.324745 234.164917,120.743607 
	C230.076248,114.673729 224.123611,113.158974 218.041779,111.884750 
	C218.039444,111.175598 218.037125,110.466438 218.531372,109.386856 
	C231.568390,109.016418 244.108795,109.016418 256.649200,109.016418 
	C256.851440,109.613678 257.053650,110.210938 257.255890,110.808197 
	C255.975006,111.557381 254.776627,112.571373 253.396317,113.001282 
	C250.409103,113.931679 248.343628,115.697922 250.141022,118.677574 
	C254.505905,125.913498 259.327362,132.874008 264.250549,140.381104 
	C269.261017,134.036163 273.526733,128.395599 278.046906,122.966888 
	C284.616302,115.077141 282.509064,113.499557 273.104889,111.948944 
	C273.082153,111.224037 273.059418,110.499138 273.532288,109.395325 
	C283.954895,109.016426 293.881866,109.016426 303.808838,109.016426 
	C304.031647,109.675377 304.254456,110.334328 304.477264,110.993279 
	C285.993774,116.553101 280.012299,134.263000 267.896088,146.238159 
	C272.263062,152.364807 276.265472,157.979996 280.267914,163.595184 
	C280.267914,163.595184 280.268372,163.670654 280.493988,163.960175 
	C284.235687,169.364868 287.751801,174.480026 291.267914,179.595184 
	C291.267914,179.595184 291.272400,179.661697 291.478943,179.924347 
	C292.547791,181.323669 293.410065,182.460358 294.272339,183.597046 
	C294.272339,183.597046 294.308685,183.749557 294.592499,184.023682 
	C297.387390,185.769775 299.959564,187.149551 302.382294,188.754852 
	C303.498535,189.494461 304.322327,190.675446 305.815918,192.207245 
	C303.902802,192.690247 303.426178,192.914688 302.949036,192.915771 
	C291.667664,192.941391 280.386261,192.942963 269.104858,192.948929 
	C269.081421,191.908981 269.057983,190.869019 269.467194,189.422180 
	C275.884460,188.617737 278.335083,186.297562 276.119751,182.638107 
	C271.049103,174.261963 265.515533,166.166031 259.673798,157.194290 
	C253.352234,165.427536 247.437164,172.891266 241.799881,180.559204 
	C238.138153,185.539963 238.704407,186.821960 244.280075,188.987183 
	C245.270248,189.371704 246.002594,190.420197 246.853989,191.162094 
	C245.723083,191.770752 244.615143,192.847687 243.457184,192.904434 
	C239.169281,193.114517 234.864883,192.988068 230.556351,192.988068 
	C228.781021,198.265152 226.963165,203.042648 225.600189,207.946594 
	C224.733475,211.064957 223.144409,212.079956 219.959503,212.057587 
	C200.341995,211.919907 180.723221,211.964767 161.104858,211.948929 
	C161.082123,211.224030 161.059387,210.499115 161.486877,209.395172 
	C169.855698,208.838730 171.156158,207.916977 171.833344,202.001785 
z"/>
<path fill="#47704C" opacity="1.000000" stroke="none" 
	d="
M232.430603,179.792114 
	C228.098526,182.869308 223.347458,185.883102 218.645187,188.971222 
	C217.714218,189.582581 216.970825,190.479553 216.140945,191.244827 
	C217.136581,191.824921 218.076447,192.555313 219.140778,192.950287 
	C220.783630,193.559967 222.511673,193.940079 224.203583,194.417557 
	C223.330414,196.246323 222.685669,198.234772 221.540222,199.873184 
	C218.401642,204.362534 213.824570,206.621155 208.473343,206.859161 
	C202.324478,207.132599 196.152084,207.065277 189.995956,206.908539 
	C186.908585,206.829926 185.091217,204.866119 185.062485,201.767578 
	C184.976288,192.468277 185.031448,183.167633 185.031448,173.189911 
	C192.349533,173.189911 199.310165,172.704880 206.155945,173.381607 
	C209.936539,173.755325 213.094467,176.299820 213.115341,181.128677 
	C213.121231,182.493683 214.455582,183.852936 215.180664,185.214813 
	C215.592148,184.987579 216.003647,184.760345 216.415131,184.533112 
	C216.415131,174.774719 216.415131,165.016342 216.415131,155.257950 
	C215.956833,155.142975 215.498535,155.028015 215.040237,154.913055 
	C214.363464,156.564850 213.426086,158.161087 213.059784,159.879089 
	C212.042694,164.649460 209.269592,167.026871 204.380493,167.002350 
	C198.234482,166.971512 192.088181,166.994904 185.473495,166.994904 
	C185.473495,157.078629 185.473495,147.525055 185.473495,136.610748 
	C194.887665,137.095917 204.403458,137.298767 213.851898,138.204453 
	C218.061432,138.607941 218.998703,142.687241 220.133392,146.253448 
	C220.578033,147.650833 222.221710,148.666687 223.319305,149.856293 
	C223.877640,148.505829 224.964340,147.129349 224.899384,145.809540 
	C224.665909,141.064453 224.043549,136.338470 223.509003,131.016418 
	C202.895065,131.016418 182.461517,131.016418 161.566269,131.033875 
	C160.333298,127.464226 163.014862,127.569321 165.267944,126.937180 
	C166.524017,126.584755 167.586609,125.542770 168.736404,124.811531 
	C167.957825,123.601730 167.378647,121.573631 166.365417,121.326706 
	C162.412842,120.363487 158.287247,119.420334 154.305130,119.680603 
	C153.079605,119.760696 151.214478,123.681038 151.164108,125.877853 
	C150.862732,139.021286 151.005341,152.174896 151.000336,165.325104 
	C150.998932,168.987198 151.127289,172.654648 150.970627,176.309998 
	C150.778793,180.786591 151.324615,184.374390 156.596481,185.951370 
	C158.384613,186.486237 159.836044,189.166199 160.808212,191.172684 
	C162.304092,194.259979 161.020691,196.678528 157.554321,196.740036 
	C146.575912,196.934891 135.589706,196.920166 124.613380,196.676666 
	C123.398582,196.649719 122.228050,194.627304 121.536560,193.258301 
	C132.858658,192.986237 143.681885,193.042068 154.502594,192.902496 
	C155.622650,192.888062 156.727692,191.711105 157.839691,191.073547 
	C156.775040,190.385208 155.771606,189.236115 154.635559,189.085159 
	C148.428558,188.260406 147.019089,186.835052 147.010986,180.448975 
	C146.985641,160.468933 146.994736,140.488846 147.014175,120.508797 
	C147.015747,118.889107 147.197601,117.269600 147.379623,114.264084 
	C153.735306,115.174507 159.764069,115.591461 165.548523,117.006813 
	C170.249802,118.157120 170.583038,123.054665 171.992004,126.888451 
	C172.293655,127.709259 173.479660,128.205078 174.258255,128.850601 
	C174.827164,128.019897 175.914383,127.168091 175.881561,126.361908 
	C175.654312,120.782005 175.193878,115.211601 174.767151,109.042961 
	C151.295212,109.042961 128.204559,109.042961 105.113907,109.042961 
	C106.026360,107.781189 106.708572,106.169960 107.924515,105.368820 
	C108.887924,104.734055 110.505730,105.021843 111.833061,105.020714 
	C130.473709,105.004807 149.114426,104.978554 167.754959,105.025635 
	C174.649994,105.043053 177.429337,107.412971 178.730484,114.035461 
	C181.277618,126.999794 181.277618,126.997856 194.467880,127.000748 
	C202.123840,127.002426 209.780533,126.948189 217.435532,127.037430 
	C223.491043,127.108032 226.397110,129.348648 227.490799,135.250732 
	C228.275925,139.487686 228.811691,143.851151 228.694809,148.137344 
	C228.644699,149.975845 226.923660,152.928391 225.477402,153.259613 
	C223.868210,153.628143 220.346222,151.924728 220.003723,150.541992 
	C217.455948,140.256317 209.581665,140.957397 201.825790,140.984787 
	C188.943100,141.030258 188.942947,140.988632 189.001740,153.795792 
	C189.041885,162.541916 189.480820,162.972794 198.427032,162.996506 
	C200.091263,163.000916 201.757965,162.916397 203.419373,162.980408 
	C208.071457,163.159637 210.861771,161.089432 212.217514,156.550400 
	C212.716660,154.879288 214.363739,153.551041 215.487228,152.066406 
	C216.818466,153.441772 218.636154,154.602310 219.361694,156.245163 
	C220.338409,158.456741 220.781647,161.024734 220.903915,163.467285 
	C221.144974,168.282654 220.916885,173.119476 221.051102,177.942749 
	C221.201050,183.331039 222.251465,183.833496 226.926407,181.388290 
	C228.485474,180.572845 230.320068,180.284241 232.430603,179.792114 
z"/>
<path fill="#47704C" opacity="1.000000" stroke="none" 
	d="
M17.113914,109.042961 
	C16.380823,105.862106 18.543177,105.191132 20.835957,105.168106 
	C30.811340,105.067917 40.805740,104.805115 50.751732,105.353752 
	C53.087921,105.482620 55.910648,108.119156 57.364315,110.348717 
	C59.733837,113.982964 58.339329,116.679649 54.043949,116.779579 
	C48.000015,116.920204 45.666435,119.978653 45.605202,125.469765 
	C45.412457,142.753448 45.199059,160.038147 45.272713,177.321274 
	C45.278927,178.779526 47.288490,181.404922 48.500401,181.485428 
	C54.845638,181.907028 61.233810,181.682404 67.607056,181.682404 
	C67.616005,181.109161 67.624954,180.535904 67.633904,179.962662 
	C63.954124,179.962662 60.268291,180.090469 56.596741,179.916611 
	C54.246441,179.805328 51.271549,180.294205 51.536484,176.258286 
	C58.913410,175.986252 65.790840,175.986252 72.668274,175.986252 
	C72.791466,175.497131 72.914665,175.008011 73.037857,174.518890 
	C72.263794,173.970093 71.519905,173.371246 70.709648,172.882446 
	C68.764702,171.709152 64.884674,171.760468 66.240051,168.230026 
	C67.994743,163.659454 70.655251,159.435501 72.969833,155.085754 
	C73.050278,154.934570 73.603188,155.020142 73.935890,155.020004 
	C81.083771,155.017166 88.231644,155.017838 95.353081,155.017838 
	C96.698021,158.253616 98.027321,161.091751 99.069992,164.031540 
	C101.633484,171.259216 101.578712,171.272537 94.504936,173.496948 
	C94.330582,173.551773 94.306076,174.083115 93.754318,175.889816 
	C103.032356,176.008575 111.865318,176.284821 121.016251,175.605713 
	C120.691246,174.407990 120.669930,173.605957 120.424683,173.530350 
	C111.996620,170.932358 110.514839,163.225677 107.692703,156.450668 
	C101.598389,141.820221 95.442383,127.215057 89.198914,112.647858 
	C88.616646,111.289299 87.230934,110.275093 86.218269,109.100998 
	C85.227013,110.206642 83.858284,111.149879 83.302055,112.442703 
	C76.712151,127.759567 70.491951,143.241074 63.617836,158.427292 
	C60.957027,164.305527 59.652138,171.944290 51.114250,173.042664 
	C51.606129,171.749924 51.737377,169.739761 52.648781,169.281616 
	C58.293320,166.444244 60.166805,160.976685 62.404819,155.834976 
	C68.921501,140.863297 75.204475,125.789680 81.762451,110.836456 
	C82.604630,108.916145 84.530716,107.471191 85.954681,105.806023 
	C87.541740,107.372124 89.780373,108.652061 90.613586,110.549240 
	C97.780907,126.868614 104.742683,143.279175 111.648544,159.711807 
	C113.297691,163.635986 115.043747,167.138382 119.220497,169.159958 
	C120.972176,170.007797 122.282791,172.172012 123.317970,174.006348 
	C125.173218,177.293854 124.140610,179.721893 120.223976,179.799515 
	C110.968643,179.982880 101.707214,179.858383 91.059395,179.858383 
	C90.176460,182.378540 88.503975,186.464920 87.329567,190.689758 
	C86.049980,195.292969 83.320557,197.074783 78.597977,197.039047 
	C60.102615,196.899139 41.605381,197.021133 23.109468,196.924759 
	C20.650866,196.911972 17.415176,197.579407 17.536589,193.258301 
	C39.159733,192.986252 60.283306,192.986252 81.603470,192.986252 
	C84.119431,184.992325 86.519821,177.365601 88.951759,169.638626 
	C84.381981,167.967148 84.111816,171.705124 83.199806,173.687103 
	C79.213654,182.349731 72.677383,186.461182 63.146923,186.029022 
	C59.074142,185.844345 54.986397,185.933853 50.906311,185.977982 
	C42.926022,186.064270 41.691685,186.524612 41.276417,177.769333 
	C40.448990,160.324402 40.691311,142.803528 41.157726,125.331810 
	C41.438358,114.819244 42.009148,114.868469 52.532219,112.889381 
	C53.386959,112.728622 54.071491,111.662834 54.835114,111.017593 
	C53.750923,110.350227 52.673264,109.115433 51.581543,109.102875 
	C40.093624,108.970726 28.603458,109.033813 17.113914,109.042961 
z"/>
<path fill="#000000" opacity="1.000000" stroke="none" 
	d="
M105.075203,109.506462 
	C128.204559,109.042961 151.295212,109.042961 174.767151,109.042961 
	C175.193878,115.211601 175.654312,120.782005 175.881561,126.361908 
	C175.914383,127.168091 174.827164,128.019897 174.258255,128.850601 
	C173.479660,128.205078 172.293655,127.709259 171.992004,126.888451 
	C170.583038,123.054665 170.249802,118.157120 165.548523,117.006813 
	C159.764069,115.591461 153.735306,115.174507 147.379623,114.264084 
	C147.197601,117.269600 147.015747,118.889107 147.014175,120.508797 
	C146.994736,140.488846 146.985641,160.468933 147.010986,180.448975 
	C147.019089,186.835052 148.428558,188.260406 154.635559,189.085159 
	C155.771606,189.236115 156.775040,190.385208 157.839691,191.073547 
	C156.727692,191.711105 155.622650,192.888062 154.502594,192.902496 
	C143.681885,193.042068 132.858658,192.986237 121.574997,192.971619 
	C121.088860,192.228683 121.063866,191.500351 121.423370,190.228073 
	C125.149292,188.402145 128.490723,187.120178 131.832153,185.838211 
	C131.832153,185.838211 131.889145,185.683380 132.080551,185.388275 
	C132.459091,184.062744 132.646225,183.032318 132.833344,182.001877 
	C132.871078,161.311890 132.908829,140.621902 132.940308,119.045731 
	C132.544540,117.174980 132.418030,115.604614 131.726013,115.293922 
	C121.717781,110.800804 110.099625,117.424644 108.545105,128.587372 
	C106.253838,129.278946 104.416298,129.424469 104.833344,126.001938 
	C104.901062,120.657944 104.968781,115.313957 105.075203,109.506462 
z"/>
<path fill="#000000" opacity="1.000000" stroke="none" 
	d="
M17.075748,109.432434 
	C28.603458,109.033813 40.093624,108.970726 51.581543,109.102875 
	C52.673264,109.115433 53.750923,110.350227 54.835114,111.017593 
	C54.071491,111.662834 53.386959,112.728622 52.532219,112.889381 
	C42.009148,114.868469 41.438358,114.819244 41.157726,125.331810 
	C40.691311,142.803528 40.448990,160.324402 41.276417,177.769333 
	C41.691685,186.524612 42.926022,186.064270 50.906311,185.977982 
	C54.986397,185.933853 59.074142,185.844345 63.146923,186.029022 
	C72.677383,186.461182 79.213654,182.349731 83.199806,173.687103 
	C84.111816,171.705124 84.381981,167.967148 88.951759,169.638626 
	C86.519821,177.365601 84.119431,184.992325 81.603470,192.986252 
	C60.283306,192.986252 39.159733,192.986252 17.575024,192.971634 
	C17.087486,191.914948 17.061083,190.872879 17.493761,189.423615 
	C21.303480,188.691940 25.399982,190.134293 26.833076,185.267563 
	C26.833076,185.267563 26.705385,184.828751 26.825401,184.581360 
	C27.241390,183.223282 27.537363,182.112610 27.833336,181.001923 
	C27.871078,160.977798 27.908821,140.953674 27.938824,120.087189 
	C27.189812,112.215401 21.862110,113.072647 17.104877,112.948929 
	C17.082445,111.906586 17.060015,110.864250 17.075748,109.432434 
z"/>
<path fill="#000000" opacity="1.000000" stroke="none" 
	d="
M51.077145,173.406052 
	C59.652138,171.944290 60.957027,164.305527 63.617836,158.427292 
	C70.491951,143.241074 76.712151,127.759567 83.302055,112.442703 
	C83.858284,111.149879 85.227013,110.206642 86.218269,109.100998 
	C87.230934,110.275093 88.616646,111.289299 89.198914,112.647858 
	C95.442383,127.215057 101.598389,141.820221 107.692703,156.450668 
	C110.514839,163.225677 111.996620,170.932358 120.424683,173.530350 
	C120.669930,173.605957 120.691246,174.407990 121.016251,175.605713 
	C111.865318,176.284821 103.032356,176.008575 93.754318,175.889816 
	C94.306076,174.083115 94.330582,173.551773 94.504936,173.496948 
	C101.578712,171.272537 101.633484,171.259216 99.069992,164.031540 
	C98.027321,161.091751 96.698021,158.253616 95.353081,155.017838 
	C88.231644,155.017838 81.083771,155.017166 73.935890,155.020004 
	C73.603188,155.020142 73.050278,154.934570 72.969833,155.085754 
	C70.655251,159.435501 67.994743,163.659454 66.240051,168.230026 
	C64.884674,171.760468 68.764702,171.709152 70.709648,172.882446 
	C71.519905,173.371246 72.263794,173.970093 73.037857,174.518890 
	C72.914665,175.008011 72.791466,175.497131 72.668274,175.986252 
	C65.790840,175.986252 58.913410,175.986252 51.574913,175.971619 
	C51.089249,175.227798 51.064644,174.498627 51.077145,173.406052 
M88.119698,137.377899 
	C86.770882,134.327621 85.422066,131.277344 83.446602,126.809937 
	C79.990524,134.966385 77.172043,141.618073 74.130463,148.796280 
	C80.708008,148.796280 86.287071,148.796280 92.649887,148.796280 
	C91.159706,144.926025 89.833954,141.482819 88.119698,137.377899 
z"/>
<path fill="#47704C" opacity="1.000000" stroke="none" 
	d="
M161.067322,212.236450 
	C180.723221,211.964767 200.341995,211.919907 219.959503,212.057587 
	C223.144409,212.079956 224.733475,211.064957 225.600189,207.946594 
	C226.963165,203.042648 228.781021,198.265152 230.556351,192.988068 
	C234.864883,192.988068 239.169281,193.114517 243.457184,192.904434 
	C244.615143,192.847687 245.723083,191.770752 246.853989,191.162094 
	C246.002594,190.420197 245.270248,189.371704 244.280075,188.987183 
	C238.704407,186.821960 238.138153,185.539963 241.799881,180.559204 
	C247.437164,172.891266 253.352234,165.427536 259.673798,157.194290 
	C265.515533,166.166031 271.049103,174.261963 276.119751,182.638107 
	C278.335083,186.297562 275.884460,188.617737 269.502197,189.033295 
	C269.342712,187.989044 269.264618,186.255234 269.868988,185.970627 
	C274.744751,183.674652 272.655304,180.899918 270.681152,178.010284 
	C268.241821,174.439758 265.861969,170.828659 263.439819,167.246307 
	C261.847809,164.891724 260.119110,164.653854 258.289612,166.994400 
	C254.808411,171.448074 250.916824,175.660767 248.067307,180.488052 
	C246.969650,182.347534 247.543228,185.934128 248.574707,188.171707 
	C251.734390,195.025970 250.869003,196.795349 243.328949,196.988770 
	C234.106964,197.225342 234.106979,197.225357 231.149170,206.052536 
	C227.823380,215.977997 227.822311,215.992264 217.483597,215.996277 
	C200.850708,216.002731 184.217392,216.048355 167.585419,215.921860 
	C165.034470,215.902466 161.531555,216.866211 161.067322,212.236450 
z"/>
<path fill="#47704C" opacity="1.000000" stroke="none" 
	d="
M280.267578,163.208466 
	C276.265472,157.979996 272.263062,152.364807 267.896088,146.238159 
	C280.012299,134.263000 285.993774,116.553101 304.477264,110.993279 
	C304.254456,110.334328 304.031647,109.675377 303.808838,109.016426 
	C293.881866,109.016426 283.954895,109.016426 273.566254,109.033890 
	C274.179169,107.760216 275.214050,105.391624 276.334656,105.350349 
	C284.465057,105.050842 292.665375,104.716415 300.721924,105.557983 
	C303.055206,105.801712 305.343262,109.649338 306.816559,112.307831 
	C307.115051,112.846390 303.731140,115.568245 301.902008,117.114609 
	C297.645996,120.712746 292.870667,123.804886 289.103058,127.845482 
	C284.245117,133.055389 280.266083,139.074265 275.710236,144.580673 
	C273.276306,147.522415 273.497101,150.090118 275.392212,153.178009 
	C277.269897,156.237518 278.662109,159.594971 280.267578,163.208466 
z"/>
<path fill="#47704C" opacity="1.000000" stroke="none" 
	d="
M273.058228,112.222839 
	C282.509064,113.499557 284.616302,115.077141 278.046906,122.966888 
	C273.526733,128.395599 269.261017,134.036163 264.250549,140.381104 
	C259.327362,132.874008 254.505905,125.913498 250.141022,118.677574 
	C248.343628,115.697922 250.409103,113.931679 253.396317,113.001282 
	C254.776627,112.571373 255.975006,111.557381 257.255890,110.808197 
	C257.053650,110.210938 256.851440,109.613678 256.649200,109.016418 
	C244.108795,109.016418 231.568390,109.016418 218.566284,109.033875 
	C217.381073,105.891785 219.514954,105.188080 221.812592,105.170395 
	C232.596512,105.087433 243.405319,104.775146 254.147888,105.453247 
	C256.546082,105.604637 259.125732,109.160667 260.719940,111.712608 
	C261.163452,112.422585 258.713348,115.641960 256.986633,116.837898 
	C254.533142,118.537216 253.926910,120.301529 255.340591,122.663445 
	C257.297913,125.933640 259.428345,129.107681 261.619690,132.228058 
	C263.451569,134.836548 265.447418,134.402832 267.291443,132.149963 
	C268.973053,130.095566 270.546753,127.949326 272.288666,125.948639 
	C275.608185,122.135918 279.270325,118.428024 273.153259,113.932220 
	C272.894287,113.741852 273.049377,112.988052 273.058228,112.222839 
z"/>
<path fill="#47704C" opacity="1.000000" stroke="none" 
	d="
M269.067322,193.236450 
	C280.386261,192.942963 291.667664,192.941391 302.949036,192.915771 
	C303.426178,192.914688 303.902802,192.690247 305.815918,192.207245 
	C304.322327,190.675446 303.498535,189.494461 302.382294,188.754852 
	C299.959564,187.149551 297.387390,185.769775 294.667053,184.047836 
	C301.439240,183.202148 305.710541,185.469727 307.775940,190.813278 
	C309.083588,194.196442 308.224365,196.683807 304.423859,196.755798 
	C293.813812,196.956741 283.194946,196.926407 272.587006,196.673264 
	C271.376892,196.644394 270.214355,194.622009 269.067322,193.236450 
z"/>
<path fill="#47704C" opacity="1.000000" stroke="none" 
	d="
M104.626129,126.245819 
	C104.416298,129.424469 106.253838,129.278946 108.545105,128.587372 
	C110.099625,117.424644 121.717781,110.800804 131.726013,115.293922 
	C132.418030,115.604614 132.544540,117.174980 132.883682,118.580093 
	C130.007812,119.040451 127.172958,118.947807 124.358559,119.145821 
	C116.984589,119.664619 114.936615,121.296089 112.977753,128.563873 
	C112.054008,131.991196 109.994484,133.392838 106.750877,132.554337 
	C103.486229,131.710419 102.554176,129.528625 104.626129,126.245819 
z"/>
<path fill="#47704C" opacity="1.000000" stroke="none" 
	d="
M244.732391,135.791565 
	C248.124908,140.199936 251.580673,144.953140 254.836426,149.839584 
	C255.277542,150.501648 255.095840,152.134338 254.560715,152.807083 
	C247.533035,161.642517 240.389954,170.386139 233.036316,179.367142 
	C233.573135,177.491211 233.933273,175.095535 235.201920,173.366455 
	C239.424301,167.611725 243.756134,161.905701 248.466187,156.550568 
	C252.127274,152.388092 251.845993,148.806793 248.807449,144.539261 
	C247.033722,142.048111 246.064117,138.984406 244.732391,135.791565 
z"/>
<path fill="#47704C" opacity="1.000000" stroke="none" 
	d="
M218.126297,112.240967 
	C224.123611,113.158974 230.076248,114.673729 233.954742,120.651894 
	C230.089828,119.537605 225.965057,118.340523 222.090271,116.590080 
	C220.516937,115.879318 219.487656,113.964264 218.126297,112.240967 
z"/>
<path fill="#47704C" opacity="1.000000" stroke="none" 
	d="
M171.527496,202.163788 
	C171.156158,207.916977 169.855698,208.838730 161.520828,209.033722 
	C162.082550,207.720245 162.791504,205.935028 164.099136,205.160431 
	C166.270935,203.873901 168.827286,203.236572 171.527496,202.163788 
z"/>
<path fill="#47704C" opacity="1.000000" stroke="none" 
	d="
M161.066101,135.232681 
	C165.436890,135.236664 170.587326,133.852463 171.881577,140.623276 
	C169.514374,140.314896 167.079468,139.877716 164.916382,138.861786 
	C163.425232,138.161438 162.310379,136.659912 161.066101,135.232681 
z"/>
<path fill="#47704C" opacity="1.000000" stroke="none" 
	d="
M17.066521,113.233803 
	C21.862110,113.072647 27.189812,112.215401 27.882210,119.621475 
	C25.516422,118.972626 23.106108,118.111168 20.915459,116.863899 
	C19.457457,116.033775 18.312977,114.652992 17.066521,113.233803 
z"/>
<path fill="#47704C" opacity="1.000000" stroke="none" 
	d="
M291.267578,179.208496 
	C287.751801,174.480026 284.235687,169.364868 280.531738,163.959991 
	C286.632660,166.811935 289.277588,172.580658 291.267578,179.208496 
z"/>
<path fill="#47704C" opacity="1.000000" stroke="none" 
	d="
M131.340363,185.729218 
	C128.490723,187.120178 125.149292,188.402145 121.459244,189.864990 
	C120.175293,186.264877 122.677940,185.447266 125.498375,185.231705 
	C127.261574,185.096939 129.063828,185.473236 131.340363,185.729218 
z"/>
<path fill="#47704C" opacity="1.000000" stroke="none" 
	d="
M26.339993,185.232178 
	C25.399982,190.134293 21.303480,188.691940 17.528728,189.033859 
	C18.262379,187.754700 19.193329,185.939987 20.641235,185.306107 
	C22.110765,184.662766 24.090576,185.184998 26.339993,185.232178 
z"/>
<path fill="#47704C" opacity="1.000000" stroke="none" 
	d="
M235.104492,122.253220 
	C238.121597,126.173615 241.201004,130.461990 244.468292,135.040054 
	C238.921234,133.013901 237.005585,127.846268 235.104492,122.253220 
z"/>
<path fill="#47704C" opacity="1.000000" stroke="none" 
	d="
M294.258362,183.242325 
	C293.410065,182.460358 292.547791,181.323669 291.511719,179.918213 
	C292.306763,180.728806 293.275574,181.808212 294.258362,183.242325 
z"/>
<path fill="#47704C" opacity="1.000000" stroke="none" 
	d="
M27.628857,181.269150 
	C27.537363,182.112610 27.241390,183.223282 26.608814,184.508514 
	C26.656267,183.634155 27.040321,182.585266 27.628857,181.269150 
z"/>
<path fill="#47704C" opacity="1.000000" stroke="none" 
	d="
M132.643646,182.251556 
	C132.646225,183.032318 132.459091,184.062744 132.030319,185.322845 
	C132.010437,184.535416 132.232193,183.518311 132.643646,182.251556 
z"/>
<path fill="#47704C" opacity="1.000000" stroke="none" 
	d="
M88.313950,137.708755 
	C89.833954,141.482819 91.159706,144.926025 92.649887,148.796280 
	C86.287071,148.796280 80.708008,148.796280 74.130463,148.796280 
	C77.172043,141.618073 79.990524,134.966385 83.446602,126.809937 
	C85.422066,131.277344 86.770882,134.327621 88.313950,137.708755 
z"/>
</svg>