<svg version="1.1" id="Layer_1" xmlns="http://www.w3.org/2000/svg" xmlns:xlink="http://www.w3.org/1999/xlink" x="0px" y="0px"
	 width="100%" viewBox="0 0 1620 1080" enable-background="new 0 0 1620 1080" xml:space="preserve">
<path fill="#4B82F1" opacity="1.000000" stroke="none" 
	d="
M891.000000,1081.000000 
	C594.000000,1081.000000 297.500000,1081.000000 1.000000,1081.000000 
	C1.000000,721.000000 1.000000,361.000000 1.000000,1.000000 
	C541.000000,1.000000 1081.000000,1.000000 1621.000000,1.000000 
	C1621.000000,361.000000 1621.000000,721.000000 1621.000000,1081.000000 
	C1377.833374,1081.000000 1134.666626,1081.000000 891.000000,1081.000000 
M890.513794,655.986267 
	C910.599854,654.649963 930.800720,654.232239 950.742249,651.739746 
	C974.484680,648.772156 997.481079,642.376160 1017.728638,628.813354 
	C1031.220093,619.776123 1039.140503,607.821106 1039.064819,590.586914 
	C1038.735107,515.595886 1038.884644,440.602509 1038.963013,365.610077 
	C1038.974243,354.857513 1035.333496,345.819092 1027.968506,338.085297 
	C1017.667603,327.268646 1004.539246,321.291290 990.894958,316.191040 
	C966.759460,307.169067 941.540771,303.772247 916.022949,302.479065 
	C882.377563,300.774078 849.089722,303.374695 816.660400,313.098450 
	C802.425781,317.366638 788.596313,322.830414 776.798035,332.193085 
	C766.806580,340.121948 759.482727,349.722992 759.485840,363.340210 
	C759.503418,440.165833 759.522644,516.991455 759.460510,593.817078 
	C759.453125,602.910278 762.365662,610.797119 768.097778,617.705933 
	C774.943909,625.957581 783.739990,631.619751 793.317566,636.115601 
	C823.789612,650.419373 856.408264,654.408203 890.513794,655.986267 
M797.500000,245.839447 
	C822.331604,245.839462 847.163269,245.839050 871.994873,245.839706 
	C881.389038,245.839951 881.389465,245.841064 881.390259,255.477417 
	C881.390930,263.239685 881.390381,271.001953 881.390381,278.646759 
	C887.655579,278.646759 893.088135,278.646759 898.858337,278.646759 
	C898.956787,276.652161 899.102661,275.032349 899.105896,273.412262 
	C899.126709,262.913025 899.145691,252.413605 899.109009,241.914459 
	C899.065979,229.590073 893.397034,223.999725 880.972107,223.999084 
	C787.811768,223.994171 694.651367,223.993912 601.491028,223.999283 
	C588.708191,224.000015 583.293701,229.405807 583.277405,242.253571 
	C583.248230,265.251984 583.263367,288.250458 583.271851,311.248901 
	C583.274536,318.525513 583.589966,318.836487 590.890015,318.837128 
	C640.719971,318.841431 690.551086,318.665741 740.378967,318.986572 
	C750.291016,319.050385 759.231628,318.484924 766.760742,310.920441 
	C770.112122,307.553253 774.793518,305.509796 779.966431,302.155273 
	C775.464111,302.155273 772.329285,302.052582 769.203979,302.181396 
	C765.348267,302.340302 763.902710,300.648315 763.935303,296.793762 
	C764.063721,281.629211 764.093567,266.461731 763.918213,251.298111 
	C763.869751,247.109146 765.456848,245.706818 769.502930,245.786362 
	C778.498840,245.963226 787.500610,245.840195 797.500000,245.839447 
M738.490662,347.213562 
	C739.946716,343.269775 741.402832,339.325989 743.001221,334.996765 
	C740.760681,334.996765 739.103149,334.996765 737.445557,334.996765 
	C692.125000,334.996796 646.804504,334.992096 601.483948,334.999786 
	C588.709290,335.001984 583.294006,340.409515 583.277954,353.252930 
	C583.249207,376.246399 583.264160,399.239960 583.272461,422.233459 
	C583.275085,429.528229 583.585144,429.835754 590.872620,429.836456 
	C637.359497,429.841034 683.846375,429.838806 730.333252,429.838806 
	C732.107605,429.838806 733.881897,429.838806 736.155701,429.838806 
	C736.155701,427.361633 736.155701,425.564453 736.155701,423.767303 
	C736.156128,404.272797 736.002747,384.776337 736.251404,365.285004 
	C736.325073,359.510925 737.531067,353.751282 738.490662,347.213562 
M658.500000,540.840637 
	C684.244507,540.840637 709.989075,540.840637 735.718933,540.840637 
	C735.718933,508.907959 735.718933,477.722565 735.718933,446.159698 
	C733.806702,446.159698 732.332336,446.159668 730.857971,446.159668 
	C687.563660,446.159698 644.269287,446.143402 600.974976,446.170471 
	C588.991333,446.177948 583.299316,451.916962 583.279297,463.994354 
	C583.240601,487.306641 583.258118,510.618988 583.274536,533.931335 
	C583.278992,540.249390 583.848022,540.828735 590.060730,540.833557 
	C612.540466,540.850830 635.020264,540.840515 658.500000,540.840637 
M460.067505,782.528687 
	C453.973969,800.310852 447.880402,818.093018 441.786835,835.875183 
	C441.316650,835.813843 440.846466,835.752502 440.376282,835.691162 
	C439.593842,833.548828 438.776886,831.418457 438.034302,829.262390 
	C430.016479,805.982727 422.039429,782.688904 413.940613,759.437500 
	C413.352875,757.750183 411.955658,755.083740 410.846619,755.038574 
	C401.958191,754.676636 393.048523,754.836243 384.182068,754.836243 
	C384.182068,791.957703 384.182068,828.214294 384.182068,864.610107 
	C390.828278,864.610107 397.193237,864.610107 404.192993,864.610107 
	C404.192993,840.240723 404.192993,816.258118 404.192993,792.275513 
	C404.633575,792.179626 405.074127,792.083740 405.514709,791.987854 
	C406.147247,793.564514 406.842163,795.119263 407.402832,796.721069 
	C413.888153,815.249634 420.359650,833.783142 426.821228,852.320007 
	C431.265930,865.070740 431.257751,864.947693 444.644043,865.087830 
	C448.182007,865.124878 449.852844,864.137146 451.032288,860.652832 
	C458.232910,839.380554 465.696198,818.197083 473.096527,796.992676 
	C473.697418,795.270874 474.483459,793.613770 475.183472,791.926636 
	C475.727539,792.048462 476.271606,792.170288 476.815674,792.292114 
	C476.815674,816.414429 476.815674,840.536743 476.815674,864.754028 
	C484.056671,864.754028 490.485535,864.754028 497.158173,864.754028 
	C497.158173,828.094910 497.158173,791.685059 497.158173,754.774597 
	C489.049835,754.774597 481.241119,754.917236 473.442139,754.703796 
	C470.356232,754.619446 469.061798,755.833740 468.171631,758.620178 
	C465.691467,766.383606 462.948395,774.063049 460.067505,782.528687 
M818.790344,865.349670 
	C835.612915,861.675659 845.262573,851.042175 845.980713,835.387085 
	C846.803772,817.444275 839.117615,806.710693 821.570068,801.372559 
	C819.505005,800.744385 817.378235,800.316284 815.275208,799.816040 
	C808.485229,798.200806 801.586609,796.939209 794.933167,794.883484 
	C788.922119,793.026245 786.253845,788.836548 786.414062,783.382568 
	C786.568665,778.120972 789.733154,774.275940 796.065613,772.872009 
	C807.325134,770.375549 817.928955,771.798523 827.051880,779.530823 
	C828.808594,781.019775 830.319702,782.674255 832.316345,779.911987 
	C835.422729,775.614197 838.563416,771.341309 841.748779,766.976746 
	C840.989075,766.066467 840.525635,765.390259 839.942932,764.840515 
	C838.976257,763.928467 838.008789,762.984253 836.910583,762.249573 
	C820.381165,751.192200 802.583496,750.520264 784.409485,756.785583 
	C772.444519,760.910400 765.757202,769.936218 765.084473,782.727661 
	C764.376526,796.189270 769.895996,806.328552 782.383606,812.070801 
	C785.985474,813.726990 789.830566,814.934143 793.661804,815.993896 
	C800.548401,817.898743 807.627747,819.172302 814.405701,821.386047 
	C821.446838,823.685669 824.346741,828.437317 823.789917,834.939209 
	C823.220520,841.588196 819.176636,845.918640 811.951294,847.096497 
	C798.146912,849.346680 786.596130,845.104431 777.754456,834.261353 
	C775.156433,831.075195 773.576721,831.329285 771.331909,834.370972 
	C768.863037,837.716248 765.905884,840.712158 763.572998,844.140320 
	C762.834412,845.225647 762.738220,847.983215 763.505981,848.657959 
	C768.448242,853.001282 773.225342,857.924500 778.970703,860.881104 
	C791.198792,867.173889 804.534851,867.603455 818.790344,865.349670 
M693.547485,821.119751 
	C709.124146,814.566406 716.394470,800.923157 713.857971,783.005554 
	C711.687134,767.670410 700.478760,756.306824 684.265747,755.315552 
	C668.010010,754.321716 651.650146,755.028259 635.335938,755.019104 
	C635.085144,755.018982 634.834106,755.398254 634.695923,755.509583 
	C634.695923,791.979736 634.695923,828.350952 634.695923,864.595947 
	C642.051453,864.595947 648.953552,864.595947 656.287354,864.595947 
	C656.287354,850.927917 656.287354,837.664917 656.287354,825.154724 
	C668.812012,823.865540 680.812500,822.630310 693.547485,821.119751 
M602.722839,857.254883 
	C609.608215,851.523132 613.694763,844.107666 616.241882,835.135620 
	C610.414490,832.128174 604.789062,829.224915 598.896912,826.183960 
	C598.284546,827.793396 598.046814,828.388306 597.830566,828.990967 
	C592.979126,842.509583 584.419739,848.413391 570.688354,847.709351 
	C556.933472,847.004028 548.191711,839.902771 544.808228,826.284485 
	C542.073181,815.275879 542.111511,804.158936 544.848694,793.153992 
	C547.904663,780.867554 555.746887,773.465759 567.377258,772.229431 
	C580.223877,770.863892 590.954285,774.026733 596.480835,786.380859 
	C596.738220,786.956299 597.223022,787.429993 598.033630,788.544739 
	C603.699402,785.112488 609.270142,781.737793 614.910034,778.321289 
	C614.213074,776.667297 613.821594,775.580750 613.311951,774.552734 
	C606.341064,760.493225 593.910767,755.303101 579.309509,753.414246 
	C551.053955,749.759094 527.936157,764.809875 522.496643,791.675598 
	C520.611450,800.986694 520.387207,810.934753 521.222961,820.431824 
	C522.832520,838.723328 530.620850,854.153992 548.365845,861.627136 
	C566.606934,869.309204 584.990662,869.316406 602.722839,857.254883 
M1108.057617,802.604187 
	C1106.781494,810.752502 1104.233643,818.938721 1104.475220,827.041809 
	C1105.116577,848.551208 1116.130737,862.040100 1135.315308,865.442932 
	C1142.066528,866.640503 1149.305908,866.529053 1156.123291,865.582153 
	C1167.192505,864.044800 1175.049438,857.427490 1180.349854,846.984009 
	C1175.301270,843.749390 1170.511841,840.680847 1165.810059,837.668457 
	C1156.856812,848.551331 1146.878174,851.580139 1136.525635,847.022400 
	C1129.467407,843.914978 1125.215332,836.063354 1126.532349,828.065125 
	C1139.925903,828.065125 1153.386475,828.065186 1166.847046,828.065186 
	C1181.795898,828.065186 1181.919189,828.056824 1180.893188,812.862793 
	C1180.105713,801.202698 1176.257446,791.029602 1165.392212,784.917786 
	C1145.289795,773.609924 1118.947266,781.486389 1108.057617,802.604187 
M861.902954,806.476074 
	C859.007080,815.560425 858.792786,824.865417 860.340332,834.133423 
	C863.211243,851.326294 873.451172,862.359009 890.235840,865.340332 
	C897.145691,866.567749 904.553040,866.502930 911.524719,865.528381 
	C922.566467,863.984924 930.398132,857.377075 935.558533,846.967590 
	C930.477478,843.696716 925.791016,840.679871 921.189880,837.717957 
	C911.206116,848.724854 902.343933,851.484619 892.032654,847.117004 
	C885.005920,844.140686 880.933289,837.088196 881.339783,828.064575 
	C883.111328,828.064575 884.914551,828.064636 886.717773,828.064575 
	C901.532166,828.064087 916.347656,827.969177 931.160278,828.129883 
	C934.843323,828.169861 936.367004,826.929504 936.103821,823.258240 
	C935.665100,817.136780 935.926575,810.903503 934.852417,804.903687 
	C933.218384,795.776672 928.103577,788.735962 919.691956,784.383484 
	C897.770813,773.040771 871.171814,782.893494 861.902954,806.476074 
M1081.798950,822.373718 
	C1086.651001,809.141296 1091.503174,795.908813 1096.655762,781.856750 
	C1090.401611,781.856750 1084.954834,782.042114 1079.528564,781.786621 
	C1076.320557,781.635620 1074.916626,782.767212 1073.879395,785.816467 
	C1068.094238,802.824402 1062.070068,819.751221 1056.105347,836.697937 
	C1055.587646,838.168762 1054.909790,839.583313 1053.677734,842.524719 
	C1052.425293,839.327271 1051.676392,837.584595 1051.053223,835.797974 
	C1045.301514,819.305786 1039.616699,802.790039 1033.766357,786.333008 
	C1033.178955,784.680481 1031.706055,782.178894 1030.510986,782.100403 
	C1024.100464,781.679443 1017.647522,781.901611 1010.379822,781.901611 
	C1020.799805,810.070923 1030.933838,837.467224 1041.119995,865.004517 
	C1048.406372,865.004517 1055.398071,864.868042 1062.380005,865.070801 
	C1065.223633,865.153381 1066.429443,864.099792 1067.361084,861.495361 
	C1071.954834,848.652222 1076.758667,835.884155 1081.798950,822.373718 
M985.986145,783.310669 
	C982.447754,786.739807 978.909363,790.168945 974.858276,794.094910 
	C974.858276,789.804626 974.858276,786.051453 974.858276,782.256775 
	C967.834961,782.256775 961.290649,782.256775 954.917664,782.256775 
	C954.917664,810.032410 954.917664,837.385742 954.917664,864.823730 
	C961.849304,864.823730 968.312622,864.823730 975.361145,864.823730 
	C975.361145,862.677734 975.343445,860.716675 975.364136,858.756042 
	C975.500854,845.775269 975.118347,832.761780 975.922913,819.822205 
	C976.910217,803.944336 984.619629,798.325806 1000.160217,801.246765 
	C1002.975708,801.775940 1003.689331,800.883484 1004.082275,798.458618 
	C1004.720337,794.521057 1005.344116,790.552490 1006.425293,786.724487 
	C1007.317688,783.564880 1005.979980,781.973267 1003.283569,781.996643 
	C997.746399,782.044495 992.213867,782.632141 985.986145,783.310669 
M1199.367676,782.923523 
	C1199.367676,810.148438 1199.367676,837.373413 1199.367676,864.717834 
	C1206.443115,864.717834 1213.016113,864.717834 1220.089233,864.717834 
	C1220.089233,854.658142 1219.974731,844.878784 1220.129639,835.103638 
	C1220.232178,828.629150 1220.228638,822.090088 1221.145630,815.705322 
	C1222.741089,804.596741 1230.645264,798.802979 1241.157227,800.353149 
	C1243.252686,800.662109 1245.313477,801.205627 1248.101807,801.790100 
	C1249.229614,796.034790 1250.435669,790.574097 1251.238159,785.054749 
	C1251.362183,784.201904 1249.825684,782.588013 1248.730957,782.159546 
	C1239.639771,778.601440 1228.590942,782.282959 1223.247803,790.446411 
	C1222.454346,791.658691 1221.583252,792.820251 1220.748169,794.005310 
	C1220.313354,793.831970 1219.878662,793.658630 1219.443848,793.485291 
	C1219.443848,789.737793 1219.443848,785.990356 1219.443848,782.207031 
	C1212.552979,782.207031 1206.261719,782.207031 1199.367676,782.923523 
z"/>
<path fill="#FCFEFF" opacity="1.000000" stroke="none" 
	d="
M890.017334,655.973816 
	C856.408264,654.408203 823.789612,650.419373 793.317566,636.115601 
	C783.739990,631.619751 774.943909,625.957581 768.097778,617.705933 
	C762.365662,610.797119 759.453125,602.910278 759.460510,593.817078 
	C759.522644,516.991455 759.503418,440.165833 759.485840,363.340210 
	C759.482727,349.722992 766.806580,340.121948 776.798035,332.193085 
	C788.596313,322.830414 802.425781,317.366638 816.660400,313.098450 
	C849.089722,303.374695 882.377563,300.774078 916.022949,302.479065 
	C941.540771,303.772247 966.759460,307.169067 990.894958,316.191040 
	C1004.539246,321.291290 1017.667603,327.268646 1027.968506,338.085297 
	C1035.333496,345.819092 1038.974243,354.857513 1038.963013,365.610077 
	C1038.884644,440.602509 1038.735107,515.595886 1039.064819,590.586914 
	C1039.140503,607.821106 1031.220093,619.776123 1017.728638,628.813354 
	C997.481079,642.376160 974.484680,648.772156 950.742249,651.739746 
	C930.800720,654.232239 910.599854,654.649963 890.017334,655.973816 
M1015.294495,361.704529 
	C1013.376953,358.677032 1011.941223,355.158630 1009.451172,352.714294 
	C1002.045715,345.444855 992.673584,341.293427 982.979248,338.176941 
	C934.037537,322.443604 884.439636,322.040741 834.519531,332.629761 
	C819.982788,335.713318 805.833618,340.282227 793.437256,348.819397 
	C779.192200,358.629761 779.102722,367.642334 794.020081,376.418549 
	C803.523376,382.009460 813.879578,386.809479 824.465576,389.787720 
	C871.087830,402.904205 918.153137,402.948914 965.273926,392.290863 
	C979.961975,388.968658 994.080872,384.017059 1006.461121,375.098022 
	C1010.825195,371.954010 1014.843445,368.419434 1015.294495,361.704529 
M1015.639160,437.257141 
	C1015.639160,424.244507 1015.639160,411.231842 1015.639160,397.585144 
	C978.635071,418.064209 939.311279,422.838776 899.221252,422.854034 
	C859.006714,422.869354 819.569092,418.028656 782.877502,397.695221 
	C782.877502,411.553558 783.220215,424.669281 782.742004,437.755066 
	C782.478149,444.974884 785.284912,450.306274 790.943665,453.721863 
	C798.582458,458.332550 806.403809,463.128357 814.785828,465.939178 
	C862.874695,482.065063 911.845093,482.648590 961.143188,472.471893 
	C977.318970,469.132721 993.094543,464.332458 1006.715088,454.365753 
	C1012.178223,450.368134 1016.391235,445.632751 1015.639160,437.257141 
M797.001160,558.557068 
	C792.476074,556.342529 787.950989,554.127930 782.877441,551.645020 
	C782.877441,564.957886 783.377014,577.465759 782.708740,589.910950 
	C782.231873,598.791748 785.830200,605.074280 793.020569,608.823547 
	C803.136169,614.097961 813.427429,619.650818 824.309692,622.732910 
	C870.902649,635.929199 917.970520,635.941162 965.088196,625.340576 
	C979.941711,621.998840 994.177368,616.934265 1006.724182,607.948364 
	C1012.623352,603.723389 1016.059875,598.498535 1015.748413,590.732117 
	C1015.301575,579.590210 1015.646973,568.416931 1015.624023,557.257080 
	C1015.620422,555.520386 1015.456360,553.784058 1015.355713,551.839722 
	C1014.225708,552.171692 1013.704407,552.223083 1013.290466,552.461121 
	C993.197144,564.018250 971.221191,569.741333 948.542114,573.119141 
	C920.240723,577.334412 891.831787,577.904053 863.372375,574.866455 
	C840.772461,572.454224 818.645813,568.044067 797.001160,558.557068 
M888.503296,553.189941 
	C914.588989,554.111389 940.422058,552.222229 965.828979,545.975830 
	C980.282227,542.422485 994.237854,537.595581 1006.524048,528.849182 
	C1012.578186,524.539307 1016.159424,519.216370 1015.753357,511.232330 
	C1015.254761,501.429443 1015.649719,491.581879 1015.619690,481.753723 
	C1015.615540,480.384674 1015.390137,479.016327 1015.240051,477.345398 
	C978.587708,497.299561 939.188171,502.202393 899.148926,502.213043 
	C858.998413,502.223724 819.504150,497.219757 782.877441,477.255310 
	C782.877441,487.449799 783.710999,497.023254 782.677063,506.390594 
	C781.219543,519.596313 787.225586,527.550293 798.218750,533.041687 
	C801.490723,534.676086 804.657654,536.564392 808.034790,537.937805 
	C833.503723,548.295898 860.200195,552.344604 888.503296,553.189941 
z"/>
<path fill="#FDFEFF" opacity="1.000000" stroke="none" 
	d="
M797.000000,245.839417 
	C787.500610,245.840195 778.498840,245.963226 769.502930,245.786362 
	C765.456848,245.706818 763.869751,247.109146 763.918213,251.298111 
	C764.093567,266.461731 764.063721,281.629211 763.935303,296.793762 
	C763.902710,300.648315 765.348267,302.340302 769.203979,302.181396 
	C772.329285,302.052582 775.464111,302.155273 779.966431,302.155273 
	C774.793518,305.509796 770.112122,307.553253 766.760742,310.920441 
	C759.231628,318.484924 750.291016,319.050385 740.378967,318.986572 
	C690.551086,318.665741 640.719971,318.841431 590.890015,318.837128 
	C583.589966,318.836487 583.274536,318.525513 583.271851,311.248901 
	C583.263367,288.250458 583.248230,265.251984 583.277405,242.253571 
	C583.293701,229.405807 588.708191,224.000015 601.491028,223.999283 
	C694.651367,223.993912 787.811768,223.994171 880.972107,223.999084 
	C893.397034,223.999725 899.065979,229.590073 899.109009,241.914459 
	C899.145691,252.413605 899.126709,262.913025 899.105896,273.412262 
	C899.102661,275.032349 898.956787,276.652161 898.858337,278.646759 
	C893.088135,278.646759 887.655579,278.646759 881.390381,278.646759 
	C881.390381,271.001953 881.390930,263.239685 881.390259,255.477417 
	C881.389465,245.841064 881.389038,245.839951 871.994873,245.839706 
	C847.163269,245.839050 822.331604,245.839462 797.000000,245.839417 
M623.254456,256.241699 
	C622.043274,256.779327 620.772400,257.213379 619.630981,257.871979 
	C613.682190,261.304657 611.155090,266.504761 611.872253,273.298401 
	C612.485046,279.103058 616.881714,284.438446 622.315125,286.032166 
	C628.905151,287.965118 635.309937,286.103302 639.309326,280.893372 
	C643.186096,275.843170 644.001648,270.276367 641.043823,264.553101 
	C637.500305,257.696533 631.645386,255.066849 623.254456,256.241699 
M656.993530,269.801605 
	C657.028137,271.128876 656.923218,272.477417 657.121338,273.779816 
	C658.031799,279.764343 662.783630,284.896301 668.544922,286.237305 
	C675.279663,287.804871 681.485718,285.596375 685.184387,280.111328 
	C688.880615,274.629852 689.103638,268.882690 685.614136,263.254761 
	C682.012207,257.445618 676.527649,254.925415 669.870361,256.087708 
	C662.786316,257.324524 658.539856,261.899445 656.993530,269.801605 
z"/>
<path fill="#FDFEFF" opacity="1.000000" stroke="none" 
	d="
M738.354370,347.599304 
	C737.531067,353.751282 736.325073,359.510925 736.251404,365.285004 
	C736.002747,384.776337 736.156128,404.272797 736.155701,423.767303 
	C736.155701,425.564453 736.155701,427.361633 736.155701,429.838806 
	C733.881897,429.838806 732.107605,429.838806 730.333252,429.838806 
	C683.846375,429.838806 637.359497,429.841034 590.872620,429.836456 
	C583.585144,429.835754 583.275085,429.528229 583.272461,422.233459 
	C583.264160,399.239960 583.249207,376.246399 583.277954,353.252930 
	C583.294006,340.409515 588.709290,335.001984 601.483948,334.999786 
	C646.804504,334.992096 692.125000,334.996796 737.445557,334.996765 
	C739.103149,334.996765 740.760681,334.996765 743.001221,334.996765 
	C741.402832,339.325989 739.946716,343.269775 738.354370,347.599304 
M641.675781,387.892883 
	C644.037109,379.197632 641.281250,372.170502 634.053040,368.455475 
	C627.769775,365.226074 619.542664,367.001984 615.137634,372.538574 
	C609.398499,379.751984 610.983826,390.031769 618.646545,395.292389 
	C626.240662,400.505951 636.244873,397.544647 641.675781,387.892883 
M685.971619,374.791321 
	C681.328979,368.116699 675.204224,365.473602 668.518311,367.259369 
	C662.342590,368.908905 657.453674,374.670837 656.991699,380.844299 
	C656.501648,387.393280 659.974060,393.841858 665.789429,396.309906 
	C671.726135,398.829468 677.505554,398.398346 682.560425,393.998138 
	C688.066833,389.204956 689.235840,383.216553 685.971619,374.791321 
z"/>
<path fill="#FCFEFF" opacity="1.000000" stroke="none" 
	d="
M658.000000,540.840576 
	C635.020264,540.840515 612.540466,540.850830 590.060730,540.833557 
	C583.848022,540.828735 583.278992,540.249390 583.274536,533.931335 
	C583.258118,510.618988 583.240601,487.306641 583.279297,463.994354 
	C583.299316,451.916962 588.991333,446.177948 600.974976,446.170471 
	C644.269287,446.143402 687.563660,446.159698 730.857971,446.159668 
	C732.332336,446.159668 733.806702,446.159698 735.718933,446.159698 
	C735.718933,477.722565 735.718933,508.907959 735.718933,540.840637 
	C709.989075,540.840637 684.244507,540.840637 658.000000,540.840576 
M686.318726,486.469757 
	C680.816589,477.732300 672.197205,475.292572 664.243530,480.221436 
	C657.083923,484.658234 654.824890,493.825531 659.086182,501.150696 
	C662.911316,507.726166 671.511353,510.580719 678.616882,507.633514 
	C686.205322,504.485992 689.482605,496.194672 686.318726,486.469757 
M633.817627,479.306061 
	C627.123291,476.456696 621.013184,477.553131 615.966919,482.653198 
	C611.478699,487.189270 610.571289,492.840088 612.748535,498.810760 
	C615.087341,505.224274 621.179749,509.112732 627.895935,508.752838 
	C634.912170,508.376831 640.405762,503.863373 642.229492,496.976746 
	C644.002502,490.281494 641.270325,484.207733 633.817627,479.306061 
z"/>
<path fill="#FEFEFF" opacity="1.000000" stroke="none" 
	d="
M460.188293,782.152222 
	C462.948395,774.063049 465.691467,766.383606 468.171631,758.620178 
	C469.061798,755.833740 470.356232,754.619446 473.442139,754.703796 
	C481.241119,754.917236 489.049835,754.774597 497.158173,754.774597 
	C497.158173,791.685059 497.158173,828.094910 497.158173,864.754028 
	C490.485535,864.754028 484.056671,864.754028 476.815674,864.754028 
	C476.815674,840.536743 476.815674,816.414429 476.815674,792.292114 
	C476.271606,792.170288 475.727539,792.048462 475.183472,791.926636 
	C474.483459,793.613770 473.697418,795.270874 473.096527,796.992676 
	C465.696198,818.197083 458.232910,839.380554 451.032288,860.652832 
	C449.852844,864.137146 448.182007,865.124878 444.644043,865.087830 
	C431.257751,864.947693 431.265930,865.070740 426.821228,852.320007 
	C420.359650,833.783142 413.888153,815.249634 407.402832,796.721069 
	C406.842163,795.119263 406.147247,793.564514 405.514709,791.987854 
	C405.074127,792.083740 404.633575,792.179626 404.192993,792.275513 
	C404.192993,816.258118 404.192993,840.240723 404.192993,864.610107 
	C397.193237,864.610107 390.828278,864.610107 384.182068,864.610107 
	C384.182068,828.214294 384.182068,791.957703 384.182068,754.836243 
	C393.048523,754.836243 401.958191,754.676636 410.846619,755.038574 
	C411.955658,755.083740 413.352875,757.750183 413.940613,759.437500 
	C422.039429,782.688904 430.016479,805.982727 438.034302,829.262390 
	C438.776886,831.418457 439.593842,833.548828 440.376282,835.691162 
	C440.846466,835.752502 441.316650,835.813843 441.786835,835.875183 
	C447.880402,818.093018 453.973969,800.310852 460.188293,782.152222 
z"/>
<path fill="#FDFDFF" opacity="1.000000" stroke="none" 
	d="
M818.383179,865.463867 
	C804.534851,867.603455 791.198792,867.173889 778.970703,860.881104 
	C773.225342,857.924500 768.448242,853.001282 763.505981,848.657959 
	C762.738220,847.983215 762.834412,845.225647 763.572998,844.140320 
	C765.905884,840.712158 768.863037,837.716248 771.331909,834.370972 
	C773.576721,831.329285 775.156433,831.075195 777.754456,834.261353 
	C786.596130,845.104431 798.146912,849.346680 811.951294,847.096497 
	C819.176636,845.918640 823.220520,841.588196 823.789917,834.939209 
	C824.346741,828.437317 821.446838,823.685669 814.405701,821.386047 
	C807.627747,819.172302 800.548401,817.898743 793.661804,815.993896 
	C789.830566,814.934143 785.985474,813.726990 782.383606,812.070801 
	C769.895996,806.328552 764.376526,796.189270 765.084473,782.727661 
	C765.757202,769.936218 772.444519,760.910400 784.409485,756.785583 
	C802.583496,750.520264 820.381165,751.192200 836.910583,762.249573 
	C838.008789,762.984253 838.976257,763.928467 839.942932,764.840515 
	C840.525635,765.390259 840.989075,766.066467 841.748779,766.976746 
	C838.563416,771.341309 835.422729,775.614197 832.316345,779.911987 
	C830.319702,782.674255 828.808594,781.019775 827.051880,779.530823 
	C817.928955,771.798523 807.325134,770.375549 796.065613,772.872009 
	C789.733154,774.275940 786.568665,778.120972 786.414062,783.382568 
	C786.253845,788.836548 788.922119,793.026245 794.933167,794.883484 
	C801.586609,796.939209 808.485229,798.200806 815.275208,799.816040 
	C817.378235,800.316284 819.505005,800.744385 821.570068,801.372559 
	C839.117615,806.710693 846.803772,817.444275 845.980713,835.387085 
	C845.262573,851.042175 835.612915,861.675659 818.383179,865.463867 
z"/>
<path fill="#FDFDFF" opacity="1.000000" stroke="none" 
	d="
M693.180237,821.257446 
	C680.812500,822.630310 668.812012,823.865540 656.287354,825.154724 
	C656.287354,837.664917 656.287354,850.927917 656.287354,864.595947 
	C648.953552,864.595947 642.051453,864.595947 634.695923,864.595947 
	C634.695923,828.350952 634.695923,791.979736 634.695923,755.509583 
	C634.834106,755.398254 635.085144,755.018982 635.335938,755.019104 
	C651.650146,755.028259 668.010010,754.321716 684.265747,755.315552 
	C700.478760,756.306824 711.687134,767.670410 713.857971,783.005554 
	C716.394470,800.923157 709.124146,814.566406 693.180237,821.257446 
M666.518799,771.994324 
	C663.121033,771.994324 659.723206,771.994324 656.373901,771.994324 
	C656.373901,783.923950 656.373901,794.983398 656.373901,806.971436 
	C664.769470,806.588562 672.901611,806.769836 680.862976,805.690796 
	C688.029358,804.719543 691.856628,798.875610 692.140320,790.785461 
	C692.484192,780.983704 689.283447,774.936401 681.811157,773.166321 
	C677.207703,772.075867 672.283569,772.338989 666.518799,771.994324 
z"/>
<path fill="#FDFDFF" opacity="1.000000" stroke="none" 
	d="
M602.447998,857.482788 
	C584.990662,869.316406 566.606934,869.309204 548.365845,861.627136 
	C530.620850,854.153992 522.832520,838.723328 521.222961,820.431824 
	C520.387207,810.934753 520.611450,800.986694 522.496643,791.675598 
	C527.936157,764.809875 551.053955,749.759094 579.309509,753.414246 
	C593.910767,755.303101 606.341064,760.493225 613.311951,774.552734 
	C613.821594,775.580750 614.213074,776.667297 614.910034,778.321289 
	C609.270142,781.737793 603.699402,785.112488 598.033630,788.544739 
	C597.223022,787.429993 596.738220,786.956299 596.480835,786.380859 
	C590.954285,774.026733 580.223877,770.863892 567.377258,772.229431 
	C555.746887,773.465759 547.904663,780.867554 544.848694,793.153992 
	C542.111511,804.158936 542.073181,815.275879 544.808228,826.284485 
	C548.191711,839.902771 556.933472,847.004028 570.688354,847.709351 
	C584.419739,848.413391 592.979126,842.509583 597.830566,828.990967 
	C598.046814,828.388306 598.284546,827.793396 598.896912,826.183960 
	C604.789062,829.224915 610.414490,832.128174 616.241882,835.135620 
	C613.694763,844.107666 609.608215,851.523132 602.447998,857.482788 
z"/>
<path fill="#FDFDFF" opacity="1.000000" stroke="none" 
	d="
M1108.206299,802.256470 
	C1118.947266,781.486389 1145.289795,773.609924 1165.392212,784.917786 
	C1176.257446,791.029602 1180.105713,801.202698 1180.893188,812.862793 
	C1181.919189,828.056824 1181.795898,828.065186 1166.847046,828.065186 
	C1153.386475,828.065186 1139.925903,828.065125 1126.532349,828.065125 
	C1125.215332,836.063354 1129.467407,843.914978 1136.525635,847.022400 
	C1146.878174,851.580139 1156.856812,848.551331 1165.810059,837.668457 
	C1170.511841,840.680847 1175.301270,843.749390 1180.349854,846.984009 
	C1175.049438,857.427490 1167.192505,864.044800 1156.123291,865.582153 
	C1149.305908,866.529053 1142.066528,866.640503 1135.315308,865.442932 
	C1116.130737,862.040100 1105.116577,848.551208 1104.475220,827.041809 
	C1104.233643,818.938721 1106.781494,810.752502 1108.206299,802.256470 
M1154.326538,814.691284 
	C1156.427124,814.691284 1158.527832,814.691284 1160.582520,814.691284 
	C1161.189819,803.308105 1155.736206,796.932617 1145.563721,796.384521 
	C1134.719849,795.800232 1127.072998,802.928894 1126.514404,814.691101 
	C1135.475098,814.691101 1144.420288,814.691101 1154.326538,814.691284 
z"/>
<path fill="#FDFEFF" opacity="1.000000" stroke="none" 
	d="
M861.999756,806.092529 
	C871.171814,782.893494 897.770813,773.040771 919.691956,784.383484 
	C928.103577,788.735962 933.218384,795.776672 934.852417,804.903687 
	C935.926575,810.903503 935.665100,817.136780 936.103821,823.258240 
	C936.367004,826.929504 934.843323,828.169861 931.160278,828.129883 
	C916.347656,827.969177 901.532166,828.064087 886.717773,828.064575 
	C884.914551,828.064636 883.111328,828.064575 881.339783,828.064575 
	C880.933289,837.088196 885.005920,844.140686 892.032654,847.117004 
	C902.343933,851.484619 911.206116,848.724854 921.189880,837.717957 
	C925.791016,840.679871 930.477478,843.696716 935.558533,846.967590 
	C930.398132,857.377075 922.566467,863.984924 911.524719,865.528381 
	C904.553040,866.502930 897.145691,866.567749 890.235840,865.340332 
	C873.451172,862.359009 863.211243,851.326294 860.340332,834.133423 
	C858.792786,824.865417 859.007080,815.560425 861.999756,806.092529 
M885.047241,803.655945 
	C883.703125,807.052673 882.359070,810.449402 880.827332,814.320435 
	C893.293213,814.320435 904.502014,814.320435 915.672668,814.320435 
	C916.419922,805.687012 912.903687,799.137390 906.194641,797.349182 
	C898.312561,795.248291 890.974731,796.089172 885.047241,803.655945 
z"/>
<path fill="#FDFEFF" opacity="1.000000" stroke="none" 
	d="
M1081.643677,822.731689 
	C1076.758667,835.884155 1071.954834,848.652222 1067.361084,861.495361 
	C1066.429443,864.099792 1065.223633,865.153381 1062.380005,865.070801 
	C1055.398071,864.868042 1048.406372,865.004517 1041.119995,865.004517 
	C1030.933838,837.467224 1020.799805,810.070923 1010.379822,781.901611 
	C1017.647522,781.901611 1024.100464,781.679443 1030.510986,782.100403 
	C1031.706055,782.178894 1033.178955,784.680481 1033.766357,786.333008 
	C1039.616699,802.790039 1045.301514,819.305786 1051.053223,835.797974 
	C1051.676392,837.584595 1052.425293,839.327271 1053.677734,842.524719 
	C1054.909790,839.583313 1055.587646,838.168762 1056.105347,836.697937 
	C1062.070068,819.751221 1068.094238,802.824402 1073.879395,785.816467 
	C1074.916626,782.767212 1076.320557,781.635620 1079.528564,781.786621 
	C1084.954834,782.042114 1090.401611,781.856750 1096.655762,781.856750 
	C1091.503174,795.908813 1086.651001,809.141296 1081.643677,822.731689 
z"/>
<path fill="#FBFCFF" opacity="1.000000" stroke="none" 
	d="
M986.332764,783.154114 
	C992.213867,782.632141 997.746399,782.044495 1003.283569,781.996643 
	C1005.979980,781.973267 1007.317688,783.564880 1006.425293,786.724487 
	C1005.344116,790.552490 1004.720337,794.521057 1004.082275,798.458618 
	C1003.689331,800.883484 1002.975708,801.775940 1000.160217,801.246765 
	C984.619629,798.325806 976.910217,803.944336 975.922913,819.822205 
	C975.118347,832.761780 975.500854,845.775269 975.364136,858.756042 
	C975.343445,860.716675 975.361145,862.677734 975.361145,864.823730 
	C968.312622,864.823730 961.849304,864.823730 954.917664,864.823730 
	C954.917664,837.385742 954.917664,810.032410 954.917664,782.256775 
	C961.290649,782.256775 967.834961,782.256775 974.858276,782.256775 
	C974.858276,786.051453 974.858276,789.804626 974.858276,794.094910 
	C978.909363,790.168945 982.447754,786.739807 986.332764,783.154114 
z"/>
<path fill="#FCFDFF" opacity="1.000000" stroke="none" 
	d="
M1199.669189,782.565308 
	C1206.261719,782.207031 1212.552979,782.207031 1219.443848,782.207031 
	C1219.443848,785.990356 1219.443848,789.737793 1219.443848,793.485291 
	C1219.878662,793.658630 1220.313354,793.831970 1220.748169,794.005310 
	C1221.583252,792.820251 1222.454346,791.658691 1223.247803,790.446411 
	C1228.590942,782.282959 1239.639771,778.601440 1248.730957,782.159546 
	C1249.825684,782.588013 1251.362183,784.201904 1251.238159,785.054749 
	C1250.435669,790.574097 1249.229614,796.034790 1248.101807,801.790100 
	C1245.313477,801.205627 1243.252686,800.662109 1241.157227,800.353149 
	C1230.645264,798.802979 1222.741089,804.596741 1221.145630,815.705322 
	C1220.228638,822.090088 1220.232178,828.629150 1220.129639,835.103638 
	C1219.974731,844.878784 1220.089233,854.658142 1220.089233,864.717834 
	C1213.016113,864.717834 1206.443115,864.717834 1199.367676,864.717834 
	C1199.367676,837.373413 1199.367676,810.148438 1199.669189,782.565308 
z"/>
<path fill="#4C83F1" opacity="1.000000" stroke="none" 
	d="
M1015.360352,362.109131 
	C1014.843445,368.419434 1010.825195,371.954010 1006.461121,375.098022 
	C994.080872,384.017059 979.961975,388.968658 965.273926,392.290863 
	C918.153137,402.948914 871.087830,402.904205 824.465576,389.787720 
	C813.879578,386.809479 803.523376,382.009460 794.020081,376.418549 
	C779.102722,367.642334 779.192200,358.629761 793.437256,348.819397 
	C805.833618,340.282227 819.982788,335.713318 834.519531,332.629761 
	C884.439636,322.040741 934.037537,322.443604 982.979248,338.176941 
	C992.673584,341.293427 1002.045715,345.444855 1009.451172,352.714294 
	C1011.941223,355.158630 1013.376953,358.677032 1015.360352,362.109131 
z"/>
<path fill="#4C83F1" opacity="1.000000" stroke="none" 
	d="
M1015.638916,437.720703 
	C1016.391235,445.632751 1012.178223,450.368134 1006.715088,454.365753 
	C993.094543,464.332458 977.318970,469.132721 961.143188,472.471893 
	C911.845093,482.648590 862.874695,482.065063 814.785828,465.939178 
	C806.403809,463.128357 798.582458,458.332550 790.943665,453.721863 
	C785.284912,450.306274 782.478149,444.974884 782.742004,437.755066 
	C783.220215,424.669281 782.877502,411.553558 782.877502,397.695221 
	C819.569092,418.028656 859.006714,422.869354 899.221252,422.854034 
	C939.311279,422.838776 978.635071,418.064209 1015.639160,397.585144 
	C1015.639160,411.231842 1015.639160,424.244507 1015.638916,437.720703 
z"/>
<path fill="#4C83F1" opacity="1.000000" stroke="none" 
	d="
M797.340027,558.724243 
	C818.645813,568.044067 840.772461,572.454224 863.372375,574.866455 
	C891.831787,577.904053 920.240723,577.334412 948.542114,573.119141 
	C971.221191,569.741333 993.197144,564.018250 1013.290466,552.461121 
	C1013.704407,552.223083 1014.225708,552.171692 1015.355713,551.839722 
	C1015.456360,553.784058 1015.620422,555.520386 1015.624023,557.257080 
	C1015.646973,568.416931 1015.301575,579.590210 1015.748413,590.732117 
	C1016.059875,598.498535 1012.623352,603.723389 1006.724182,607.948364 
	C994.177368,616.934265 979.941711,621.998840 965.088196,625.340576 
	C917.970520,635.941162 870.902649,635.929199 824.309692,622.732910 
	C813.427429,619.650818 803.136169,614.097961 793.020569,608.823547 
	C785.830200,605.074280 782.231873,598.791748 782.708740,589.910950 
	C783.377014,577.465759 782.877441,564.957886 782.877441,551.645020 
	C787.950989,554.127930 792.476074,556.342529 797.340027,558.724243 
z"/>
<path fill="#4C83F1" opacity="1.000000" stroke="none" 
	d="
M888.004761,553.180054 
	C860.200195,552.344604 833.503723,548.295898 808.034790,537.937805 
	C804.657654,536.564392 801.490723,534.676086 798.218750,533.041687 
	C787.225586,527.550293 781.219543,519.596313 782.677063,506.390594 
	C783.710999,497.023254 782.877441,487.449799 782.877441,477.255310 
	C819.504150,497.219757 858.998413,502.223724 899.148926,502.213043 
	C939.188171,502.202393 978.587708,497.299561 1015.240051,477.345398 
	C1015.390137,479.016327 1015.615540,480.384674 1015.619690,481.753723 
	C1015.649719,491.581879 1015.254761,501.429443 1015.753357,511.232330 
	C1016.159424,519.216370 1012.578186,524.539307 1006.524048,528.849182 
	C994.237854,537.595581 980.282227,542.422485 965.828979,545.975830 
	C940.422058,552.222229 914.588989,554.111389 888.004761,553.180054 
z"/>
<path fill="#4E84F1" opacity="1.000000" stroke="none" 
	d="
M623.663574,256.155823 
	C631.645386,255.066849 637.500305,257.696533 641.043823,264.553101 
	C644.001648,270.276367 643.186096,275.843170 639.309326,280.893372 
	C635.309937,286.103302 628.905151,287.965118 622.315125,286.032166 
	C616.881714,284.438446 612.485046,279.103058 611.872253,273.298401 
	C611.155090,266.504761 613.682190,261.304657 619.630981,257.871979 
	C620.772400,257.213379 622.043274,256.779327 623.663574,256.155823 
z"/>
<path fill="#4E84F1" opacity="1.000000" stroke="none" 
	d="
M657.022095,269.383575 
	C658.539856,261.899445 662.786316,257.324524 669.870361,256.087708 
	C676.527649,254.925415 682.012207,257.445618 685.614136,263.254761 
	C689.103638,268.882690 688.880615,274.629852 685.184387,280.111328 
	C681.485718,285.596375 675.279663,287.804871 668.544922,286.237305 
	C662.783630,284.896301 658.031799,279.764343 657.121338,273.779816 
	C656.923218,272.477417 657.028137,271.128876 657.022095,269.383575 
z"/>
<path fill="#4E84F1" opacity="1.000000" stroke="none" 
	d="
M641.500305,388.236206 
	C636.244873,397.544647 626.240662,400.505951 618.646545,395.292389 
	C610.983826,390.031769 609.398499,379.751984 615.137634,372.538574 
	C619.542664,367.001984 627.769775,365.226074 634.053040,368.455475 
	C641.281250,372.170502 644.037109,379.197632 641.500305,388.236206 
z"/>
<path fill="#4E84F1" opacity="1.000000" stroke="none" 
	d="
M686.146362,375.130798 
	C689.235840,383.216553 688.066833,389.204956 682.560425,393.998138 
	C677.505554,398.398346 671.726135,398.829468 665.789429,396.309906 
	C659.974060,393.841858 656.501648,387.393280 656.991699,380.844299 
	C657.453674,374.670837 662.342590,368.908905 668.518311,367.259369 
	C675.204224,365.473602 681.328979,368.116699 686.146362,375.130798 
z"/>
<path fill="#4E84F1" opacity="1.000000" stroke="none" 
	d="
M686.517395,486.806305 
	C689.482605,496.194672 686.205322,504.485992 678.616882,507.633514 
	C671.511353,510.580719 662.911316,507.726166 659.086182,501.150696 
	C654.824890,493.825531 657.083923,484.658234 664.243530,480.221436 
	C672.197205,475.292572 680.816589,477.732300 686.517395,486.806305 
z"/>
<path fill="#4E84F1" opacity="1.000000" stroke="none" 
	d="
M634.143921,479.516846 
	C641.270325,484.207733 644.002502,490.281494 642.229492,496.976746 
	C640.405762,503.863373 634.912170,508.376831 627.895935,508.752838 
	C621.179749,509.112732 615.087341,505.224274 612.748535,498.810760 
	C610.571289,492.840088 611.478699,487.189270 615.966919,482.653198 
	C621.013184,477.553131 627.123291,476.456696 634.143921,479.516846 
z"/>
<path fill="#4E84F1" opacity="1.000000" stroke="none" 
	d="
M667.011108,771.994324 
	C672.283569,772.338989 677.207703,772.075867 681.811157,773.166321 
	C689.283447,774.936401 692.484192,780.983704 692.140320,790.785461 
	C691.856628,798.875610 688.029358,804.719543 680.862976,805.690796 
	C672.901611,806.769836 664.769470,806.588562 656.373901,806.971436 
	C656.373901,794.983398 656.373901,783.923950 656.373901,771.994324 
	C659.723206,771.994324 663.121033,771.994324 667.011108,771.994324 
z"/>
<path fill="#5287F2" opacity="1.000000" stroke="none" 
	d="
M1153.845947,814.691162 
	C1144.420288,814.691101 1135.475098,814.691101 1126.514404,814.691101 
	C1127.072998,802.928894 1134.719849,795.800232 1145.563721,796.384521 
	C1155.736206,796.932617 1161.189819,803.308105 1160.582520,814.691284 
	C1158.527832,814.691284 1156.427124,814.691284 1153.845947,814.691162 
z"/>
<path fill="#5287F2" opacity="1.000000" stroke="none" 
	d="
M885.252991,803.354980 
	C890.974731,796.089172 898.312561,795.248291 906.194641,797.349182 
	C912.903687,799.137390 916.419922,805.687012 915.672668,814.320435 
	C904.502014,814.320435 893.293213,814.320435 880.827332,814.320435 
	C882.359070,810.449402 883.703125,807.052673 885.252991,803.354980 
z"/>
</svg>