<svg version="1.1" id="Layer_1" xmlns="http://www.w3.org/2000/svg" xmlns:xlink="http://www.w3.org/1999/xlink" x="0px" y="0px"
	 width="100%" viewBox="0 0 2560 1024" enable-background="new 0 0 2560 1024" xml:space="preserve">
<path fill="#000000" opacity="1.000000" stroke="none" 
	d="
M1589.000000,1025.000000 
	C1059.333374,1025.000000 530.166687,1025.000000 1.000000,1025.000000 
	C1.000000,683.666687 1.000000,342.333344 1.000000,1.000000 
	C854.333313,1.000000 1707.666626,1.000000 2561.000000,1.000000 
	C2561.000000,342.333344 2561.000000,683.666687 2561.000000,1025.000000 
	C2237.166748,1025.000000 1913.333374,1025.000000 1589.000000,1025.000000 
M1221.087280,702.688538 
	C1222.391113,695.826782 1224.669922,688.979980 1224.775635,682.099854 
	C1224.944458,671.090698 1224.395874,659.957092 1222.855957,649.059021 
	C1219.741943,627.020752 1209.743652,607.828918 1195.431396,591.085571 
	C1179.641968,572.614197 1159.735718,560.001648 1136.376343,553.180908 
	C1115.873291,547.194214 1095.058350,546.616577 1074.257690,551.407410 
	C1048.043701,557.445129 1025.979614,570.500244 1008.367859,591.056824 
	C996.498230,604.911133 988.063171,620.488037 982.889526,637.941040 
	C982.519104,639.190613 980.584778,640.902649 979.446350,640.852051 
	C970.254028,640.443298 960.846069,640.726562 951.943848,638.783264 
	C931.299438,634.276550 915.819153,622.174561 908.884766,602.008545 
	C904.430054,589.053467 902.430359,575.178833 900.113586,561.583008 
	C897.230347,544.662903 892.182190,528.571960 882.622498,514.328552 
	C876.141296,504.671906 868.415833,495.850342 860.898499,486.208557 
	C861.375183,485.789459 862.776306,484.605774 864.124817,483.364807 
	C879.186401,469.503845 889.734558,452.569611 895.192871,433.061829 
	C899.556519,417.466003 902.286194,401.356567 904.887817,385.336517 
	C909.648438,356.022400 934.864319,334.768219 963.474609,334.231873 
	C1009.455505,333.369904 1055.464355,334.008575 1101.461426,333.979095 
	C1104.031006,333.977448 1105.294800,334.386841 1106.174561,337.504364 
	C1113.227051,362.494812 1127.178589,383.217041 1147.291382,399.415588 
	C1164.859497,413.564667 1184.946655,422.534149 1207.649780,425.067200 
	C1222.652100,426.741089 1237.536743,426.704498 1252.337402,423.328583 
	C1272.083130,418.824677 1289.406738,409.902100 1304.967041,396.801697 
	C1318.183716,385.674500 1328.445068,372.317932 1335.763794,357.118011 
	C1347.318970,333.119904 1350.914185,307.654480 1346.087036,281.105164 
	C1341.765381,257.336609 1331.360718,236.628906 1315.254639,218.954956 
	C1303.943237,206.542557 1290.206299,197.173431 1274.750244,190.223679 
	C1252.148438,180.060699 1228.524048,177.782837 1204.424072,181.204712 
	C1187.028687,183.674652 1170.841431,190.375351 1156.243042,200.305389 
	C1132.000977,216.795029 1115.054321,238.942108 1106.620239,267.101257 
	C1105.233154,271.732483 1103.239624,272.057251 1099.461060,272.050995 
	C1052.464233,271.973022 1005.466675,271.892487 958.470886,272.122253 
	C951.836853,272.154663 945.133179,273.459625 938.595642,274.819275 
	C918.947937,278.905609 901.496033,287.409332 885.956177,300.336731 
	C870.328491,313.337158 858.954163,329.136566 850.946411,347.664886 
	C843.922974,363.916016 841.726440,381.292816 839.174561,398.495239 
	C836.632874,415.629547 830.381409,430.234192 816.941101,441.663788 
	C807.098511,450.033752 795.778198,455.076599 783.235474,455.771515 
	C766.620911,456.692047 749.916809,455.972198 733.251404,456.028107 
	C730.792725,456.036346 729.689575,455.376709 728.745117,452.737274 
	C725.958862,444.950714 722.969421,437.170227 719.247559,429.797302 
	C707.258179,406.046570 688.836975,388.550964 665.176819,376.727325 
	C651.823486,370.054321 637.600647,366.357178 622.571960,364.752747 
	C604.361267,362.808624 586.899658,365.043518 569.804871,370.795044 
	C550.391052,377.326874 533.873657,388.373016 519.880310,403.473999 
	C506.624573,417.778900 497.192200,434.029633 491.853271,452.758545 
	C491.483032,454.057343 489.614197,455.848969 488.429108,455.859009 
	C466.450470,456.045441 444.469818,455.995728 422.570801,455.995728 
	C408.903259,402.084045 353.196808,353.463684 280.807037,366.045715 
	C227.981552,375.227325 185.474594,418.446991 180.153076,475.768677 
	C174.054428,541.461548 220.394882,605.582764 296.136658,610.786865 
	C342.513367,613.973267 402.655731,587.929932 422.573456,518.999573 
	C442.962433,518.999573 463.446716,519.185791 483.923279,518.871094 
	C489.164368,518.790588 491.383759,520.090271 493.014740,525.433899 
	C500.405640,549.648499 514.706543,569.332092 534.517944,584.954468 
	C556.146240,602.009521 581.096375,610.211365 608.402649,610.813965 
	C617.329834,611.011047 626.419617,609.624878 635.237915,607.934509 
	C666.894775,601.866394 691.978271,585.105591 710.862610,559.250061 
	C719.688049,547.166626 725.924744,533.606689 729.559692,518.999573 
	C738.930054,518.999573 747.928528,518.873474 756.921997,519.031921 
	C767.848694,519.224426 778.992432,518.389282 789.649414,520.249573 
	C811.779175,524.112488 827.658508,537.356750 834.651855,558.591003 
	C839.448975,573.156982 841.125305,588.769592 843.960938,603.958374 
	C848.271118,627.045288 858.921631,646.888184 874.637634,664.070068 
	C886.210083,676.721863 900.100891,686.521362 915.972534,692.751587 
	C926.612976,696.928345 937.938904,699.862488 949.226440,701.734070 
	C958.945557,703.345642 969.042786,702.753479 978.976501,702.942993 
	C981.599976,702.993042 982.547058,703.853088 983.321594,706.430603 
	C985.000610,712.018188 987.072998,717.526978 989.458984,722.855652 
	C997.662903,741.177979 1009.525879,756.882385 1025.624512,768.820190 
	C1034.157349,775.147583 1043.657227,780.446472 1053.317871,784.920227 
	C1073.409180,794.224304 1094.675781,796.720642 1116.693115,794.092529 
	C1128.949951,792.629517 1140.688721,789.609253 1151.864258,784.542419 
	C1168.595459,776.956360 1183.226685,766.581543 1195.240234,752.413391 
	C1207.500854,737.953796 1216.011230,721.715332 1221.087280,702.688538 
M2130.165527,485.354126 
	C2122.204102,469.735687 2110.407715,457.949036 2094.835205,449.907593 
	C2091.597656,448.235748 2088.439697,446.410278 2084.500732,444.247009 
	C2086.790039,442.847534 2087.881592,442.115265 2089.030762,441.487946 
	C2099.384521,435.835785 2108.540527,428.688782 2115.509277,419.118164 
	C2125.659668,405.178070 2128.832275,389.292511 2128.027832,372.320679 
	C2126.832031,347.099304 2116.203125,327.017181 2095.753906,312.182831 
	C2076.259766,298.041229 2053.756836,293.196472 2030.375610,292.149414 
	C2010.100708,291.241547 1990.150513,293.992828 1971.307983,302.110046 
	C1944.973877,313.454529 1926.338623,331.910522 1920.686768,360.802734 
	C1913.812012,395.946350 1925.457153,424.316956 1958.474854,441.775421 
	C1959.679688,442.412476 1960.722534,443.355682 1962.621216,444.714691 
	C1959.802734,446.107269 1957.934692,447.079834 1956.026367,447.965546 
	C1933.513306,458.414337 1918.120728,475.279968 1910.896729,499.084564 
	C1904.025513,521.726807 1905.507202,544.072571 1916.759766,564.942200 
	C1929.395630,588.377441 1950.228516,601.797424 1975.318115,609.026917 
	C1994.965942,614.688293 2014.948975,616.615234 2035.454102,615.207336 
	C2051.534912,614.103149 2067.121582,611.580505 2082.169678,605.792480 
	C2098.844238,599.378845 2113.647217,589.958984 2123.735596,575.152832 
	C2142.928467,546.984497 2144.359863,516.954773 2130.165527,485.354126 
M1807.505737,388.005463 
	C1804.590454,385.282196 1801.883911,382.285156 1798.726807,379.879272 
	C1774.593750,361.488129 1747.024170,358.396088 1718.104248,362.554077 
	C1697.563354,365.507385 1681.157349,376.074219 1667.830811,391.740479 
	C1666.847534,392.896606 1665.369507,393.631897 1664.121460,394.562805 
	C1663.336426,393.049683 1662.187134,391.617249 1661.830933,390.009094 
	C1660.464722,383.841370 1658.977173,377.659454 1658.274536,371.399811 
	C1657.779053,366.986572 1655.796875,365.911011 1651.789673,365.946198 
	C1636.126831,366.083740 1620.459473,366.156433 1604.799316,365.908600 
	C1600.007080,365.832764 1598.929077,367.733765 1598.934326,372.103149 
	C1599.027344,449.757111 1599.033203,527.411316 1598.923340,605.065186 
	C1598.916748,609.660522 1600.411133,611.136047 1604.968140,611.080078 
	C1621.796143,610.873657 1638.628418,611.003784 1655.458984,610.997498 
	C1662.979370,610.994690 1662.995483,610.984070 1662.996460,603.639099 
	C1663.002197,560.312805 1663.034424,516.986450 1662.974121,473.660217 
	C1662.960205,463.638031 1665.169556,454.113647 1669.481812,445.199036 
	C1677.686157,428.238129 1691.641235,419.351715 1710.131104,416.656982 
	C1731.754395,413.505615 1753.450806,422.783966 1763.240112,443.459900 
	C1767.964478,453.438263 1769.905029,464.052979 1769.941406,474.939178 
	C1770.084351,517.765076 1769.997681,560.591797 1770.001831,603.418213 
	C1770.002563,610.979919 1770.014404,610.992981 1777.319946,610.996887 
	C1793.484009,611.005432 1809.647949,611.006348 1825.812012,610.996338 
	C1832.976074,610.991943 1832.995117,610.976562 1832.996094,603.786072 
	C1833.002441,557.293640 1833.109497,510.800659 1832.907104,464.309082 
	C1832.866821,455.035522 1832.359009,445.642792 1830.796387,436.522675 
	C1827.709473,418.505219 1820.851807,402.017975 1807.505737,388.005463 
M2253.499268,365.999847 
	C2242.166748,366.000916 2230.832520,366.124146 2219.502930,365.938080 
	C2215.435547,365.871277 2213.935547,367.223999 2213.940186,371.398560 
	C2214.026611,449.393463 2214.031738,527.388550 2213.928223,605.383362 
	C2213.922363,609.840210 2215.526123,611.114929 2219.787354,611.069824 
	C2236.450928,610.893311 2253.117920,611.005310 2269.783447,610.996216 
	C2276.976562,610.992310 2276.995605,610.977051 2276.996582,603.811829 
	C2277.003174,564.314331 2276.951416,524.816772 2277.046143,485.319550 
	C2277.062500,478.516205 2277.318359,471.670746 2278.111816,464.920990 
	C2279.713867,451.292664 2284.710205,438.857208 2295.167480,429.762024 
	C2308.729248,417.966980 2324.898682,413.992554 2342.674561,417.073792 
	C2353.694580,418.984070 2363.284180,423.739624 2370.533447,432.372925 
	C2380.049072,443.706024 2383.906738,457.201233 2383.951172,471.739929 
	C2384.086182,516.070007 2384.057373,560.400940 2383.917480,604.731018 
	C2383.902588,609.442139 2385.248047,611.162170 2390.134277,611.092224 
	C2407.129639,610.849060 2424.130615,611.007874 2441.129639,610.994751 
	C2447.981445,610.989441 2448.004395,610.966919 2448.005615,603.963745 
	C2448.012451,558.133362 2448.205811,512.301514 2447.863037,466.473694 
	C2447.782715,455.733582 2446.645508,444.862610 2444.661865,434.302246 
	C2439.291748,405.711700 2424.831787,383.254547 2397.849121,370.522949 
	C2377.375000,360.862274 2355.666992,358.958557 2333.440918,362.406525 
	C2312.468750,365.659943 2295.204590,375.382233 2282.062744,392.217865 
	C2281.161133,393.373077 2279.645264,394.049103 2277.793701,395.401917 
	C2277.010010,392.801697 2276.362061,391.129639 2276.010254,389.397430 
	C2274.719482,383.039429 2273.363281,376.687012 2272.364746,370.280518 
	C2271.839355,366.907623 2270.205322,365.830688 2266.996094,365.963074 
	C2262.836670,366.134674 2258.665039,366.001709 2253.499268,365.999847 
z"/>
<path fill="#EA4B71" opacity="1.000000" stroke="none" 
	d="
M1221.050537,703.108398 
	C1216.011230,721.715332 1207.500854,737.953796 1195.240234,752.413391 
	C1183.226685,766.581543 1168.595459,776.956360 1151.864258,784.542419 
	C1140.688721,789.609253 1128.949951,792.629517 1116.693115,794.092529 
	C1094.675781,796.720642 1073.409180,794.224304 1053.317871,784.920227 
	C1043.657227,780.446472 1034.157349,775.147583 1025.624512,768.820190 
	C1009.525879,756.882385 997.662903,741.177979 989.458984,722.855652 
	C987.072998,717.526978 985.000610,712.018188 983.321594,706.430603 
	C982.547058,703.853088 981.599976,702.993042 978.976501,702.942993 
	C969.042786,702.753479 958.945557,703.345642 949.226440,701.734070 
	C937.938904,699.862488 926.612976,696.928345 915.972534,692.751587 
	C900.100891,686.521362 886.210083,676.721863 874.637634,664.070068 
	C858.921631,646.888184 848.271118,627.045288 843.960938,603.958374 
	C841.125305,588.769592 839.448975,573.156982 834.651855,558.591003 
	C827.658508,537.356750 811.779175,524.112488 789.649414,520.249573 
	C778.992432,518.389282 767.848694,519.224426 756.921997,519.031921 
	C747.928528,518.873474 738.930054,518.999573 729.559692,518.999573 
	C725.924744,533.606689 719.688049,547.166626 710.862610,559.250061 
	C691.978271,585.105591 666.894775,601.866394 635.237915,607.934509 
	C626.419617,609.624878 617.329834,611.011047 608.402649,610.813965 
	C581.096375,610.211365 556.146240,602.009521 534.517944,584.954468 
	C514.706543,569.332092 500.405640,549.648499 493.014740,525.433899 
	C491.383759,520.090271 489.164368,518.790588 483.923279,518.871094 
	C463.446716,519.185791 442.962433,518.999573 422.573456,518.999573 
	C402.655731,587.929932 342.513367,613.973267 296.136658,610.786865 
	C220.394882,605.582764 174.054428,541.461548 180.153076,475.768677 
	C185.474594,418.446991 227.981552,375.227325 280.807037,366.045715 
	C353.196808,353.463684 408.903259,402.084045 422.570801,455.995728 
	C444.469818,455.995728 466.450470,456.045441 488.429108,455.859009 
	C489.614197,455.848969 491.483032,454.057343 491.853271,452.758545 
	C497.192200,434.029633 506.624573,417.778900 519.880310,403.473999 
	C533.873657,388.373016 550.391052,377.326874 569.804871,370.795044 
	C586.899658,365.043518 604.361267,362.808624 622.571960,364.752747 
	C637.600647,366.357178 651.823486,370.054321 665.176819,376.727325 
	C688.836975,388.550964 707.258179,406.046570 719.247559,429.797302 
	C722.969421,437.170227 725.958862,444.950714 728.745117,452.737274 
	C729.689575,455.376709 730.792725,456.036346 733.251404,456.028107 
	C749.916809,455.972198 766.620911,456.692047 783.235474,455.771515 
	C795.778198,455.076599 807.098511,450.033752 816.941101,441.663788 
	C830.381409,430.234192 836.632874,415.629547 839.174561,398.495239 
	C841.726440,381.292816 843.922974,363.916016 850.946411,347.664886 
	C858.954163,329.136566 870.328491,313.337158 885.956177,300.336731 
	C901.496033,287.409332 918.947937,278.905609 938.595642,274.819275 
	C945.133179,273.459625 951.836853,272.154663 958.470886,272.122253 
	C1005.466675,271.892487 1052.464233,271.973022 1099.461060,272.050995 
	C1103.239624,272.057251 1105.233154,271.732483 1106.620239,267.101257 
	C1115.054321,238.942108 1132.000977,216.795029 1156.243042,200.305389 
	C1170.841431,190.375351 1187.028687,183.674652 1204.424072,181.204712 
	C1228.524048,177.782837 1252.148438,180.060699 1274.750244,190.223679 
	C1290.206299,197.173431 1303.943237,206.542557 1315.254639,218.954956 
	C1331.360718,236.628906 1341.765381,257.336609 1346.087036,281.105164 
	C1350.914185,307.654480 1347.318970,333.119904 1335.763794,357.118011 
	C1328.445068,372.317932 1318.183716,385.674500 1304.967041,396.801697 
	C1289.406738,409.902100 1272.083130,418.824677 1252.337402,423.328583 
	C1237.536743,426.704498 1222.652100,426.741089 1207.649780,425.067200 
	C1184.946655,422.534149 1164.859497,413.564667 1147.291382,399.415588 
	C1127.178589,383.217041 1113.227051,362.494812 1106.174561,337.504364 
	C1105.294800,334.386841 1104.031006,333.977448 1101.461426,333.979095 
	C1055.464355,334.008575 1009.455505,333.369904 963.474609,334.231873 
	C934.864319,334.768219 909.648438,356.022400 904.887817,385.336517 
	C902.286194,401.356567 899.556519,417.466003 895.192871,433.061829 
	C889.734558,452.569611 879.186401,469.503845 864.124817,483.364807 
	C862.776306,484.605774 861.375183,485.789459 860.898499,486.208557 
	C868.415833,495.850342 876.141296,504.671906 882.622498,514.328552 
	C892.182190,528.571960 897.230347,544.662903 900.113586,561.583008 
	C902.430359,575.178833 904.430054,589.053467 908.884766,602.008545 
	C915.819153,622.174561 931.299438,634.276550 951.943848,638.783264 
	C960.846069,640.726562 970.254028,640.443298 979.446350,640.852051 
	C980.584778,640.902649 982.519104,639.190613 982.889526,637.941040 
	C988.063171,620.488037 996.498230,604.911133 1008.367859,591.056824 
	C1025.979614,570.500244 1048.043701,557.445129 1074.257690,551.407410 
	C1095.058350,546.616577 1115.873291,547.194214 1136.376343,553.180908 
	C1159.735718,560.001648 1179.641968,572.614197 1195.431396,591.085571 
	C1209.743652,607.828918 1219.741943,627.020752 1222.855957,649.059021 
	C1224.395874,659.957092 1224.944458,671.090698 1224.775635,682.099854 
	C1224.669922,688.979980 1222.391113,695.826782 1221.050537,703.108398 
M325.406464,544.004272 
	C336.045380,539.532166 345.252838,533.106934 351.879395,523.546936 
	C362.286499,508.532806 366.741608,492.131989 362.476105,473.936066 
	C358.929169,458.805511 350.635193,446.783508 338.144196,437.722778 
	C327.670837,430.125610 315.566071,426.283478 302.864838,426.303955 
	C295.442657,426.315887 287.734100,428.543457 280.659119,431.146271 
	C257.315460,439.733978 243.182938,461.541595 242.204407,484.953491 
	C241.375198,504.792755 248.982834,521.589905 264.793518,534.281250 
	C282.919830,548.831360 302.841736,551.990601 325.406464,544.004272 
M1061.023438,626.467529 
	C1049.703247,637.188049 1042.440063,650.207642 1041.138550,665.747498 
	C1039.501831,685.290833 1045.681641,702.283264 1060.317383,715.821594 
	C1076.837280,731.102722 1096.309082,736.391235 1117.805664,730.459839 
	C1149.492554,721.716797 1168.785156,689.636780 1161.018433,657.702515 
	C1154.776123,632.036194 1133.306274,614.170593 1108.903076,611.176331 
	C1091.228394,609.007690 1075.258545,614.405029 1061.023438,626.467529 
M1255.561401,250.922348 
	C1242.202148,243.137985 1227.870850,239.662521 1212.690430,243.277634 
	C1192.605713,248.060638 1177.464111,259.520935 1169.058472,278.841187 
	C1160.549927,298.397675 1161.996460,317.570190 1173.286133,335.406799 
	C1185.483154,354.676758 1203.729858,364.094147 1226.500488,363.899658 
	C1239.358398,363.789825 1250.843140,359.249207 1261.260498,351.464569 
	C1281.358521,336.446045 1290.420410,309.612549 1282.985352,285.613129 
	C1278.398926,270.808441 1269.280518,259.420227 1255.561401,250.922348 
M641.926453,435.440155 
	C630.445374,429.202515 618.564087,425.586731 605.111755,426.833771 
	C589.829102,428.250519 576.880676,434.358185 566.634033,445.141205 
	C552.775635,459.725067 546.455444,477.579498 550.165344,497.675018 
	C556.220581,530.474670 587.275208,553.440918 621.468811,547.075012 
	C648.073181,542.121948 668.114807,520.585693 670.792908,493.858856 
	C673.263184,469.205994 663.083130,449.791504 641.926453,435.440155 
z"/>
<path fill="#101330" opacity="1.000000" stroke="none" 
	d="
M2130.336914,485.685516 
	C2144.359863,516.954773 2142.928467,546.984497 2123.735596,575.152832 
	C2113.647217,589.958984 2098.844238,599.378845 2082.169678,605.792480 
	C2067.121582,611.580505 2051.534912,614.103149 2035.454102,615.207336 
	C2014.948975,616.615234 1994.965942,614.688293 1975.318115,609.026917 
	C1950.228516,601.797424 1929.395630,588.377441 1916.759766,564.942200 
	C1905.507202,544.072571 1904.025513,521.726807 1910.896729,499.084564 
	C1918.120728,475.279968 1933.513306,458.414337 1956.026367,447.965546 
	C1957.934692,447.079834 1959.802734,446.107269 1962.621216,444.714691 
	C1960.722534,443.355682 1959.679688,442.412476 1958.474854,441.775421 
	C1925.457153,424.316956 1913.812012,395.946350 1920.686768,360.802734 
	C1926.338623,331.910522 1944.973877,313.454529 1971.307983,302.110046 
	C1990.150513,293.992828 2010.100708,291.241547 2030.375610,292.149414 
	C2053.756836,293.196472 2076.259766,298.041229 2095.753906,312.182831 
	C2116.203125,327.017181 2126.832031,347.099304 2128.027832,372.320679 
	C2128.832275,389.292511 2125.659668,405.178070 2115.509277,419.118164 
	C2108.540527,428.688782 2099.384521,435.835785 2089.030762,441.487946 
	C2087.881592,442.115265 2086.790039,442.847534 2084.500732,444.247009 
	C2088.439697,446.410278 2091.597656,448.235748 2094.835205,449.907593 
	C2110.407715,457.949036 2122.204102,469.735687 2130.336914,485.685516 
M1982.567871,548.853638 
	C1997.350098,567.334961 2023.240234,572.481018 2044.621948,563.893433 
	C2065.922119,555.338684 2075.932373,535.615540 2072.534180,511.547546 
	C2070.589600,497.775635 2064.041992,486.438080 2051.865234,478.937561 
	C2038.844604,470.917328 2024.822998,469.604065 2010.115967,472.743256 
	C2000.909058,474.708496 1992.797119,478.803894 1986.356689,485.619904 
	C1970.471924,502.430450 1969.087769,529.487915 1982.567871,548.853638 
M1988.404419,404.061493 
	C2000.471313,418.850647 2016.218262,423.500610 2034.393555,419.755676 
	C2049.898682,416.560822 2060.173584,406.971191 2064.244873,391.492554 
	C2068.222412,376.369507 2066.119385,362.188324 2054.987549,350.647278 
	C2042.548584,337.750885 2026.884766,335.454834 2010.241089,339.875061 
	C1979.878418,347.938843 1973.707642,382.270355 1988.404419,404.061493 
z"/>
<path fill="#101330" opacity="1.000000" stroke="none" 
	d="
M1807.755981,388.255859 
	C1820.851807,402.017975 1827.709473,418.505219 1830.796387,436.522675 
	C1832.359009,445.642792 1832.866821,455.035522 1832.907104,464.309082 
	C1833.109497,510.800659 1833.002441,557.293640 1832.996094,603.786072 
	C1832.995117,610.976562 1832.976074,610.991943 1825.812012,610.996338 
	C1809.647949,611.006348 1793.484009,611.005432 1777.319946,610.996887 
	C1770.014404,610.992981 1770.002563,610.979919 1770.001831,603.418213 
	C1769.997681,560.591797 1770.084351,517.765076 1769.941406,474.939178 
	C1769.905029,464.052979 1767.964478,453.438263 1763.240112,443.459900 
	C1753.450806,422.783966 1731.754395,413.505615 1710.131104,416.656982 
	C1691.641235,419.351715 1677.686157,428.238129 1669.481812,445.199036 
	C1665.169556,454.113647 1662.960205,463.638031 1662.974121,473.660217 
	C1663.034424,516.986450 1663.002197,560.312805 1662.996460,603.639099 
	C1662.995483,610.984070 1662.979370,610.994690 1655.458984,610.997498 
	C1638.628418,611.003784 1621.796143,610.873657 1604.968140,611.080078 
	C1600.411133,611.136047 1598.916748,609.660522 1598.923340,605.065186 
	C1599.033203,527.411316 1599.027344,449.757111 1598.934326,372.103149 
	C1598.929077,367.733765 1600.007080,365.832764 1604.799316,365.908600 
	C1620.459473,366.156433 1636.126831,366.083740 1651.789673,365.946198 
	C1655.796875,365.911011 1657.779053,366.986572 1658.274536,371.399811 
	C1658.977173,377.659454 1660.464722,383.841370 1661.830933,390.009094 
	C1662.187134,391.617249 1663.336426,393.049683 1664.121460,394.562805 
	C1665.369507,393.631897 1666.847534,392.896606 1667.830811,391.740479 
	C1681.157349,376.074219 1697.563354,365.507385 1718.104248,362.554077 
	C1747.024170,358.396088 1774.593750,361.488129 1798.726807,379.879272 
	C1801.883911,382.285156 1804.590454,385.282196 1807.755981,388.255859 
z"/>
<path fill="#101330" opacity="1.000000" stroke="none" 
	d="
M2253.999023,365.999847 
	C2258.665039,366.001709 2262.836670,366.134674 2266.996094,365.963074 
	C2270.205322,365.830688 2271.839355,366.907623 2272.364746,370.280518 
	C2273.363281,376.687012 2274.719482,383.039429 2276.010254,389.397430 
	C2276.362061,391.129639 2277.010010,392.801697 2277.793701,395.401917 
	C2279.645264,394.049103 2281.161133,393.373077 2282.062744,392.217865 
	C2295.204590,375.382233 2312.468750,365.659943 2333.440918,362.406525 
	C2355.666992,358.958557 2377.375000,360.862274 2397.849121,370.522949 
	C2424.831787,383.254547 2439.291748,405.711700 2444.661865,434.302246 
	C2446.645508,444.862610 2447.782715,455.733582 2447.863037,466.473694 
	C2448.205811,512.301514 2448.012451,558.133362 2448.005615,603.963745 
	C2448.004395,610.966919 2447.981445,610.989441 2441.129639,610.994751 
	C2424.130615,611.007874 2407.129639,610.849060 2390.134277,611.092224 
	C2385.248047,611.162170 2383.902588,609.442139 2383.917480,604.731018 
	C2384.057373,560.400940 2384.086182,516.070007 2383.951172,471.739929 
	C2383.906738,457.201233 2380.049072,443.706024 2370.533447,432.372925 
	C2363.284180,423.739624 2353.694580,418.984070 2342.674561,417.073792 
	C2324.898682,413.992554 2308.729248,417.966980 2295.167480,429.762024 
	C2284.710205,438.857208 2279.713867,451.292664 2278.111816,464.920990 
	C2277.318359,471.670746 2277.062500,478.516205 2277.046143,485.319550 
	C2276.951416,524.816772 2277.003174,564.314331 2276.996582,603.811829 
	C2276.995605,610.977051 2276.976562,610.992310 2269.783447,610.996216 
	C2253.117920,611.005310 2236.450928,610.893311 2219.787354,611.069824 
	C2215.526123,611.114929 2213.922363,609.840210 2213.928223,605.383362 
	C2214.031738,527.388550 2214.026611,449.393463 2213.940186,371.398560 
	C2213.935547,367.223999 2215.435547,365.871277 2219.502930,365.938080 
	C2230.832520,366.124146 2242.166748,366.000916 2253.999023,365.999847 
z"/>
<path fill="#000000" opacity="1.000000" stroke="none" 
	d="
M325.009827,544.046997 
	C302.841736,551.990601 282.919830,548.831360 264.793518,534.281250 
	C248.982834,521.589905 241.375198,504.792755 242.204407,484.953491 
	C243.182938,461.541595 257.315460,439.733978 280.659119,431.146271 
	C287.734100,428.543457 295.442657,426.315887 302.864838,426.303955 
	C315.566071,426.283478 327.670837,430.125610 338.144196,437.722778 
	C350.635193,446.783508 358.929169,458.805511 362.476105,473.936066 
	C366.741608,492.131989 362.286499,508.532806 351.879395,523.546936 
	C345.252838,533.106934 336.045380,539.532166 325.009827,544.046997 
z"/>
<path fill="#000000" opacity="1.000000" stroke="none" 
	d="
M1061.282471,626.218872 
	C1075.258545,614.405029 1091.228394,609.007690 1108.903076,611.176331 
	C1133.306274,614.170593 1154.776123,632.036194 1161.018433,657.702515 
	C1168.785156,689.636780 1149.492554,721.716797 1117.805664,730.459839 
	C1096.309082,736.391235 1076.837280,731.102722 1060.317383,715.821594 
	C1045.681641,702.283264 1039.501831,685.290833 1041.138550,665.747498 
	C1042.440063,650.207642 1049.703247,637.188049 1061.282471,626.218872 
z"/>
<path fill="#000000" opacity="1.000000" stroke="none" 
	d="
M1255.928833,250.991058 
	C1269.280518,259.420227 1278.398926,270.808441 1282.985352,285.613129 
	C1290.420410,309.612549 1281.358521,336.446045 1261.260498,351.464569 
	C1250.843140,359.249207 1239.358398,363.789825 1226.500488,363.899658 
	C1203.729858,364.094147 1185.483154,354.676758 1173.286133,335.406799 
	C1161.996460,317.570190 1160.549927,298.397675 1169.058472,278.841187 
	C1177.464111,259.520935 1192.605713,248.060638 1212.690430,243.277634 
	C1227.870850,239.662521 1242.202148,243.137985 1255.928833,250.991058 
z"/>
<path fill="#000000" opacity="1.000000" stroke="none" 
	d="
M642.193726,435.699158 
	C663.083130,449.791504 673.263184,469.205994 670.792908,493.858856 
	C668.114807,520.585693 648.073181,542.121948 621.468811,547.075012 
	C587.275208,553.440918 556.220581,530.474670 550.165344,497.675018 
	C546.455444,477.579498 552.775635,459.725067 566.634033,445.141205 
	C576.880676,434.358185 589.829102,428.250519 605.111755,426.833771 
	C618.564087,425.586731 630.445374,429.202515 642.193726,435.699158 
z"/>
<path fill="#000000" opacity="1.000000" stroke="none" 
	d="
M1982.365601,548.555969 
	C1969.087769,529.487915 1970.471924,502.430450 1986.356689,485.619904 
	C1992.797119,478.803894 2000.909058,474.708496 2010.115967,472.743256 
	C2024.822998,469.604065 2038.844604,470.917328 2051.865234,478.937561 
	C2064.041992,486.438080 2070.589600,497.775635 2072.534180,511.547546 
	C2075.932373,535.615540 2065.922119,555.338684 2044.621948,563.893433 
	C2023.240234,572.481018 1997.350098,567.334961 1982.365601,548.555969 
z"/>
<path fill="#000000" opacity="1.000000" stroke="none" 
	d="
M1988.192383,403.766479 
	C1973.707642,382.270355 1979.878418,347.938843 2010.241089,339.875061 
	C2026.884766,335.454834 2042.548584,337.750885 2054.987549,350.647278 
	C2066.119385,362.188324 2068.222412,376.369507 2064.244873,391.492554 
	C2060.173584,406.971191 2049.898682,416.560822 2034.393555,419.755676 
	C2016.218262,423.500610 2000.471313,418.850647 1988.192383,403.766479 
z"/>
</svg>