<svg version="1.1" id="Layer_1" xmlns="http://www.w3.org/2000/svg" xmlns:xlink="http://www.w3.org/1999/xlink" x="0px" y="0px"
	 width="100%" viewBox="0 0 1250 417" enable-background="new 0 0 1250 417" xml:space="preserve">
<path fill="#FFFFFF" opacity="1.000000" stroke="none" 
	d="
M892.000000,418.000000 
	C594.666687,418.000000 297.833405,418.000000 1.000080,418.000000 
	C1.000053,279.000061 1.000053,140.000107 1.000027,1.000117 
	C417.666595,1.000078 834.333191,1.000078 1250.999756,1.000039 
	C1250.999878,139.999878 1250.999878,278.999756 1251.000000,417.999817 
	C1131.500000,418.000000 1012.000000,418.000000 892.000000,418.000000 
M221.199341,176.020325 
	C218.130051,175.403702 215.060745,174.787094 211.242615,174.314911 
	C210.807083,174.531189 210.388580,174.887848 209.933502,174.943039 
	C200.124069,176.132645 195.239075,182.915421 195.987137,194.353302 
	C196.477768,201.854950 204.199127,208.840179 212.826263,208.973557 
	C215.874603,208.240524 218.922958,207.507492 222.644165,206.679886 
	C229.418518,203.646561 230.755493,197.041885 230.589661,191.165253 
	C230.426437,185.380371 229.342255,178.569962 221.199341,176.020325 
M345.201172,106.032104 
	C336.639557,110.007607 333.619751,114.796432 333.987335,123.814819 
	C334.272736,130.816895 338.663208,136.442017 346.449554,139.698029 
	C349.630707,139.761139 352.811829,139.824249 356.679016,139.724060 
	C365.224640,136.349777 369.613892,131.639877 369.054626,120.368683 
	C368.698059,113.182365 364.710663,108.191818 355.104523,105.027702 
	C352.039001,105.330093 348.973511,105.632492 345.201172,106.032104 
M351.837463,208.968613 
	C363.353577,209.009079 369.199493,202.147156 368.995209,188.828873 
	C368.865784,180.391068 361.229126,173.799332 351.156647,174.050568 
	C340.731964,173.932526 335.528595,180.512421 334.178528,187.538803 
	C332.431671,196.630066 336.506927,206.010590 346.215576,208.573456 
	C346.801971,208.677795 347.388397,208.782135 348.728302,208.968155 
	C349.483856,208.931335 350.239441,208.894501 351.837463,208.968613 
M211.250168,105.059647 
	C210.151886,105.367027 209.053604,105.674416 207.233185,106.029228 
	C197.945450,110.603851 193.585449,118.236671 196.149200,126.920349 
	C198.347244,134.365280 204.058945,140.663513 214.786499,139.977783 
	C224.981445,138.780716 231.194016,132.003830 230.933167,122.364479 
	C230.669937,112.638481 224.360977,106.234802 213.319077,105.045677 
	C212.870453,105.094910 212.421814,105.144135 211.250168,105.059647 
M283.163971,105.051178 
	C280.314606,105.634537 277.314819,105.832970 274.645050,106.875992 
	C267.634186,109.614975 264.704987,115.263786 265.011780,124.495377 
	C265.238403,131.314087 269.306915,136.284012 277.447144,139.686310 
	C279.762238,139.788788 282.080444,140.024277 284.391907,139.970444 
	C293.750000,139.752518 300.083221,132.214752 299.986755,121.516663 
	C299.899567,111.849815 293.429657,105.240784 283.163971,105.051178 
M418.214294,105.030685 
	C410.954865,105.560287 406.412354,109.515503 404.025452,116.232437 
	C401.504974,123.325226 402.897278,129.990692 407.935730,135.097916 
	C412.786163,140.014496 419.170013,141.783630 426.835480,139.009079 
	C436.079803,135.524551 439.899506,128.123352 437.959503,117.454689 
	C436.583740,109.888954 428.629822,104.720108 418.214294,105.030685 
M569.702332,281.005768 
	C577.017822,281.663818 584.602173,283.886566 591.597900,282.684113 
	C611.917114,279.191498 625.406250,266.487915 630.716675,246.824005 
	C634.849670,231.520065 634.742310,215.506073 630.942444,199.956802 
	C626.585083,182.126312 615.740295,169.761993 598.002136,163.974503 
	C584.446472,159.551636 571.728699,162.057449 559.818176,168.578094 
	C558.338928,167.023056 557.037354,165.295151 555.394348,164.000504 
	C551.686096,161.078491 547.512268,161.302673 543.365784,162.922546 
	C539.159241,164.565857 535.987366,167.101883 535.989624,172.204468 
	C536.008118,213.697479 535.972534,255.190567 536.086426,296.683258 
	C536.091736,298.627258 536.942627,300.876740 538.115417,302.450684 
	C541.349487,306.790924 547.850952,308.487122 552.784729,306.709015 
	C557.492920,305.012177 560.953125,299.793671 560.991577,294.210876 
	C561.029907,288.646179 561.000000,283.080963 561.000000,277.220459 
	C561.907776,277.604187 562.350769,277.768433 562.773560,277.974091 
	C564.812988,278.966034 566.847107,279.969116 569.702332,281.005768 
M704.000000,220.513306 
	C704.000000,223.177811 703.984619,225.842422 704.002502,228.506805 
	C704.115723,245.388382 709.111633,260.139832 722.122498,271.699890 
	C733.474548,281.786041 747.028870,285.276459 761.278564,282.583099 
	C780.450806,278.959290 793.040405,266.705475 799.027466,247.985458 
	C802.756775,236.324692 802.660522,224.214752 801.714966,212.321136 
	C801.088318,204.437866 799.324585,196.061798 795.736633,189.110672 
	C786.414612,171.050659 771.373840,161.175842 750.342163,161.992981 
	C735.466370,162.570953 723.929932,169.475815 715.047424,180.986099 
	C706.314026,192.303131 703.544250,205.488907 704.000000,220.513306 
M1021.947144,243.427353 
	C1022.972961,240.890518 1023.951965,238.333557 1025.032227,235.820084 
	C1033.169800,216.886230 1041.433105,198.005249 1049.405518,179.002228 
	C1051.442871,174.146088 1049.944580,165.307968 1042.546875,162.768143 
	C1036.446533,160.673782 1028.596069,162.987488 1026.114502,168.765717 
	C1021.927124,178.516144 1018.101318,188.421677 1013.929199,198.178925 
	C1009.979492,207.416107 1005.780090,216.546524 1001.606995,225.911270 
	C999.288513,220.479202 997.171509,215.436996 994.989746,210.422928 
	C988.821289,196.246948 982.686707,182.055649 976.411743,167.926865 
	C973.930420,162.339737 968.852173,161.616425 963.579712,162.052322 
	C958.838013,162.444351 955.813599,165.290863 953.970398,169.641586 
	C951.403442,175.700821 954.605652,180.499268 956.877502,185.715149 
	C965.683167,205.931946 974.266052,226.246155 982.858215,246.555267 
	C984.574890,250.612900 987.979614,255.290329 987.125854,258.846588 
	C984.744995,268.764008 979.907349,277.778503 968.896912,280.997009 
	C965.523132,281.983215 961.857849,282.006500 958.521118,283.078033 
	C952.568665,284.989532 950.033081,290.450012 951.004944,298.193573 
	C951.497803,302.120667 956.340149,306.781921 960.342834,306.983490 
	C977.965271,307.870819 992.850891,301.676727 1001.754089,286.484772 
	C1009.604370,273.089417 1014.981750,258.244812 1021.947144,243.427353 
M404.878815,183.606064 
	C404.252533,186.413101 403.087524,189.218781 403.080444,192.027374 
	C402.966461,237.164841 403.171539,282.303802 402.876495,327.439636 
	C402.804901,338.387604 409.315582,348.254395 422.709595,347.118896 
	C430.821350,346.431183 437.992645,339.852722 437.994568,331.675232 
	C438.005676,284.205658 438.010254,236.736053 437.959106,189.266525 
	C437.957245,187.531174 437.680237,185.648331 436.972443,184.087769 
	C434.288940,178.170853 429.783325,174.476532 423.123840,174.023865 
	C415.458191,173.502838 408.806641,175.268219 404.878815,183.606064 
M267.023315,338.202698 
	C271.178528,345.553223 279.310577,348.963379 287.533051,346.803375 
	C295.463135,344.720184 299.998810,338.533600 299.999146,329.779724 
	C300.000946,283.299072 300.008698,236.818405 299.992920,190.337738 
	C299.989624,180.637527 293.094147,174.557251 283.186890,173.855148 
	C272.328552,173.085617 264.972046,182.458481 264.978851,190.073486 
	C265.020966,237.053909 264.975159,284.034424 265.080322,331.014648 
	C265.085083,333.150818 266.262848,335.284332 267.023315,338.202698 
M850.000671,159.323654 
	C850.000366,156.158493 849.932922,152.991592 850.014404,149.828537 
	C850.160889,144.143585 843.531128,137.050446 836.565186,137.843018 
	C829.235229,138.677002 825.001465,142.479919 825.000916,150.083908 
	C824.998657,179.736542 824.999451,209.389175 825.002014,239.041809 
	C825.002075,240.373505 824.779907,241.765396 825.083252,243.027832 
	C829.654358,262.049469 840.184448,275.936768 859.721252,281.085236 
	C865.539185,282.618408 872.067200,283.081787 877.979736,282.164825 
	C883.650757,281.285370 887.214355,273.939453 885.925659,268.383087 
	C884.639709,262.838318 879.689758,257.771393 872.899536,257.971924 
	C860.787048,258.329590 849.750183,246.767288 849.959290,234.953629 
	C850.150940,224.128815 850.000000,213.297928 850.000000,202.469727 
	C850.000000,197.377762 850.000000,192.285797 850.000000,186.999847 
	C858.443237,186.999847 866.257507,187.110443 874.067078,186.965942 
	C880.690308,186.843430 886.173462,180.767883 885.999878,174.068161 
	C885.826233,167.367493 880.454468,162.026260 873.823792,162.004761 
	C867.160339,161.983154 860.494507,162.089539 853.835205,161.922379 
	C852.546570,161.890015 851.283020,160.854721 850.000671,159.323654 
M909.000000,171.500000 
	C909.000000,204.490646 908.994812,237.481277 909.003662,270.471924 
	C909.005798,278.373993 913.575806,282.983032 921.363892,283.000000 
	C929.337585,283.017395 933.991333,278.538818 933.993896,270.744171 
	C934.007019,230.588867 934.006714,190.433563 933.994263,150.278259 
	C933.991821,142.493958 929.325256,137.985229 921.386292,138.000000 
	C913.587463,138.014511 909.019348,142.617310 909.002930,150.505661 
	C908.989075,157.170425 909.000000,163.835220 909.000000,171.500000 
M680.998657,272.932861 
	C680.999084,232.100601 681.004395,191.268341 680.995605,150.436081 
	C680.993958,142.778305 676.417847,138.376358 669.044128,137.915619 
	C661.224060,137.427032 656.047546,143.147614 656.034607,150.378998 
	C655.962524,190.544464 655.959717,230.710220 656.058655,270.875549 
	C656.069275,275.183105 657.633850,279.070374 661.793762,281.324066 
	C669.796387,285.659546 676.566345,283.012787 680.998657,272.932861 
M342.083069,344.621826 
	C343.497833,345.337738 344.840149,346.406738 346.338684,346.714050 
	C358.887421,349.287323 369.470581,341.813263 369.168457,329.568665 
	C368.589386,306.102417 369.001923,282.611725 368.998993,259.131195 
	C368.997864,249.929764 361.914886,243.465057 352.507629,242.888306 
	C341.419495,242.208496 333.994415,251.147598 333.997009,258.835114 
	C334.005096,282.981781 333.872986,307.129608 334.098907,331.274170 
	C334.148712,336.596191 336.274902,341.421387 342.083069,344.621826 
M223.826599,344.687561 
	C228.051987,341.031616 231.065002,336.866852 231.040466,330.864014 
	C230.942444,306.877563 231.030563,282.890411 230.984894,258.903656 
	C230.966736,249.370148 223.551636,243.191452 212.756287,242.933838 
	C203.815903,242.720490 195.949356,250.858475 195.974243,259.089935 
	C196.046783,283.076538 195.993164,307.063538 196.018707,331.050354 
	C196.020096,332.346252 196.088730,333.705902 196.471634,334.927551 
	C199.673447,345.143372 210.210083,350.476288 223.826599,344.687561 
z"/>
<path fill="#282D33" opacity="1.000000" stroke="none" 
	d="
M569.292725,280.987000 
	C566.847107,279.969116 564.812988,278.966034 562.773560,277.974091 
	C562.350769,277.768433 561.907776,277.604187 561.000000,277.220459 
	C561.000000,283.080963 561.029907,288.646179 560.991577,294.210876 
	C560.953125,299.793671 557.492920,305.012177 552.784729,306.709015 
	C547.850952,308.487122 541.349487,306.790924 538.115417,302.450684 
	C536.942627,300.876740 536.091736,298.627258 536.086426,296.683258 
	C535.972534,255.190567 536.008118,213.697479 535.989624,172.204468 
	C535.987366,167.101883 539.159241,164.565857 543.365784,162.922546 
	C547.512268,161.302673 551.686096,161.078491 555.394348,164.000504 
	C557.037354,165.295151 558.338928,167.023056 559.818176,168.578094 
	C571.728699,162.057449 584.446472,159.551636 598.002136,163.974503 
	C615.740295,169.761993 626.585083,182.126312 630.942444,199.956802 
	C634.742310,215.506073 634.849670,231.520065 630.716675,246.824005 
	C625.406250,266.487915 611.917114,279.191498 591.597900,282.684113 
	C584.602173,283.886566 577.017822,281.663818 569.292725,280.987000 
M571.743530,253.969482 
	C573.565979,254.974991 575.282227,256.315674 577.228027,256.931702 
	C589.970764,260.965942 603.301086,253.886032 606.731201,239.166077 
	C608.565552,231.294235 608.210266,222.758133 607.801636,214.573792 
	C607.544800,209.429352 606.083740,204.038818 603.878906,199.364304 
	C599.811523,190.741058 589.810486,185.430359 581.510193,187.090256 
	C571.352844,189.121536 563.808105,195.650909 562.200378,205.198853 
	C560.872131,213.086273 561.571289,221.293625 560.939209,229.325134 
	C560.156738,239.267258 563.585571,247.237213 571.743530,253.969482 
z"/>
<path fill="#282D33" opacity="1.000000" stroke="none" 
	d="
M704.000000,220.017548 
	C703.544250,205.488907 706.314026,192.303131 715.047424,180.986099 
	C723.929932,169.475815 735.466370,162.570953 750.342163,161.992981 
	C771.373840,161.175842 786.414612,171.050659 795.736633,189.110672 
	C799.324585,196.061798 801.088318,204.437866 801.714966,212.321136 
	C802.660522,224.214752 802.756775,236.324692 799.027466,247.985458 
	C793.040405,266.705475 780.450806,278.959290 761.278564,282.583099 
	C747.028870,285.276459 733.474548,281.786041 722.122498,271.699890 
	C709.111633,260.139832 704.115723,245.388382 704.002502,228.506805 
	C703.984619,225.842422 704.000000,223.177811 704.000000,220.017548 
M729.000061,226.436554 
	C729.334229,230.346817 729.469177,234.286469 730.040894,238.161697 
	C731.572083,248.538788 742.157776,257.378143 752.097412,258.140320 
	C763.961304,259.050049 776.504211,245.764206 776.055542,234.091812 
	C775.761475,226.442047 775.784607,218.764160 776.055603,211.112686 
	C776.379333,201.972458 768.195251,188.913300 755.709229,187.027542 
	C745.947571,185.553238 733.679565,192.686874 731.131165,204.056061 
	C729.574768,210.999390 729.654846,218.309525 729.000061,226.436554 
z"/>
<path fill="#282D33" opacity="1.000000" stroke="none" 
	d="
M1021.699097,243.733765 
	C1014.981750,258.244812 1009.604370,273.089417 1001.754089,286.484772 
	C992.850891,301.676727 977.965271,307.870819 960.342834,306.983490 
	C956.340149,306.781921 951.497803,302.120667 951.004944,298.193573 
	C950.033081,290.450012 952.568665,284.989532 958.521118,283.078033 
	C961.857849,282.006500 965.523132,281.983215 968.896912,280.997009 
	C979.907349,277.778503 984.744995,268.764008 987.125854,258.846588 
	C987.979614,255.290329 984.574890,250.612900 982.858215,246.555267 
	C974.266052,226.246155 965.683167,205.931946 956.877502,185.715149 
	C954.605652,180.499268 951.403442,175.700821 953.970398,169.641586 
	C955.813599,165.290863 958.838013,162.444351 963.579712,162.052322 
	C968.852173,161.616425 973.930420,162.339737 976.411743,167.926865 
	C982.686707,182.055649 988.821289,196.246948 994.989746,210.422928 
	C997.171509,215.436996 999.288513,220.479202 1001.606995,225.911270 
	C1005.780090,216.546524 1009.979492,207.416107 1013.929199,198.178925 
	C1018.101318,188.421677 1021.927124,178.516144 1026.114502,168.765717 
	C1028.596069,162.987488 1036.446533,160.673782 1042.546875,162.768143 
	C1049.944580,165.307968 1051.442871,174.146088 1049.405518,179.002228 
	C1041.433105,198.005249 1033.169800,216.886230 1025.032227,235.820084 
	C1023.951965,238.333557 1022.972961,240.890518 1021.699097,243.733765 
z"/>
<path fill="#282D33" opacity="1.000000" stroke="none" 
	d="
M404.949829,183.215073 
	C408.806641,175.268219 415.458191,173.502838 423.123840,174.023865 
	C429.783325,174.476532 434.288940,178.170853 436.972443,184.087769 
	C437.680237,185.648331 437.957245,187.531174 437.959106,189.266525 
	C438.010254,236.736053 438.005676,284.205658 437.994568,331.675232 
	C437.992645,339.852722 430.821350,346.431183 422.709595,347.118896 
	C409.315582,348.254395 402.804901,338.387604 402.876495,327.439636 
	C403.171539,282.303802 402.966461,237.164841 403.080444,192.027374 
	C403.087524,189.218781 404.252533,186.413101 404.949829,183.215073 
z"/>
<path fill="#282D33" opacity="1.000000" stroke="none" 
	d="
M266.958801,337.810913 
	C266.262848,335.284332 265.085083,333.150818 265.080322,331.014648 
	C264.975159,284.034424 265.020966,237.053909 264.978851,190.073486 
	C264.972046,182.458481 272.328552,173.085617 283.186890,173.855148 
	C293.094147,174.557251 299.989624,180.637527 299.992920,190.337738 
	C300.008698,236.818405 300.000946,283.299072 299.999146,329.779724 
	C299.998810,338.533600 295.463135,344.720184 287.533051,346.803375 
	C279.310577,348.963379 271.178528,345.553223 266.958801,337.810913 
z"/>
<path fill="#282D33" opacity="1.000000" stroke="none" 
	d="
M850.004272,159.802872 
	C851.283020,160.854721 852.546570,161.890015 853.835205,161.922379 
	C860.494507,162.089539 867.160339,161.983154 873.823792,162.004761 
	C880.454468,162.026260 885.826233,167.367493 885.999878,174.068161 
	C886.173462,180.767883 880.690308,186.843430 874.067078,186.965942 
	C866.257507,187.110443 858.443237,186.999847 850.000000,186.999847 
	C850.000000,192.285797 850.000000,197.377762 850.000000,202.469727 
	C850.000000,213.297928 850.150940,224.128815 849.959290,234.953629 
	C849.750183,246.767288 860.787048,258.329590 872.899536,257.971924 
	C879.689758,257.771393 884.639709,262.838318 885.925659,268.383087 
	C887.214355,273.939453 883.650757,281.285370 877.979736,282.164825 
	C872.067200,283.081787 865.539185,282.618408 859.721252,281.085236 
	C840.184448,275.936768 829.654358,262.049469 825.083252,243.027832 
	C824.779907,241.765396 825.002075,240.373505 825.002014,239.041809 
	C824.999451,209.389175 824.998657,179.736542 825.000916,150.083908 
	C825.001465,142.479919 829.235229,138.677002 836.565186,137.843018 
	C843.531128,137.050446 850.160889,144.143585 850.014404,149.828537 
	C849.932922,152.991592 850.000366,156.158493 850.004272,159.802872 
z"/>
<path fill="#282D33" opacity="1.000000" stroke="none" 
	d="
M909.000000,171.000000 
	C909.000000,163.835220 908.989075,157.170425 909.002930,150.505661 
	C909.019348,142.617310 913.587463,138.014511 921.386292,138.000000 
	C929.325256,137.985229 933.991821,142.493958 933.994263,150.278259 
	C934.006714,190.433563 934.007019,230.588867 933.993896,270.744171 
	C933.991333,278.538818 929.337585,283.017395 921.363892,283.000000 
	C913.575806,282.983032 909.005798,278.373993 909.003662,270.471924 
	C908.994812,237.481277 909.000000,204.490646 909.000000,171.000000 
z"/>
<path fill="#282D33" opacity="1.000000" stroke="none" 
	d="
M680.991455,273.371155 
	C676.566345,283.012787 669.796387,285.659546 661.793762,281.324066 
	C657.633850,279.070374 656.069275,275.183105 656.058655,270.875549 
	C655.959717,230.710220 655.962524,190.544464 656.034607,150.378998 
	C656.047546,143.147614 661.224060,137.427032 669.044128,137.915619 
	C676.417847,138.376358 680.993958,142.778305 680.995605,150.436081 
	C681.004395,191.268341 680.999084,232.100601 680.991455,273.371155 
z"/>
<path fill="#282D33" opacity="1.000000" stroke="none" 
	d="
M341.804749,344.348663 
	C336.274902,341.421387 334.148712,336.596191 334.098907,331.274170 
	C333.872986,307.129608 334.005096,282.981781 333.997009,258.835114 
	C333.994415,251.147598 341.419495,242.208496 352.507629,242.888306 
	C361.914886,243.465057 368.997864,249.929764 368.998993,259.131195 
	C369.001923,282.611725 368.589386,306.102417 369.168457,329.568665 
	C369.470581,341.813263 358.887421,349.287323 346.338684,346.714050 
	C344.840149,346.406738 343.497833,345.337738 341.804749,344.348663 
z"/>
<path fill="#282D33" opacity="1.000000" stroke="none" 
	d="
M223.467010,344.837769 
	C210.210083,350.476288 199.673447,345.143372 196.471634,334.927551 
	C196.088730,333.705902 196.020096,332.346252 196.018707,331.050354 
	C195.993164,307.063538 196.046783,283.076538 195.974243,259.089935 
	C195.949356,250.858475 203.815903,242.720490 212.756287,242.933838 
	C223.551636,243.191452 230.966736,249.370148 230.984894,258.903656 
	C231.030563,282.890411 230.942444,306.877563 231.040466,330.864014 
	C231.065002,336.866852 228.051987,341.031616 223.467010,344.837769 
z"/>
<path fill="#85DAF7" opacity="1.000000" stroke="none" 
	d="
M419.009521,105.140083 
	C428.629822,104.720108 436.583740,109.888954 437.959503,117.454689 
	C439.899506,128.123352 436.079803,135.524551 426.015686,139.009033 
	C423.284546,138.916046 421.373169,138.823105 419.009521,138.708160 
	C419.009521,127.181999 419.009521,116.161041 419.009521,105.140083 
z"/>
<path fill="#D4699D" opacity="1.000000" stroke="none" 
	d="
M276.911469,139.031418 
	C269.306915,136.284012 265.238403,131.314087 265.011780,124.495377 
	C264.704987,115.263786 267.634186,109.614975 274.645050,106.875992 
	C277.314819,105.832970 280.314606,105.634537 283.579315,105.566330 
	C283.996429,114.650681 283.999146,123.219887 283.999725,131.789093 
	C284.000305,140.350723 284.357300,138.780411 276.911469,139.031418 
z"/>
<path fill="#F93473" opacity="1.000000" stroke="none" 
	d="
M213.988937,139.833633 
	C204.058945,140.663513 198.347244,134.365280 196.149200,126.920349 
	C193.585449,118.236671 197.945450,110.603851 207.952698,106.018265 
	C209.772552,105.735992 210.872864,105.464684 211.973190,105.193375 
	C212.421814,105.144135 212.870453,105.094910 213.657684,105.563187 
	C213.993851,117.331680 213.991394,128.582657 213.988937,139.833633 
z"/>
<path fill="#B09CC6" opacity="1.000000" stroke="none" 
	d="
M345.884979,208.050186 
	C336.506927,206.010590 332.431671,196.630066 334.178528,187.538803 
	C335.528595,180.512421 340.731964,173.932526 351.576874,174.556335 
	C351.998047,179.221909 352.115112,183.385620 351.974121,187.540588 
	C351.732880,194.649185 351.330017,201.752274 350.994995,208.857681 
	C350.239441,208.894501 349.483856,208.931335 348.163055,208.698273 
	C347.026855,208.302322 346.455933,208.176254 345.884979,208.050186 
z"/>
<path fill="#A9A7CF" opacity="1.000000" stroke="none" 
	d="
M351.416229,208.913147 
	C351.330017,201.752274 351.732880,194.649185 351.974121,187.540588 
	C352.115112,183.385620 351.998047,179.221909 351.993958,174.606628 
	C361.229126,173.799332 368.865784,180.391068 368.995209,188.828873 
	C369.199493,202.147156 363.353577,209.009079 351.416229,208.913147 
z"/>
<path fill="#F13F7C" opacity="1.000000" stroke="none" 
	d="
M214.387726,139.905701 
	C213.991394,128.582657 213.993851,117.331680 213.992645,105.623344 
	C224.360977,106.234802 230.669937,112.638481 230.933167,122.364479 
	C231.194016,132.003830 224.981445,138.780716 214.387726,139.905701 
z"/>
<path fill="#CC74A6" opacity="1.000000" stroke="none" 
	d="
M277.179321,139.358856 
	C284.357300,138.780411 284.000305,140.350723 283.999725,131.789093 
	C283.999146,123.219887 283.996429,114.650681 283.989380,105.625732 
	C293.429657,105.240784 299.899567,111.849815 299.986755,121.516663 
	C300.083221,132.214752 293.750000,139.752518 284.391907,139.970444 
	C282.080444,140.024277 279.762238,139.788788 277.179321,139.358856 
z"/>
<path fill="#8DCFEF" opacity="1.000000" stroke="none" 
	d="
M418.611908,105.085388 
	C419.009521,116.161041 419.009521,127.181999 419.009521,138.708160 
	C421.373169,138.823105 423.284546,138.916046 425.651489,139.023941 
	C419.170013,141.783630 412.786163,140.014496 407.935730,135.097916 
	C402.897278,129.990692 401.504974,123.325226 404.025452,116.232437 
	C406.412354,109.515503 410.954865,105.560287 418.611908,105.085388 
z"/>
<path fill="#F93473" opacity="1.000000" stroke="none" 
	d="
M211.992020,208.832306 
	C204.199127,208.840179 196.477768,201.854950 195.987137,194.353302 
	C195.239075,182.915421 200.124069,176.132645 209.933502,174.943039 
	C210.388580,174.887848 210.807083,174.531189 211.619644,174.699783 
	C211.995117,186.333878 211.993561,197.583084 211.992020,208.832306 
z"/>
<path fill="#A7A9D0" opacity="1.000000" stroke="none" 
	d="
M355.993958,105.121086 
	C364.710663,108.191818 368.698059,113.182365 369.054626,120.368683 
	C369.613892,131.639877 365.224640,136.349777 356.338501,139.346832 
	C355.996643,127.686768 355.995300,116.403923 355.993958,105.121086 
z"/>
<path fill="#B19BC5" opacity="1.000000" stroke="none" 
	d="
M345.894409,139.070282 
	C338.663208,136.442017 334.272736,130.816895 333.987335,123.814819 
	C333.619751,114.796432 336.639557,110.007607 345.867065,106.274719 
	C346.661713,116.821274 346.806396,127.125099 346.874756,137.429443 
	C346.878387,137.974197 346.236023,138.523254 345.894409,139.070282 
z"/>
<path fill="#F43B79" opacity="1.000000" stroke="none" 
	d="
M212.409149,208.902924 
	C211.993561,197.583084 211.995117,186.333878 211.994064,174.627563 
	C215.060745,174.787094 218.130051,175.403702 221.593842,176.574097 
	C221.982651,187.010071 221.976974,196.892273 221.971298,206.774460 
	C218.922958,207.507492 215.874603,208.240524 212.409149,208.902924 
z"/>
<path fill="#ADA2CB" opacity="1.000000" stroke="none" 
	d="
M346.171997,139.384155 
	C346.236023,138.523254 346.878387,137.974197 346.874756,137.429443 
	C346.806396,127.125099 346.661713,116.821274 346.220459,106.226112 
	C348.973511,105.632492 352.039001,105.330093 355.549255,105.074394 
	C355.995300,116.403923 355.996643,127.686768 355.995483,139.428467 
	C352.811829,139.824249 349.630707,139.761139 346.171997,139.384155 
z"/>
<path fill="#ED4480" opacity="1.000000" stroke="none" 
	d="
M222.307739,206.727173 
	C221.976974,196.892273 221.982651,187.010071 221.980225,176.674591 
	C229.342255,178.569962 230.426437,185.380371 230.589661,191.165253 
	C230.755493,197.041885 229.418518,203.646561 222.307739,206.727173 
z"/>
<path fill="#F13F7C" opacity="1.000000" stroke="none" 
	d="
M211.611679,105.126511 
	C210.872864,105.464684 209.772552,105.735992 208.313782,105.994553 
	C209.053604,105.674416 210.151886,105.367027 211.611679,105.126511 
z"/>
<path fill="#A9A7CF" opacity="1.000000" stroke="none" 
	d="
M346.050293,208.311829 
	C346.455933,208.176254 347.026855,208.302322 347.786316,208.657425 
	C347.388397,208.782135 346.801971,208.677795 346.050293,208.311829 
z"/>
<path fill="#FFFFFF" opacity="1.000000" stroke="none" 
	d="
M571.419006,253.787781 
	C563.585571,247.237213 560.156738,239.267258 560.939209,229.325134 
	C561.571289,221.293625 560.872131,213.086273 562.200378,205.198853 
	C563.808105,195.650909 571.352844,189.121536 581.510193,187.090256 
	C589.810486,185.430359 599.811523,190.741058 603.878906,199.364304 
	C606.083740,204.038818 607.544800,209.429352 607.801636,214.573792 
	C608.210266,222.758133 608.565552,231.294235 606.731201,239.166077 
	C603.301086,253.886032 589.970764,260.965942 577.228027,256.931702 
	C575.282227,256.315674 573.565979,254.974991 571.419006,253.787781 
z"/>
<path fill="#FFFFFF" opacity="1.000000" stroke="none" 
	d="
M729.000000,225.945740 
	C729.654846,218.309525 729.574768,210.999390 731.131165,204.056061 
	C733.679565,192.686874 745.947571,185.553238 755.709229,187.027542 
	C768.195251,188.913300 776.379333,201.972458 776.055603,211.112686 
	C775.784607,218.764160 775.761475,226.442047 776.055542,234.091812 
	C776.504211,245.764206 763.961304,259.050049 752.097412,258.140320 
	C742.157776,257.378143 731.572083,248.538788 730.040894,238.161697 
	C729.469177,234.286469 729.334229,230.346817 729.000000,225.945740 
z"/>
</svg>