<svg version="1.1" id="Layer_1" xmlns="http://www.w3.org/2000/svg" xmlns:xlink="http://www.w3.org/1999/xlink" x="0px" y="0px"
	 width="100%" viewBox="0 0 1024 1024" enable-background="new 0 0 1024 1024" xml:space="preserve">
<path fill="#000000" opacity="1.000000" stroke="none" 
	d="
M461.000000,1.000005 
	C648.963684,1.000000 836.927307,1.000000 1024.945557,1.000000 
	C1024.945557,342.230988 1024.945557,683.461975 1024.945557,1025.000000 
	C837.305420,1025.000000 649.610657,1025.000000 461.117493,1024.720703 
	C466.278625,1021.615601 472.607391,1019.370667 478.130371,1015.858582 
	C496.742798,1004.022888 507.876190,987.306458 507.926178,964.774292 
	C508.127136,874.159973 508.046356,783.545044 508.035309,692.966919 
	C508.000916,693.003479 507.932495,693.077087 508.404388,693.044556 
	C638.202026,693.007874 767.527710,693.004517 896.853455,692.992310 
	C898.679077,692.992188 900.544922,693.105530 902.324036,692.786804 
	C918.475037,689.893433 932.249878,682.750366 943.249268,670.318909 
	C953.498230,658.735596 959.793457,645.294495 959.854553,629.966675 
	C960.168152,551.305725 960.000061,472.642853 959.998108,393.980682 
	C959.998047,392.647705 960.179260,391.272888 959.922729,389.988098 
	C956.649902,373.592590 949.686218,359.410583 936.802002,348.111145 
	C924.129944,336.997803 909.515198,331.137634 893.017151,331.111237 
	C766.858032,330.909363 640.698425,331.000488 514.539001,331.000488 
	C512.445618,331.000488 510.352203,331.000488 507.999512,331.000488 
	C507.999512,328.338104 507.999512,326.357605 507.999512,324.377106 
	C507.999603,235.715500 508.103790,147.053650 507.887665,58.392574 
	C507.855194,45.068386 502.253662,33.352177 493.677826,23.236271 
	C485.422333,13.498232 475.214905,6.580607 462.855774,2.974664 
	C462.108734,2.756705 461.612762,1.678134 461.000000,1.000005 
z"/>
<path fill="#FD5402" opacity="1.000000" stroke="none" 
	d="
M460.531342,1.000005 
	C461.612762,1.678134 462.108734,2.756705 462.855774,2.974664 
	C475.214905,6.580607 485.422333,13.498232 493.677826,23.236271 
	C502.253662,33.352177 507.855194,45.068386 507.887665,58.392574 
	C508.103790,147.053650 507.999603,235.715500 507.999512,324.377106 
	C507.999512,326.357605 507.999512,328.338104 507.999512,331.000488 
	C510.352203,331.000488 512.445618,331.000488 514.539001,331.000488 
	C640.698425,331.000488 766.858032,330.909363 893.017151,331.111237 
	C909.515198,331.137634 924.129944,336.997803 936.802002,348.111145 
	C949.686218,359.410583 956.649902,373.592590 959.922729,389.988098 
	C960.179260,391.272888 959.998047,392.647705 959.998108,393.980682 
	C960.000061,472.642853 960.168152,551.305725 959.854553,629.966675 
	C959.793457,645.294495 953.498230,658.735596 943.249268,670.318909 
	C932.249878,682.750366 918.475037,689.893433 902.324036,692.786804 
	C900.544922,693.105530 898.679077,692.992188 896.853455,692.992310 
	C767.527710,693.004517 638.202026,693.007874 508.432892,692.571594 
	C507.989502,572.538269 507.989502,452.945251 507.989502,333.000671 
	C505.433289,333.000671 503.463562,333.000671 501.493866,333.000671 
	C384.668671,333.000671 267.843475,333.019043 151.018311,332.934021 
	C146.294052,332.930603 141.526016,332.201782 136.855331,331.375732 
	C124.790962,329.242004 114.482658,323.690399 105.555038,315.252167 
	C93.471085,303.830627 86.237854,289.881287 86.152542,273.399536 
	C85.792831,203.906235 85.981102,134.409988 86.043137,64.914879 
	C86.047241,60.322491 86.253036,55.653328 87.087196,51.153763 
	C89.182259,39.852959 94.024414,29.880053 102.017075,21.402241 
	C110.073074,12.857252 119.438309,6.594484 130.661758,3.080659 
	C131.569351,2.796509 132.226486,1.712388 133.000000,1.000001 
	C242.020889,1.000000 351.041779,1.000000 460.531342,1.000005 
z"/>
<path fill="#000000" opacity="1.000000" stroke="none" 
	d="
M132.531342,1.000001 
	C132.226486,1.712388 131.569351,2.796509 130.661758,3.080659 
	C119.438309,6.594484 110.073074,12.857252 102.017075,21.402241 
	C94.024414,29.880053 89.182259,39.852959 87.087196,51.153763 
	C86.253036,55.653328 86.047241,60.322491 86.043137,64.914879 
	C85.981102,134.409988 85.792831,203.906235 86.152542,273.399536 
	C86.237854,289.881287 93.471085,303.830627 105.555038,315.252167 
	C114.482658,323.690399 124.790962,329.242004 136.855331,331.375732 
	C141.526016,332.201782 146.294052,332.930603 151.018311,332.934021 
	C267.843475,333.019043 384.668671,333.000671 501.493866,333.000671 
	C503.463562,333.000671 505.433289,333.000671 507.989502,333.000671 
	C507.989502,452.945251 507.989502,572.538269 507.960999,692.604126 
	C507.932495,693.077087 508.000916,693.003479 507.563019,692.995972 
	C388.658478,692.992126 270.191833,692.978271 151.725235,693.061035 
	C146.823318,693.064453 141.851685,693.606934 137.035065,694.534546 
	C126.987244,696.469788 117.776085,700.543640 109.823189,707.060425 
	C95.441513,718.844849 86.219032,733.783630 86.131767,752.627441 
	C85.803818,823.439270 85.842697,894.254456 86.224281,965.065735 
	C86.266144,972.835876 88.136986,981.166809 91.359535,988.234619 
	C98.925102,1004.827332 111.489372,1016.632385 129.344788,1022.165466 
	C130.723572,1022.592712 131.788940,1024.031494 133.000000,1025.000000 
	C89.014946,1025.000000 45.029888,1025.000000 1.049221,1025.000000 
	C1.053611,683.666687 1.053611,342.333313 1.053611,1.000000 
	C44.759041,1.000000 88.410866,1.000000 132.531342,1.000001 
z"/>
<path fill="#FD5402" opacity="1.000000" stroke="none" 
	d="
M133.468658,1025.000000 
	C131.788940,1024.031494 130.723572,1022.592712 129.344788,1022.165466 
	C111.489372,1016.632385 98.925102,1004.827332 91.359535,988.234619 
	C88.136986,981.166809 86.266144,972.835876 86.224281,965.065735 
	C85.842697,894.254456 85.803818,823.439270 86.131767,752.627441 
	C86.219032,733.783630 95.441513,718.844849 109.823189,707.060425 
	C117.776085,700.543640 126.987244,696.469788 137.035065,694.534546 
	C141.851685,693.606934 146.823318,693.064453 151.725235,693.061035 
	C270.191833,692.978271 388.658478,692.992126 507.597412,692.959412 
	C508.046356,783.545044 508.127136,874.159973 507.926178,964.774292 
	C507.876190,987.306458 496.742798,1004.022888 478.130371,1015.858582 
	C472.607391,1019.370667 466.278625,1021.615601 460.659546,1024.720703 
	C351.979095,1025.000000 242.958206,1025.000000 133.468658,1025.000000 
z"/>
</svg>