<svg version="1.1" id="Layer_1" xmlns="http://www.w3.org/2000/svg" xmlns:xlink="http://www.w3.org/1999/xlink" x="0px" y="0px"
	 width="100%" viewBox="0 0 816 512" enable-background="new 0 0 816 512" xml:space="preserve">
<path fill="#000000" opacity="1.000000" stroke="none" 
	d="
M431.531342,1.000000 
	C449.973175,3.313144 467.863129,6.001529 485.227386,11.463597 
	C552.637329,32.667984 603.315430,74.320847 637.265442,136.205215 
	C653.217102,165.282074 662.910339,196.551682 666.062134,229.500992 
	C672.639893,298.265656 655.525696,360.620636 612.723633,415.187836 
	C573.556091,465.121307 522.322632,495.957855 460.255035,508.836304 
	C452.779846,510.387360 445.183899,511.356384 437.321960,512.797607 
	C419.979095,513.000000 402.958221,513.000000 385.468658,513.000000 
	C379.085449,510.428619 372.614349,510.893616 366.444702,509.618652 
	C266.783936,489.023346 200.213074,430.514404 166.661102,334.685669 
	C156.161255,304.696747 152.641083,273.318726 154.947937,241.698990 
	C160.495255,165.663208 192.910706,103.292618 252.508240,55.500671 
	C288.389038,26.727446 329.546936,9.800542 374.904633,2.883235 
	C379.661774,2.157742 384.477570,1.816975 389.633087,1.148857 
	C403.687561,1.000000 417.375122,1.000000 431.531342,1.000000 
M247.509415,127.973061 
	C241.788559,138.081055 238.303726,148.960144 236.253403,160.350266 
	C233.547958,175.379837 234.705109,190.593384 234.636353,205.680267 
	C234.443573,247.991135 233.593933,290.314941 235.247314,332.623505 
	C235.605728,341.794647 236.591171,350.858948 238.365448,359.833099 
	C243.773361,387.185730 257.991638,408.228943 282.763489,421.774506 
	C302.520508,432.577972 324.058350,435.396240 346.008820,435.557587 
	C388.335785,435.868774 430.666901,435.723206 472.995728,435.588684 
	C481.970825,435.560150 491.009705,435.057526 499.829498,433.354065 
	C553.349304,423.017242 581.824097,384.619843 586.487549,334.313843 
	C588.515625,312.435760 587.811218,290.376007 585.508423,268.520172 
	C583.241760,247.006775 572.089050,231.320267 551.966309,222.465363 
	C542.505310,218.302094 532.427429,217.213379 522.299988,216.365540 
	C519.762939,216.153122 517.575867,216.038239 518.305115,212.417267 
	C521.457214,196.766144 520.876770,181.025482 519.833374,165.190582 
	C518.802551,149.547729 514.707458,134.971848 506.236420,121.887589 
	C486.657928,91.646935 457.406067,79.325798 422.615631,78.470192 
	C400.631195,77.929520 378.622406,78.412071 356.624664,78.366188 
	C343.629669,78.339088 330.644836,78.454857 317.752869,80.324043 
	C286.933716,84.792458 263.522919,100.298973 247.509415,127.973061 
z"/>
<path fill="#000000" opacity="1.000000" stroke="none" 
	d="
M320.998352,348.163330 
	C309.838806,339.944397 305.461304,328.965607 307.962769,316.006622 
	C310.284973,303.976166 318.140350,296.061279 329.965698,292.408386 
	C333.636383,291.274506 337.453125,290.877655 341.293976,290.877747 
	C387.268341,290.878754 433.242737,290.851074 479.217010,290.918243 
	C496.448975,290.943420 508.209595,299.196320 512.618530,314.043640 
	C518.237244,332.964813 503.838287,353.117432 484.126801,353.292328 
	C453.821472,353.561279 423.512360,353.406769 393.204834,353.418579 
	C375.558594,353.425446 357.911224,353.288544 340.266693,353.457672 
	C333.383606,353.523651 327.068085,352.141174 320.998352,348.163330 
z"/>
<path fill="#000000" opacity="1.000000" stroke="none" 
	d="
M328.406616,206.725647 
	C317.988770,198.378342 313.609741,187.731781 316.126556,175.103546 
	C318.657166,162.406204 326.879700,154.298874 339.523529,151.150818 
	C343.036926,150.276031 346.774353,149.991776 350.411560,149.974350 
	C372.240845,149.869781 394.071533,149.815704 415.900421,149.956192 
	C432.669830,150.064117 444.693787,159.203766 448.778900,174.532959 
	C453.860840,193.602661 440.309753,212.030426 420.544647,212.264557 
	C395.385773,212.562607 370.220856,212.334320 345.058624,212.371155 
	C338.977905,212.380051 333.712860,210.077759 328.406616,206.725647 
z"/>
</svg>